<?xml version="1.0" encoding="UTF-8" standalone="no"?><!DOCTYPE svg PUBLIC "-//W3C//DTD SVG 1.1//EN" "http://www.w3.org/Graphics/SVG/1.1/DTD/svg11.dtd"><svg width="100%" height="100%" viewBox="0 0 36 36" version="1.1" xmlns="http://www.w3.org/2000/svg" xmlns:xlink="http://www.w3.org/1999/xlink" xml:space="preserve" xmlns:serif="http://www.serif.com/" style="fill-rule:evenodd;clip-rule:evenodd;stroke-linejoin:round;stroke-miterlimit:1.41421;"><g id="圖層_2"><path d="M28.425,10.628c-0.983,-0.488 -2.25,1.245 -2.738,1.875c-0.829,1.169 -1.768,2.256 -2.805,3.247c-0.9,0.734 -1.858,1.393 -2.864,1.972c0.927,-0.889 1.775,-1.858 2.535,-2.895c1.394,-1.819 2.217,-4.012 2.362,-6.3c0.049,-0.671 -0.054,-1.345 -0.3,-1.972c-0.293,-0.6 -1.035,-1.005 -1.552,-0.36c-0.313,0.526 -0.489,1.121 -0.51,1.732c-0.101,0.936 -0.289,1.86 -0.563,2.76c-0.639,1.607 -1.492,3.121 -2.535,4.501c0.18,-0.871 0.338,-1.756 0.443,-2.641c0.264,-2.528 0.334,-5.073 0.209,-7.612c-0.044,-1.14 0.001,-2.468 -0.622,-3.465c-0.126,-0.214 -0.314,-0.384 -0.54,-0.488c-0.286,-0.088 -0.596,-0.038 -0.84,0.135c-0.93,0.63 -1.275,2.25 -1.417,3.255c-0.188,1.253 -0.12,2.528 -0.188,3.795c-0.141,2.433 -0.054,4.874 0.263,7.29c0.037,0.278 0.075,0.548 0.119,0.825c-0.441,-1.093 -0.804,-2.215 -1.087,-3.36c-0.479,-2.391 -0.828,-4.807 -1.043,-7.237c-0.075,-0.615 -0.135,-1.56 -0.667,-1.973c-0.953,-0.75 -1.89,0.983 -2.04,1.695c-0.51,2.363 0.532,5.145 1.402,7.313c0.498,1.308 1.124,2.564 1.868,3.75l0.277,0.443c-1.729,-1.432 -3.07,-3.277 -3.9,-5.363c-0.51,-1.14 -0.93,-2.31 -1.335,-3.495c-0.262,-0.75 -1.35,-2.655 -2.302,-1.5c-0.216,0.3 -0.32,0.666 -0.293,1.035c-0.003,0.057 -0.003,0.115 0,0.173c0.157,1.709 0.695,3.363 1.575,4.837c0.784,1.499 1.831,2.846 3.09,3.975l0.323,0.255l-1.673,-1.08c-1.245,-0.795 -2.145,-2.152 -3.375,-3c-1.935,-1.297 -1.327,1.59 -0.517,2.393c0.855,0.902 1.767,1.749 2.73,2.535c1.469,1.201 3.219,2.011 5.085,2.355c-1.182,0.43 -2.406,0.731 -3.653,0.899c-0.307,0.038 -0.75,0.316 -0.75,0.683c0,1.073 1.335,1.095 2.108,1.005c1.213,-0.191 2.336,-0.758 3.21,-1.62c-0.135,0.322 -0.241,0.656 -0.315,0.998c-0.165,0.787 0.105,1.89 1.125,1.132c0.222,-0.164 0.416,-0.361 0.578,-0.585c-0.173,1.5 -0.361,3 -0.54,4.455c-0.278,2.385 -0.856,4.852 -0.691,7.26c0.075,1.163 1.395,0.998 1.575,0c0.731,-4.129 1.083,-8.317 1.05,-12.51c0.664,0.694 1.443,1.267 2.303,1.695c0.274,0.144 0.591,0.184 0.892,0.113c0.803,-0.263 0.255,-1.328 -0.059,-1.748c-0.787,-0.949 -1.779,-1.706 -2.903,-2.213c0.512,-0.065 1.015,-0.185 1.5,-0.36c2.947,-1.005 6.24,-2.819 7.868,-5.572c0.465,-0.69 1.147,-2.52 0.127,-3.037Z" style="fill:#fff;fill-rule:nonzero;"/><path d="M15.442,20.175c-0.048,0.005 -0.095,0.023 -0.134,0.052c-0.181,0.165 0.45,0.285 0.547,0.308c0.477,0.094 0.962,0.139 1.448,0.135c0.46,0.021 0.92,-0.042 1.357,-0.188c0.15,-0.052 0.322,-0.15 0.315,-0.33c-0.008,-0.18 -0.098,-0.285 -0.247,-0.232c-1.025,0.363 -2.127,0.451 -3.195,0.255l-0.091,0Z" style="fill:#a67a44;fill-rule:nonzero;"/></g></svg>