<svg xmlns="http://www.w3.org/2000/svg" viewBox="0 0 36 36"><defs><style>.cls-1{fill:#fff;}.cls-2{fill:#a67a44;}</style></defs><title>Myanmar工作區域 1 複本 9</title><g id="圖層_2" data-name="圖層 2"><path class="cls-1" d="M13.21,24a13.72,13.72,0,0,1,0-2.35c0-.88,0-1.77.09-2.65a53.67,53.67,0,0,1,.55-5.37A36.27,36.27,0,0,1,15,8.67a21.89,21.89,0,0,1,1.58-4.55c.32-.57.86-1.47,1.53-1.69,1.79-.58.81,6.13.67,6.88C17.82,14.52,16,20.5,13.21,24Z"/><path class="cls-1" d="M13.61,23.9c.51-1.26-.33-2.4.94-4,1.87-2.38,2.26-5.63,3.91-8.17a34,34,0,0,1,3.73-4.89c1.19-1.28,3.12-3.4,4.88-3.86a.64.64,0,0,1,.75.31.77.77,0,0,1,0,.45c-.4,2.48-2.84,5-4.37,6.84-1.27,1.57-2.68,3-3.9,4.65A74.45,74.45,0,0,0,13.61,23.9Z"/><path class="cls-1" d="M13.67,23.37a.9.9,0,0,1,.09-.33,30.12,30.12,0,0,1,3.88-5.61,40,40,0,0,1,6.85-6.59,28.67,28.67,0,0,1,4.2-2.58A8.26,8.26,0,0,1,31,7.44a3,3,0,0,1,1.79.09c1.6.85-1.36,2.14-1.86,2.43-.77.45-1.52,1-2.27,1.45-1.34.88-2.68,1.79-3.95,2.77a76.78,76.78,0,0,0-10.37,9.44.45.45,0,0,1-.46.14C13.7,23.71,13.66,23.55,13.67,23.37Z"/><path class="cls-1" d="M14.15,23.16c.53-.4,1-.91,1.47-1.2A52.23,52.23,0,0,1,24.24,17a31.34,31.34,0,0,1,5.06-1.7c1.56-.4,3.63-1.32,5.25-.74.22.08.47.26.45.5a.54.54,0,0,1-.17.3c-1,1.1-2.68,1.58-4,2.16-2.88,1.13-5.63,2.53-8.55,3.58a62.5,62.5,0,0,1-9.2,2.58A2.85,2.85,0,0,0,14.15,23.16Z"/><path class="cls-1" d="M13.49,23.43a1.09,1.09,0,0,1,.5-.11,22.07,22.07,0,0,1,9,.6c4.12,1.14,8.46,3.73,10,7.93a2.59,2.59,0,0,1,.21,1.31,1.09,1.09,0,0,1-.84.92c-.56.08-1-.42-1.37-.85-3.28-3.9-7.57-6-12.34-7.45-.54-.16-5.49-1.87-5.65-1.59A2.49,2.49,0,0,1,13.49,23.43Z"/><path class="cls-1" d="M15.58,23.05l.17.11c1.52.8,3.77.49,5.45.62a35.54,35.54,0,0,0,7.78.14c.44-.07,2.73-.35,1.68-1.19a1.33,1.33,0,0,0-.57-.25,26.39,26.39,0,0,0-7.66-.8c-1.29,0-2.58.15-3.86.31-.46.06-3.4.24-3.16.85A.68.68,0,0,0,15.58,23.05Z"/><path class="cls-1" d="M14,21.14q.06-.33.09-.66A4.9,4.9,0,0,0,13,16.91c-.72-.82-2.38-1.69-3.36-.8a1.17,1.17,0,0,0-.24,1.25,9.13,9.13,0,0,0,2.17,2.92,7.22,7.22,0,0,1,1.63,3.57c-.06-.35.43-1.18.55-1.56A9.4,9.4,0,0,0,14,21.14Z"/><path class="cls-1" d="M15.23,22.52a47.64,47.64,0,0,0-8,4.41c-1.27.84-2.5,1.73-3.72,2.65A13.92,13.92,0,0,0,1.71,31a2.65,2.65,0,0,0-.61,1,1.65,1.65,0,0,0-.07.85c.2.81,1.06-.27,1.28-.46l.79-.67c.7-.58,1.42-1.13,2.14-1.67q2.64-2,5.39-3.8a34.88,34.88,0,0,1,4.6-2.71,6.39,6.39,0,0,1,.73-.27.61.61,0,0,0,.28-.2c.33-.39-.7-.64-1-.52"/><path class="cls-2" d="M14.19,23.14c-.32-.48-.67-1.23-.19-1.7a1.35,1.35,0,0,1,.47-.35,1,1,0,0,1,.66,0,4.2,4.2,0,0,1,2.43,1.86c.2.35.57.9.08,1.16A2.15,2.15,0,0,1,16,24a5.42,5.42,0,0,1-1.53-.57A1.24,1.24,0,0,1,14.19,23.14Z"/></g></svg>