<svg xmlns="http://www.w3.org/2000/svg" viewBox="0 0 36 36"><defs><style>.cls-1{fill:#fff;}.cls-2{fill:#a67a44;}</style></defs><title>Myanmar工作區域 1 複本 8</title><g id="圖層_2" data-name="圖層 2"><path class="cls-1" d="M13.93,18.37a1.42,1.42,0,0,1-.64-.39,2.75,2.75,0,0,1-.53-.87A8.48,8.48,0,0,1,16,7.26,8.81,8.81,0,0,1,18.54,6.1a.26.26,0,0,1,.15,0,.26.26,0,0,1,.11.12,9.79,9.79,0,0,1,1.49,4A11,11,0,0,1,20.23,13a8.77,8.77,0,0,1-.46,2.6,10.91,10.91,0,0,1-1.66,2.28c-.4.47-1.84.34-2.42.38A5.36,5.36,0,0,1,13.93,18.37Z"/><path class="cls-1" d="M17.67,18.14c-.15-.07.09-1.23.11-1.4a7.89,7.89,0,0,1,.37-2,7,7,0,0,1,.44-.91,15.81,15.81,0,0,1,3.17-4.11,9.6,9.6,0,0,1,3.35-1.86,10.8,10.8,0,0,1,3.2-.39c.34,0,.37-.06.49.19a4,4,0,0,1,0,.86,4.11,4.11,0,0,0,.83,2.09,8.32,8.32,0,0,1,1.78,4c.14,1.63-.79,2.94-1.77,4.15C28.35,20.37,25.87,21,23.82,21Z"/><path class="cls-1" d="M22.78,20.6c.13-.07.91.25,1.08.31.64.21,1.27.51,1.9.75,1.57.61,3.18,1.08,4.76,1.66a4.23,4.23,0,0,1,1.22.61,2.67,2.67,0,0,0,1.11.69,17,17,0,0,0,2,.06.15.15,0,0,1,.11,0s0,.08,0,.13c-.2.88-1.2,1.32-1.92,1.68a6.3,6.3,0,0,1-3,1,11.29,11.29,0,0,1-4.7-1.44,29.74,29.74,0,0,1-5.56-3.77Z"/><path class="cls-1" d="M17.67,22.22a2.21,2.21,0,0,0-.06.34,6.85,6.85,0,0,0,2.09,5.08,18.42,18.42,0,0,0,3.83,3.6c1.1.69,2.48,1.15,3.64.3a1.33,1.33,0,0,0,.64-1.11.41.41,0,0,0,0-.19.74.74,0,0,0-.19-.16,6.39,6.39,0,0,1-2.21-2.73,21.72,21.72,0,0,0-3-4.53c-.8-.93-2.59-3.47-4-2A3.05,3.05,0,0,0,17.67,22.22Z"/><path class="cls-1" d="M14.76,22.06c-.35.08-1,1.32-1.21,1.63a9.54,9.54,0,0,1-2.64,2.38,9.91,9.91,0,0,1-1.48.68c-.39.15-1.31.17-1.39.68a1,1,0,0,0,.14.54c.57,1.05,1.86,1.21,3,1.22a6.76,6.76,0,0,0,4.81-1.93,7,7,0,0,0,1.69-3,14.31,14.31,0,0,0,.51-2.91C18.15,21.29,15.11,22,14.76,22.06Z"/><path class="cls-1" d="M15,19.57c.09-.27-.34-.84-.43-1.11a8.19,8.19,0,0,1-.31-1.55,9.84,9.84,0,0,0-1.9-5.36c-1.75-2.19-4.12-2.42-6.73-2-.73.12-.26,1.34-.21,1.82.14,1.45-.18,3,.25,4.45a5.61,5.61,0,0,0,1.76,2.57,11.73,11.73,0,0,0,3.61,1.92c.3.12,3,1.23,3.16,1Z"/><path class="cls-1" d="M12.71,20.51c-.93,0-1.85.13-2.82.2a26.74,26.74,0,0,1-4.65,0,11.66,11.66,0,0,1-2.4-.51,5.57,5.57,0,0,0-1.25-.42.39.39,0,0,0-.24,0,.46.46,0,0,0-.21.4C1,21.76,2.2,23,3.54,23.55a13.83,13.83,0,0,0,5.34.78,16.11,16.11,0,0,0,7-1.42s.1-.06.11-.11a.2.2,0,0,0,0-.11,10.47,10.47,0,0,1-.73-1.46,1.75,1.75,0,0,0-.32-.48C14.39,20.27,13.36,20.49,12.71,20.51Z"/><path class="cls-2" d="M17.9,17.65a8.43,8.43,0,0,0-1.64-.22,6,6,0,0,0-2.25.38,2.33,2.33,0,0,0-.83,3.86c1.45,1.37,4.61,1.84,6.44,1.56a5.92,5.92,0,0,0,3.73-1.67c.41-.48.91-1.37.5-2s-1.43-.37-2.12-.36a2.94,2.94,0,0,1-1.48-.35c-.44-.24-.74-.66-1.2-.86A6.47,6.47,0,0,0,17.9,17.65Z"/></g></svg>