<svg xmlns="http://www.w3.org/2000/svg" viewBox="0 0 36 36"><defs><style>.cls-1{fill:#fff;}.cls-2{fill:#a67a44;}</style></defs><title>Thai工作區域 1 複本 10</title><g id="圖層_2" data-name="圖層 2"><path class="cls-1" d="M2,10.32c1.67.52,3.77,1,4.58,2.29,1.1,1.81,0,4-1,5.65C4.22,20.66,2.82,23,1.39,25.39c-.29.49-.5,1.28.26,1.41.56.1,1.63-.78,2.1-1.06,2.08-1.22,4-2.69,6-4,1.5-1,4.49-1.82,5.2.59.38,1.27-.25,2.51-.59,3.7A10.42,10.42,0,0,0,14,30.23a1.32,1.32,0,0,0,.36.88c1.12.94,1.41-2.48,1.57-3a6.11,6.11,0,0,1,1.86-2.93,6.55,6.55,0,0,1,9.72,2.12c.95,2,.14,6.37,2.87,7a1.2,1.2,0,0,0,.75,0c.48-.2.47-.69.45-1.12a16.16,16.16,0,0,1,.75-5.61c.5-1.65,1.83-2.83,2.39-4.44a7.18,7.18,0,0,0,0-3.82c-.6-2.8-1.06-5.64-1.93-8.38a1.91,1.91,0,0,0-.22-.62c-.75-1.11-2.3,1.12-2.68,1.68-.6.87-1.25,1.92-2.47,1.75a1.67,1.67,0,0,1-1.22-1.06,8.7,8.7,0,0,1-.38-2.28c-.28-2.23-.88-6.78-4.06-6.54-1.32.1-1.89,1-2.67,1.94-.49.57-1.67,1.85-2.39.9a4.51,4.51,0,0,1-.42-3.19c.09-.81.73-2.26-.2-2.79s-2.09.63-2.65,1.2C11.67,3.74,10,5.4,7.87,7.31A10.65,10.65,0,0,1,.66,9.84,8.32,8.32,0,0,0,2,10.32Z"/><path class="cls-2" d="M6.85,10.44c9.62.28,18.48,5.56,24.91,12.46.13.15,1-.41,1.13-.28-6.43-6.91-15-12.14-24.62-12.42a2.67,2.67,0,0,0-1.42.24Z"/></g></svg>