<svg xmlns="http://www.w3.org/2000/svg" viewBox="0 0 36 36"><defs><style>.cls-1{fill:#fff;}.cls-2{fill:#a67a44;}</style></defs><title>Myanmar工作區域 1 複本 7</title><g id="圖層_2" data-name="圖層 2"><path class="cls-1" d="M23.72,7.76C22.6,15.46,18.21,21.92,10.11,23a17.2,17.2,0,0,1-7.46-.86.18.18,0,0,0-.24.19C3,28,7.89,32.35,12.94,34.2a14.79,14.79,0,0,0,13.25-1.91,13.19,13.19,0,0,0,4.47-5.24,15.92,15.92,0,0,0,1.41-10c-1.13-5-4.95-9.45-8.58-12.77C24.08,4.83,23.86,6.8,23.72,7.76Z"/><path class="cls-1" d="M24.28,5.63c-.48-.22-1.19-1.56-1.46-2s-1-2.09-.11-2.51.94.93,1,1.41a8.11,8.11,0,0,0,.51,2.67,1.54,1.54,0,0,0,.73.78Z"/><path class="cls-2" d="M25.56,10.56A3.82,3.82,0,0,0,25.48,12a17.73,17.73,0,0,1-.12,1.79,19.69,19.69,0,0,1-.71,3.56A14.39,14.39,0,0,1,21,23.56,11.47,11.47,0,0,1,8.85,26.1c.37.13.69.43,1.07.56a11.47,11.47,0,0,0,12.2-2.55,13.06,13.06,0,0,0,3.42-6.33A23.41,23.41,0,0,0,26.07,14c0-.61,0-1,0-1.63S26.25,10.72,25.56,10.56Z"/></g></svg>