<?xml version="1.0" encoding="UTF-8" standalone="no"?><!DOCTYPE svg PUBLIC "-//W3C//DTD SVG 1.1//EN" "http://www.w3.org/Graphics/SVG/1.1/DTD/svg11.dtd"><svg width="100%" height="100%" viewBox="0 0 300 43" version="1.1" xmlns="http://www.w3.org/2000/svg" xmlns:xlink="http://www.w3.org/1999/xlink" xml:space="preserve" xmlns:serif="http://www.serif.com/" style="fill-rule:evenodd;clip-rule:evenodd;stroke-linejoin:round;stroke-miterlimit:1.41421;"><path d="M40.69,34.91l-15.88,-3.73l0,-19.85l15.88,-4.38l0,27.96Z" style="fill:#fff;fill-rule:nonzero;"/><path d="M0,42.52l24.81,-11.34l0,-19.85l-24.81,-11.33l0,42.52Z" style="fill:#fff;fill-opacity:0.8;fill-rule:nonzero;"/><path d="M167.28,16.16l11.72,0l0,-2.82l-2.87,0c-0.218,0.821 -0.774,1.512 -1.53,1.9l-6.33,0c2.93,-2.644 5.489,-5.672 7.61,-9l-2.66,-1.65c-2.318,3.991 -5.258,7.587 -8.71,10.65l-2.5,0l0,-6.75l8,0l0,-2.84l-2.9,0c-0.223,0.849 -0.809,1.559 -1.6,1.94l-3.5,0l0,-5.27l-2.93,0l0,5.27l-9.12,0l0,0.9l9.12,0l0,6.75l-13.12,0l0,0.89l17.55,0c-5.959,5.248 -12.798,9.405 -20.2,12.28l0.29,0.8c3.406,-1.051 6.721,-2.378 9.91,-3.97l0,14.41l2.8,0l0,-3.71l14.34,0l0,3.77l2.89,0l0,-17.47l0,-2.09l-2.87,0c-0.21,0.801 -0.738,1.484 -1.46,1.89l-10,0c2.847,-1.735 5.546,-3.702 8.07,-5.88Zm-10.93,18.88l0,-5.27l14.34,0l0,5.27l-14.34,0Zm14.34,-12l0,5.87l-14.34,0l0,-5.17l1.3,-0.73l13.04,0.03Z" style="fill:#fff;fill-rule:nonzero;"/><path d="M102.99,4.96l0.52,-0.72c2.594,0.706 4.81,2.401 6.17,4.72l-2.21,1.58c0,0 -2.48,-4.6 -4.48,-5.58Z" style="fill:#fff;fill-rule:nonzero;"/><path d="M116.39,2.47l0.41,-0.5c1.989,0.389 3.73,1.589 4.8,3.31l-2.44,1.31c-0.555,-1.588 -1.509,-3.007 -2.77,-4.12Z" style="fill:#fff;fill-rule:nonzero;"/><path d="M136.62,5.82l-2.87,0c-0.221,0.868 -0.809,1.599 -1.61,2l-5.86,0c1.493,-1.553 2.905,-3.182 4.23,-4.88l-3.44,-0.09c0,0 -1.1,3.65 -1.69,5l-12.23,0l0,0.9l23.46,0l0.01,-2.93Z" style="fill:#fff;fill-rule:nonzero;"/><path d="M119.09,24.43c-6.86,-0.16 -9,-2.45 -9.48,-3.23l0,-7.96l-2.27,0c-0.177,0.682 -0.645,1.254 -1.28,1.56l-5.88,0l0,0.9l6.51,0l0,6.05l-5.56,2.53l1.87,3.19l4.2,-4.93l2.42,0c4.7,6.16 25.76,3.82 25.76,3.82l0,-2.32c-5.47,0.96 -16.29,0.39 -16.29,0.39Z" style="fill:#fff;fill-rule:nonzero;"/><path d="M134.07,9.42l-2.38,0c-0.156,0.665 -0.584,1.235 -1.18,1.57l-13.24,0l0,-1.25l-2.85,0l0,13.2l2.85,0l0,-1.14l13.9,0l0,1.19l2.89,0l0.01,-13.57Zm-2.9,2.54l0,2.48l-13.9,0l0,-2.48l13.9,0Zm-13.9,3.38l13.9,0l0,2.29l-13.9,0l0,-2.29Zm0,5.57l0,-2.38l13.9,0l0,2.38l-13.9,0Z" style="fill:#fff;fill-rule:nonzero;"/><path d="M112.21,33.24l0.46,-0.46c2.126,0.576 3.99,1.865 5.28,3.65l-2.21,1.92c0,0 -2.64,-4.86 -3.53,-5.11Z" style="fill:#fff;fill-rule:nonzero;"/><path d="M135.62,28.07l-2.87,0c-0.194,0.749 -0.671,1.394 -1.33,1.8l-3.51,0l0,-2.19l-2.89,0c0,0 0,0.93 0,2.19l-22.62,0l0,0.9l22.64,0c0,2.21 0,4.91 0,5.6c0,1.21 -1.25,1 -1.25,1l-1.77,0l0,0.61c0.724,-0.052 1.441,0.177 2,0.64c0.39,0.49 0.26,1.43 1,1.64c0.675,0.046 1.343,-0.165 1.87,-0.59c0.709,-0.602 1.082,-1.513 1,-2.44l0,-6.46l7.71,0l0.02,-2.7Z" style="fill:#fff;fill-rule:nonzero;"/><path d="M75.38,13.68l-2.87,0c-0.214,0.869 -0.799,1.601 -1.6,2l-4,0l0,-5.8l8.31,0l0,-2.85l-2.71,0c-0.212,0.867 -0.793,1.598 -1.59,2l-3.88,0l0,-6l-2.91,0l0,6l-6.93,0l0,0.89l6.88,0l0,5.77l-8.32,0l0,0.89l19.62,0l0,-2.9Z" style="fill:#fff;fill-rule:nonzero;"/><path d="M75.44,20.56l-2.84,0c-0.215,0.83 -0.776,1.53 -1.54,1.92l-3.25,0c1.14,-0.94 4.21,-4.22 4.21,-4.22l-3.46,-1.38c-0.299,1.829 -0.73,3.634 -1.29,5.4l0.33,0.2l-5.61,0l1.91,-0.82c-0.919,-1.643 -2.052,-3.156 -3.37,-4.5l-0.62,0.37c0.5,0.52 1.47,4.16 1.67,5l-5.71,0l0,0.89l8.21,0l0,5.82l-6.87,0l0,0.9l6.87,0l0,9.85l2.91,0l0,-9.85l8.32,0l0,-2.68l-2.8,0c-0.184,0.74 -0.651,1.379 -1.3,1.78l-4.17,0l0,-5.87l8.44,0l-0.04,-2.81Z" style="fill:#fff;fill-rule:nonzero;"/><path d="M87.17,32.89c2.271,-3.58 3.788,-7.585 4.46,-11.77l0,-0.82l-11.8,0l0,-13.94l8.14,0l0,9c0,0 0.15,1.31 -1,1.31l-1.16,0l0,0.57c0,0 1.67,0.11 1.67,1.06c0,0.95 3.27,1.67 3.27,-3l0,-11.7l-2.84,0c-0.195,0.787 -0.7,1.462 -1.4,1.87l-6.69,0l0,-2.07l-2.71,0l0,36.37l2.71,0l0,-18.65l8.82,0c-0.495,3.522 -1.429,6.969 -2.78,10.26c-2.093,-2.697 -3.577,-5.815 -4.35,-9.14l-0.64,0.12c0.479,4.047 1.812,7.946 3.91,11.44c-1.116,2.262 -2.521,4.37 -4.18,6.27l0.31,0.5c1.773,-1.637 3.372,-3.453 4.77,-5.42c1.441,2.084 3.326,3.823 5.52,5.09l2.31,-2.87c-2.391,-1.056 -4.547,-2.579 -6.34,-4.48Z" style="fill:#fff;fill-rule:nonzero;"/><path d="M191.81,15.57l1.46,0l0,-8.95l-2.76,0l0,1.8l-1.43,0l0,-3.18l9.94,0l0,3.14l-1.43,0l0,-1.8l-2.68,0l0,9l1.46,0l0,1.28l-4.56,0l0,-1.29Z" style="fill:#fff;fill-rule:nonzero;"/><path d="M203.68,15.57l1.44,0l0,-9l-1.44,0l0,-1.33l4.54,0l0,1.3l-1.46,0l0,3.85l6,0l0,-3.85l-1.46,0l0,-1.3l4.54,0l0,1.3l-1.44,0l0,9l1.44,0l0,1.28l-4.54,0l0,-1.25l1.46,0l0,-3.83l-6,0l0,3.83l1.46,0l0,1.28l-4.54,0l0,-1.28Z" style="fill:#fff;fill-rule:nonzero;"/><path d="M220.85,15.57l1.45,0l0,-9l-1.45,0l0,-1.33l8.38,0l0,2.68l-1.43,0l0,-1.3l-3.87,0l0,3.72l4.1,0l0,1.35l-4.1,0l0,3.82l4.15,0l0,-1.4l1.43,0l0,2.74l-8.66,0l0,-1.28Z" style="fill:#fff;fill-rule:nonzero;"/><path d="M189.05,37.39l1.46,0l0,-9l-1.45,0l0,-1.3l5,0c0.719,-0.032 1.438,0.053 2.13,0.25c1.269,0.424 2.096,1.665 2,3c0.091,1.515 -0.925,2.891 -2.4,3.25c0.211,0.13 0.382,0.317 0.49,0.54l1.64,2.85c0.18,0.31 0.4,0.38 0.81,0.38l0.34,0l0,1.28l-1,0c-1,0 -1.22,-0.18 -1.61,-0.87l-1.79,-3.17c-0.29,-0.49 -0.5,-0.63 -1.21,-0.63l-1.38,0l0,3.39l1.43,0l0,1.28l-4.51,0l0.05,-1.25Zm5.46,-4.74c0.036,0.002 0.072,0.003 0.108,0.003c1.098,0 2,-0.903 2,-2c0,-0.061 -0.002,-0.122 -0.008,-0.183c0.076,-0.781 -0.373,-1.524 -1.1,-1.82c-0.46,-0.156 -0.945,-0.227 -1.43,-0.21l-1.92,0l0,4.21l2.35,0Z" style="fill:#fff;fill-rule:nonzero;"/><path d="M203.7,37.39l1.44,0l0,-9l-1.44,0l0,-1.3l8.37,0l0,2.69l-1.42,0l0,-1.34l-3.87,0l0,3.72l4.1,0l0,1.34l-4.1,0l0,3.82l4.14,0l0,-1.39l1.43,0l0,2.74l-8.65,0l0,-1.28Z" style="fill:#fff;fill-rule:nonzero;"/><path d="M216.94,37.39l1.45,0l0,-9l-1.45,0l0,-1.3l5.4,0c0.682,-0.039 1.364,0.07 2,0.32c1.275,0.571 2.073,1.875 2,3.27c0.088,1.482 -0.796,2.861 -2.18,3.4c-0.562,0.179 -1.151,0.261 -1.74,0.24l-2.34,0l0,3.07l1.43,0l0,1.28l-4.55,0l-0.02,-1.28Zm5.23,-4.41c0.444,0.012 0.887,-0.066 1.3,-0.23c0.775,-0.384 1.237,-1.209 1.16,-2.07c0.089,-0.804 -0.304,-1.589 -1,-2c-0.44,-0.206 -0.924,-0.302 -1.41,-0.28l-2.16,0l0,4.54l2.11,0.04Z" style="fill:#fff;fill-rule:nonzero;"/><path d="M236.83,26.9c0.037,-0.001 0.074,-0.001 0.11,-0.001c3.204,0 5.84,2.636 5.84,5.84c0,0.02 0,0.041 0,0.061c0.033,0.256 0.05,0.515 0.05,0.773c0,3.291 -2.708,6 -6,6c-3.292,0 -6,-2.709 -6,-6c0,-0.258 0.017,-0.517 0.05,-0.773c0,-0.024 0,-0.047 0,-0.071c0,-3.198 2.631,-5.83 5.83,-5.83c0.04,0 0.08,0 0.12,0.001Zm0,10.5c2.356,-0.072 4.255,-2.031 4.255,-4.388c0,-0.071 -0.002,-0.141 -0.005,-0.212c0.003,-0.069 0.005,-0.138 0.005,-0.206c0,-2.337 -1.923,-4.26 -4.26,-4.26c-2.337,0 -4.26,1.923 -4.26,4.26c0,0.068 0.002,0.137 0.005,0.206c-0.003,0.071 -0.005,0.141 -0.005,0.212c0,2.361 1.905,4.321 4.265,4.388Z" style="fill:#fff;fill-rule:nonzero;"/><path d="M247.38,37.39l1.44,0l0,-9l-1.44,0l0,-1.3l5,0c0.719,-0.032 1.438,0.052 2.13,0.25c1.272,0.421 2.1,1.664 2,3c0.092,1.512 -0.919,2.887 -2.39,3.25c0.209,0.133 0.378,0.319 0.49,0.54l1.64,2.85c0.18,0.31 0.39,0.38 0.8,0.38l0.35,0l0,1.28l-1,0c-1,0 -1.21,-0.18 -1.6,-0.87l-1.79,-3.17c-0.211,-0.461 -0.712,-0.722 -1.21,-0.63l-1.29,0l0,3.39l1.43,0l0,1.28l-4.51,0l-0.05,-1.25Zm5.41,-4.74c0.036,0.002 0.072,0.003 0.108,0.003c1.098,0 2,-0.903 2,-2c0,-0.061 -0.002,-0.122 -0.008,-0.183c0.074,-0.778 -0.37,-1.518 -1.09,-1.82c-0.456,-0.157 -0.938,-0.228 -1.42,-0.21l-1.87,0l0,4.21l2.28,0Z" style="fill:#fff;fill-rule:nonzero;"/><path d="M264.71,37.39l1.46,0l0,-8.95l-2.72,0l0,1.8l-1.43,0l0,-3.15l9.93,0l0,3.15l-1.44,0l0,-1.8l-2.7,0l0,8.95l1.46,0l0,1.28l-4.56,0l0,-1.28Z" style="fill:#fff;fill-rule:nonzero;"/><path d="M276.51,37.39l1.44,0l0,-9l-1.44,0l0,-1.3l8.37,0l0,2.69l-1.37,0l0,-1.34l-3.87,0l0,3.72l4.1,0l0,1.34l-4.1,0l0,3.82l4.15,0l0,-1.39l1.42,0l0,2.74l-8.7,0l0,-1.28Z" style="fill:#fff;fill-rule:nonzero;"/><path d="M289.8,37.39l1.44,0l0,-9l-1.44,0l0,-1.3l5,0c0.719,-0.032 1.438,0.053 2.13,0.25c1.272,0.421 2.1,1.664 2,3c0.092,1.512 -0.919,2.887 -2.39,3.25c0.209,0.133 0.378,0.319 0.49,0.54l1.64,2.85c0.18,0.31 0.39,0.38 0.8,0.38l0.35,0l0,1.28l-1,0c-1,0 -1.21,-0.18 -1.6,-0.87l-1.71,-3.14c-0.211,-0.461 -0.712,-0.722 -1.21,-0.63l-1.38,0l0,3.39l1.43,0l0,1.28l-4.51,0l-0.04,-1.28Zm5.41,-4.74c0.033,0.002 0.066,0.002 0.098,0.002c1.098,0 2,-0.902 2,-2c0,-0.06 -0.002,-0.121 -0.008,-0.182c0.079,-0.776 -0.361,-1.517 -1.08,-1.82c-0.456,-0.156 -0.938,-0.228 -1.42,-0.21l-1.92,0l0,4.21l2.33,0Z" style="fill:#fff;fill-rule:nonzero;"/></svg>