<?xml version="1.0" encoding="UTF-8" standalone="no"?><!DOCTYPE svg PUBLIC "-//W3C//DTD SVG 1.1//EN" "http://www.w3.org/Graphics/SVG/1.1/DTD/svg11.dtd"><svg width="100%" height="100%" viewBox="0 0 119 48" version="1.1" xmlns="http://www.w3.org/2000/svg" xmlns:xlink="http://www.w3.org/1999/xlink" xml:space="preserve" xmlns:serif="http://www.serif.com/" style="fill-rule:evenodd;clip-rule:evenodd;stroke-linejoin:round;stroke-miterlimit:1.41421;"><g id="logo-white"><path id="Fill-7" d="M92.794,5.857l17.977,0l0,-0.807l-17.977,0l0,0.807Z" style="fill:#fff;"/><path id="Fill-9" d="M89.203,12.748l29.683,0l0,-0.807l-29.683,0l0,0.807Z" style="fill:#fff;"/><path id="Fill-10" d="M98.819,18.894l13.995,0l0,-0.869l-13.995,0l0,0.869Z" style="fill:#fff;"/><path id="Fill-11" d="M97.286,24.975l15.642,0l0,-0.808l-15.642,0l0,0.808Z" style="fill:#fff;"/><path id="Fill-12" d="M97.286,30.51l15.642,0l0,-0.807l-15.642,0l0,0.807Z" style="fill:#fff;"/><path id="Fill-13" d="M96.017,33.842l2.522,0l0,-14.406l-2.522,0l0,14.406Z" style="fill:#fff;"/><path id="Fill-14" d="M111.421,33.899l2.596,0l0,-15.695l-2.596,0l0,15.695Z" style="fill:#fff;"/><path id="Fill-15" d="M100.99,12.717l2.633,0l0,-12.406l-2.633,0l0,12.406Z" style="fill:#fff;"/><path id="Fill-16" d="M113.689,2.324c0,0 -6.778,13.455 -26.858,21.455l0.256,0.714c0,0 19.567,-5.555 28.997,-20.691l-2.395,-1.478Z" style="fill:#fff;"/><path id="Fill-17" d="M73.338,5.231c0,0 1.16,-0.516 1.45,-1.772l2.579,0l0,2.159l-4.159,0l0.13,-0.387Z" style="fill:#fff;"/><path id="Fill-18" d="M72.437,25.214c0,0 1.16,-0.516 1.451,-1.773l2.578,0l0,2.159l-4.159,0l0.13,-0.386Z" style="fill:#fff;"/><path id="Fill-19" d="M56.28,6.05l21.073,0l0,-0.807l-21.073,0l0,0.807Z" style="fill:#fff;"/><path id="Fill-20" d="M58.562,8.974l15.751,0l0,-0.87l-15.751,0l0,0.87Z" style="fill:#fff;"/><path id="Fill-21" d="M58.6,12.01l15.751,0l0,-0.808l-15.751,0l0,0.808Z" style="fill:#fff;"/><path id="Fill-22" d="M58.562,14.874l15.751,0l0,-0.808l-15.751,0l0,0.808Z" style="fill:#fff;"/><path id="Fill-23" d="M58.562,17.816l15.751,0l0,-0.808l-15.751,0l0,0.808Z" style="fill:#fff;"/><path id="Fill-24" d="M44.621,12.373l8.048,0l0,-0.808l-8.048,0l0,0.808Z" style="fill:#fff;"/><path id="Fill-25" d="M50.466,18.517l2.636,0l0,-7.005l-2.636,0l0,7.005Z" style="fill:#fff;"/><path id="Fill-26" d="M74.169,5.239c0,0 0.917,-0.407 1.146,-1.402l2.038,0l0,1.708l-3.287,0l0.103,-0.306Z" style="fill:#fff;"/><path id="Fill-27" d="M49.917,11.535c0,0 0.917,-0.408 1.147,-1.402l2.036,0l0,1.708l-3.286,0l0.103,-0.306Z" style="fill:#fff;"/><path id="Fill-28" d="M46.621,25.872l29.844,0l0,-0.808l-29.844,0l0,0.808Z" style="fill:#fff;"/><path id="Fill-29" d="M73.254,25.06c0,0 0.917,-0.407 1.147,-1.401l2.038,0l0,1.708l-3.288,0l0.103,-0.307Z" style="fill:#fff;"/><path id="Fill-30" d="M71.74,8.155c0,0 0.96,-0.426 1.201,-1.467l2.134,0l0,1.788l-3.443,0l0.108,-0.321Z" style="fill:#fff;"/><path id="Fill-31" d="M50.431,11.559c0,0 0.769,-0.343 0.962,-1.177l1.709,0l0,1.433l-2.757,0l0.086,-0.256Z" style="fill:#fff;"/><path id="Fill-32" d="M47.156,2.685l0.42,-0.649c0,0 3.822,0.917 5.542,4.242l-1.988,1.415c0,0 -2.179,-4.128 -3.974,-5.008" style="fill:#fff;"/><path id="Fill-33" d="M59.195,0.447l0.366,-0.447c0,0 2.523,0.284 4.312,2.969l-2.196,1.18c0,0 -0.813,-2.441 -2.482,-3.702" style="fill:#fff;"/><path id="Fill-34" d="M68.755,0.785c0,0 -1.211,4.004 -1.67,4.755l0.709,0c0,0 2.42,-2.503 4.046,-4.673l-3.085,-0.082Z" style="fill:#fff;"/><path id="Fill-35" d="M45.474,20.082l5.198,-2.37l0.382,0.651l-3.898,4.586l-1.682,-2.867Z" style="fill:#fff;"/><path id="Fill-36" d="M52.965,17.029c0,0 1.21,2.969 8.65,3.147c0,0 9.722,0.51 14.627,-0.356l0,2.101c0,0 -20.64,2.293 -23.62,-4.205l0.343,-0.687Z" style="fill:#fff;"/><path id="Fill-37" d="M57.421,18.839l2.561,0l0,-11.861l-2.561,0l0,11.861Z" style="fill:#fff;"/><path id="Fill-38" d="M72.472,18.882l2.597,0l0,-10.736l-2.597,0l0,10.736Z" style="fill:#fff;"/><path id="Fill-39" d="M55.435,28.046l0.42,-0.421c0,0 2.982,0.687 4.74,3.287l-1.987,1.719c0,0 -2.371,-4.319 -3.173,-4.585" style="fill:#fff;"/><path id="Fill-40" d="M66.947,23.089l2.593,0l0,8.606c0,0.85 -0.203,1.674 -0.899,2.184c-0.391,0.288 -1.174,0.678 -1.677,0.532c-0.66,-0.19 -0.538,-1.033 -0.892,-1.473c-0.373,-0.462 -1.265,-0.576 -1.822,-0.576l0.021,-0.542l1.589,0c0,0 1.118,0.166 1.118,-0.921c0,-1.086 -0.031,-7.81 -0.031,-7.81" style="fill:#fff;"/><path id="Fill-41" d="M1.293,7.107l16.26,0l0,-0.8l-16.26,0l0,0.8Z" style="fill:#fff;"/><path id="Fill-42" d="M20.166,3.937l9.914,0l0,-0.8l-9.914,0l0,0.8Z" style="fill:#fff;"/><path id="Fill-43" d="M20.771,17.204l11.482,0l0,-0.738l-11.482,0l0,0.738Z" style="fill:#fff;"/><path id="Fill-44" d="M7.473,12.758l2.612,0l0,-11.84l-2.612,0l0,11.84Z" style="fill:#fff;"/><path id="Fill-45" d="M19.192,33.954l2.427,0l0,-32.673l-2.427,0l0,32.673Z" style="fill:#fff;"/><path id="Fill-46" d="M7.473,34.148l2.612,0l0,-15.263l-2.612,0l0,15.263Z" style="fill:#fff;"/><path id="Fill-47" d="M13.57,6.3c0,0 1.148,-0.511 1.435,-1.755l2.553,0l0,2.138l-4.117,0l0.129,-0.383Z" style="fill:#fff;"/><path id="Fill-48" d="M13.57,24.649c0,0 1.148,-0.511 1.435,-1.756l2.553,0l0,2.139l-4.117,0l0.129,-0.383Z" style="fill:#fff;"/><path id="Fill-49" d="M27.479,3.221c0,0 1.15,-0.511 1.438,-1.756l2.552,0l0,2.138l-4.118,0l0.128,-0.382Z" style="fill:#fff;"/><path id="Fill-50" d="M13.692,18.451c0,0 1.149,-0.511 1.436,-1.757l2.553,0l0,2.14l-4.117,0l0.128,-0.383Z" style="fill:#fff;"/><path id="Fill-51" d="M13.639,12.273c0,0 1.149,-0.51 1.437,-1.755l2.552,0l0,2.137l-4.117,0l0.128,-0.382Z" style="fill:#fff;"/><path id="Fill-52" d="M0,13.083l17.625,0l0,-0.799l-17.625,0l0,0.799Z" style="fill:#fff;"/><path id="Fill-53" d="M0.099,19.223l17.567,0l0,-0.8l-17.567,0l0,0.8Z" style="fill:#fff;"/><path id="Fill-54" d="M14.509,18.384c0,0 0.908,-0.404 1.134,-1.388l2.018,0l0,1.69l-3.254,0l0.102,-0.302Z" style="fill:#fff;"/><path id="Fill-55" d="M1.304,25.3l16.258,0l0,-0.801l-16.258,0l0,0.801Z" style="fill:#fff;"/><path id="Fill-56" d="M3.728,13.974l0.555,-0.328c0,0 2.094,2.12 3.027,4.037l-2.043,0.883c0,0 -1.034,-4.062 -1.539,-4.592" style="fill:#fff;"/><path id="Fill-57" d="M11.499,13.393l3.104,1.238c0,0 -2.903,3.103 -3.861,3.859l-0.404,-0.252c0,0 0.808,-2.473 1.161,-4.845" style="fill:#fff;"/><path id="Fill-58" d="M28.935,3.133l0,8.849c0,0 0.135,1.178 -0.861,1.178l-1.04,0l0,0.585c0,0 1.493,0.092 1.493,0.953c0,0.859 2.941,1.493 2.941,-2.716l0,-8.94l-2.533,0.091Z" style="fill:#fff;"/><path id="Fill-59" d="M29.638,16.437c0,0 -0.884,10.483 -7.32,17.772l0.27,0.442c0,0 8.369,-7.22 9.726,-17.985l-2.676,-0.229Z" style="fill:#fff;"/><path id="Fill-60" d="M23.128,18.187c0,0 1.816,9.639 10.748,13.613l-2.044,2.61c0,0 -7.607,-3.735 -9.272,-16.11l0.568,-0.113Z" style="fill:#fff;"/><path id="Fill-61" d="M3.781,46.901l0.951,0l0,-5.837l-1.774,0l0,1.175l-0.93,0l0,-2.053l6.478,0l0,2.053l-0.93,0l0,-1.175l-1.775,0l0,5.837l0.952,0l0,0.833l-2.972,0l0,-0.833Z" style="fill:#fff;"/><path id="Fill-62" d="M11.519,46.901l0.941,0l0,-5.891l-0.941,0l0,-0.824l2.962,0l0,0.824l-0.952,0l0,2.513l3.913,0l0,-2.513l-0.952,0l0,-0.824l2.962,0l0,0.824l-0.941,0l0,5.891l0.941,0l0,0.833l-2.962,0l0,-0.833l0.952,0l0,-2.502l-3.913,0l0,2.502l0.952,0l0,0.833l-2.962,0l0,-0.833Z" style="fill:#fff;"/><path id="Fill-63" d="M22.721,46.901l0.941,0l0,-5.891l-0.941,0l0,-0.824l5.463,0l0,1.754l-0.93,0l0,-0.876l-2.523,0l0,2.426l2.672,0l0,0.877l-2.672,0l0,2.491l2.705,0l0,-0.91l0.93,0l0,1.786l-5.645,0l0,-0.833Z" style="fill:#fff;"/><path id="Fill-64" d="M48.123,43.81c0.823,0 1.368,-0.534 1.368,-1.421c0,-0.588 -0.235,-0.994 -0.705,-1.187c-0.246,-0.095 -0.567,-0.138 -0.931,-0.138l-1.251,0l0,2.746l1.519,0Zm-3.528,3.091l0.941,0l0,-5.891l-0.941,0l0,-0.824l3.271,0c0.535,0 0.973,0.022 1.39,0.161c0.791,0.268 1.315,0.931 1.315,1.956c0,1.091 -0.598,1.871 -1.561,2.117l0,0.022c0,0 0.192,0.107 0.321,0.352l1.069,1.86c0.118,0.204 0.257,0.247 0.523,0.247l0.226,0l0,0.833l-0.642,0c-0.642,0 -0.792,-0.116 -1.048,-0.566l-1.165,-2.063c-0.193,-0.321 -0.332,-0.418 -0.792,-0.418l-0.898,0l0,2.214l0.931,0l0,0.833l-2.94,0l0,-0.833Z" style="fill:#fff;"/><path id="Fill-65" d="M54.183,46.901l0.94,0l0,-5.891l-0.94,0l0,-0.824l5.462,0l0,1.754l-0.929,0l0,-0.876l-2.524,0l0,2.426l2.673,0l0,0.877l-2.673,0l0,2.491l2.705,0l0,-0.91l0.931,0l0,1.786l-5.645,0l0,-0.833Z" style="fill:#fff;"/><path id="Fill-66" d="M66.486,44.025c0.342,0 0.61,-0.054 0.844,-0.15c0.481,-0.213 0.76,-0.696 0.76,-1.347c0,-0.61 -0.246,-1.058 -0.674,-1.283c-0.235,-0.128 -0.556,-0.181 -0.919,-0.181l-1.412,0l0,2.961l1.401,0Zm-3.41,2.876l0.941,0l0,-5.891l-0.941,0l0,-0.824l3.517,0c0.46,0 0.92,0.033 1.294,0.203c0.78,0.332 1.282,1.134 1.282,2.139c0,1.057 -0.556,1.914 -1.421,2.213c-0.353,0.128 -0.716,0.16 -1.134,0.16l-1.529,0l0,2l0.952,0l0,0.833l-2.961,0l0,-0.833Z" style="fill:#fff;"/><path id="Fill-67" d="M76.02,46.911c1.529,0 2.769,-1.304 2.769,-3.004c0,-1.646 -1.24,-2.908 -2.769,-2.908c-1.539,0 -2.779,1.262 -2.779,2.908c0,1.7 1.24,3.004 2.779,3.004m0,-6.853c2.181,0 3.881,1.679 3.881,3.849c0,2.224 -1.7,3.956 -3.881,3.956c-2.191,0 -3.88,-1.732 -3.88,-3.956c0,-2.17 1.689,-3.849 3.88,-3.849" style="fill:#fff;"/><path id="Fill-68" d="M86.57,43.81c0.823,0 1.368,-0.534 1.368,-1.421c0,-0.588 -0.235,-0.994 -0.705,-1.187c-0.246,-0.095 -0.567,-0.138 -0.93,-0.138l-1.251,0l0,2.746l1.518,0Zm-3.528,3.091l0.941,0l0,-5.891l-0.941,0l0,-0.824l3.272,0c0.534,0 0.972,0.022 1.389,0.161c0.792,0.268 1.315,0.931 1.315,1.956c0,1.091 -0.598,1.871 -1.56,2.117l0,0.022c0,0 0.192,0.107 0.32,0.352l1.069,1.86c0.118,0.204 0.257,0.247 0.524,0.247l0.225,0l0,0.833l-0.642,0c-0.642,0 -0.792,-0.116 -1.048,-0.566l-1.165,-2.063c-0.192,-0.321 -0.331,-0.418 -0.791,-0.418l-0.898,0l0,2.214l0.93,0l0,0.833l-2.94,0l0,-0.833Z" style="fill:#fff;"/><path id="Fill-69" d="M94.084,46.901l0.951,0l0,-5.837l-1.774,0l0,1.175l-0.93,0l0,-2.053l6.478,0l0,2.053l-0.93,0l0,-1.175l-1.774,0l0,5.837l0.951,0l0,0.833l-2.972,0l0,-0.833Z" style="fill:#fff;"/><path id="Fill-70" d="M101.822,46.901l0.941,0l0,-5.891l-0.941,0l0,-0.824l5.463,0l0,1.754l-0.93,0l0,-0.876l-2.523,0l0,2.426l2.672,0l0,0.877l-2.672,0l0,2.491l2.705,0l0,-0.91l0.93,0l0,1.786l-5.645,0l0,-0.833Z" style="fill:#fff;"/><path id="Fill-71" d="M114.243,43.81c0.823,0 1.368,-0.534 1.368,-1.421c0,-0.588 -0.235,-0.994 -0.705,-1.187c-0.246,-0.095 -0.567,-0.138 -0.93,-0.138l-1.251,0l0,2.746l1.518,0Zm-3.528,3.091l0.941,0l0,-5.891l-0.941,0l0,-0.824l3.271,0c0.535,0 0.973,0.022 1.39,0.161c0.791,0.268 1.315,0.931 1.315,1.956c0,1.091 -0.599,1.871 -1.561,2.117l0,0.022c0,0 0.193,0.107 0.321,0.352l1.069,1.86c0.118,0.204 0.256,0.247 0.524,0.247l0.225,0l0,0.833l-0.642,0c-0.642,0 -0.791,-0.116 -1.048,-0.566l-1.165,-2.063c-0.193,-0.321 -0.332,-0.418 -0.791,-0.418l-0.898,0l0,2.214l0.93,0l0,0.833l-2.94,0l0,-0.833Z" style="fill:#fff;"/></g></svg>