<?xml version="1.0" encoding="UTF-8" standalone="no"?><!DOCTYPE svg PUBLIC "-//W3C//DTD SVG 1.1//EN" "http://www.w3.org/Graphics/SVG/1.1/DTD/svg11.dtd"><svg width="100%" height="100%" viewBox="0 0 20 21" version="1.1" xmlns="http://www.w3.org/2000/svg" xmlns:xlink="http://www.w3.org/1999/xlink" xml:space="preserve" style="fill-rule:evenodd;clip-rule:evenodd;stroke-linejoin:round;stroke-miterlimit:1.41421;"><g id="Group-8"><g id="Group-7"><path id="Combined-Shape" d="M4.907,4.829c-0.029,0.028 -0.058,0.056 -0.086,0.084c-1.486,1.486 -1.486,3.896 0,5.382c1.486,1.486 3.896,1.486 5.382,0c0.031,-0.032 0.062,-0.063 0.092,-0.095c1.559,1.559 2.72,2.728 2.707,2.741c-2.946,2.946 -7.722,2.946 -10.668,0c-2.946,-2.946 -2.946,-7.723 0,-10.669c0,0 1.09,1.083 2.573,2.557Z" style="fill:#fff;"/><path id="Combined-Shape1" d="M10.201,10.298c1.486,-1.487 1.486,-3.896 0,-5.382c-1.483,-1.484 -3.886,-1.486 -5.373,-0.009c-1.475,-1.483 -2.556,-2.572 -2.556,-2.572c2.946,-2.946 7.722,-2.946 10.668,0c2.946,2.946 2.946,7.722 0,10.668c-0.012,0.013 -1.18,-1.147 -2.739,-2.705Z" style="fill:#fff;"/></g><path id="Rectangle-4" d="M11.263,11.36l-1.237,1.237l7.508,7.507l1.236,-1.237l-7.507,-7.507Z" style="fill:#fff;"/><path id="Rectangle-4-Copy" d="M12.5,10.123l-1.237,1.237l7.507,7.507l1.237,-1.237l-7.507,-7.507Z" style="fill:#fff;"/></g></svg>