<?xml version="1.0" encoding="UTF-8" standalone="no"?><!DOCTYPE svg PUBLIC "-//W3C//DTD SVG 1.1//EN" "http://www.w3.org/Graphics/SVG/1.1/DTD/svg11.dtd"><svg width="100%" height="100%" viewBox="0 0 24 24" version="1.1" xmlns="http://www.w3.org/2000/svg" xmlns:xlink="http://www.w3.org/1999/xlink" xml:space="preserve" style="fill-rule:evenodd;clip-rule:evenodd;stroke-linejoin:round;stroke-miterlimit:1.41421;"><path id="icon.-github" d="M11.999,0c-6.626,0 -11.999,5.509 -11.999,12.304c0,5.436 3.438,10.047 8.207,11.674c0.6,0.113 0.819,-0.266 0.819,-0.593c0,-0.291 -0.011,-1.065 -0.017,-2.092c-3.337,0.743 -4.042,-1.65 -4.042,-1.65c-0.546,-1.421 -1.332,-1.799 -1.332,-1.799c-1.09,-0.763 0.082,-0.748 0.082,-0.748c1.205,0.087 1.838,1.268 1.838,1.268c1.071,1.88 2.809,1.337 3.493,1.022c0.109,-0.795 0.419,-1.337 0.762,-1.644c-2.665,-0.311 -5.467,-1.367 -5.467,-6.081c0,-1.343 0.468,-2.442 1.236,-3.302c-0.124,-0.311 -0.536,-1.563 0.118,-3.256c0,0 1.007,-0.331 3.299,1.261c0.957,-0.273 1.984,-0.409 3.004,-0.414c1.02,0.005 2.046,0.141 3.005,0.414c2.291,-1.592 3.296,-1.261 3.296,-1.261c0.655,1.693 0.243,2.945 0.12,3.256c0.769,0.86 1.233,1.959 1.233,3.302c0,4.726 -2.806,5.766 -5.478,6.071c0.43,0.38 0.814,1.13 0.814,2.279c0,1.644 -0.015,2.971 -0.015,3.374c0,0.33 0.217,0.713 0.825,0.592c4.765,-1.63 8.2,-6.238 8.2,-11.673c0,-6.795 -5.373,-12.304 -12.001,-12.304" style="fill:#bfbfbf;"/></svg>