<?xml version="1.0" encoding="UTF-8" standalone="no"?><!DOCTYPE svg PUBLIC "-//W3C//DTD SVG 1.1//EN" "http://www.w3.org/Graphics/SVG/1.1/DTD/svg11.dtd"><svg width="100%" height="100%" viewBox="0 0 24 24" version="1.1" xmlns="http://www.w3.org/2000/svg" xmlns:xlink="http://www.w3.org/1999/xlink" xml:space="preserve" style="fill-rule:evenodd;clip-rule:evenodd;stroke-linejoin:round;stroke-miterlimit:1.41421;"><path id="icon.-share.-facebook" d="M1.325,24c-0.732,0 -1.325,-0.593 -1.325,-1.325l0,-21.35c0,-0.732 0.593,-1.325 1.325,-1.325l21.35,0c0.732,0 1.325,0.593 1.325,1.325l0,21.35c0,0.732 -0.593,1.325 -1.325,1.325l-6.115,0l0,-9.294l3.119,0l0.467,-3.622l-3.586,0l0,-2.313c0,-1.048 0.291,-1.763 1.795,-1.763l1.918,-0.001l0,-3.239c-0.332,-0.045 -1.471,-0.143 -2.795,-0.143c-2.766,0 -4.659,1.688 -4.659,4.788l0,2.671l-3.127,0l0,3.622l3.127,0l0,9.294l-11.494,0Z" style="fill:#bfbfbf;"/></svg>