<?xml version="1.0" encoding="UTF-8" standalone="no"?><!DOCTYPE svg PUBLIC "-//W3C//DTD SVG 1.1//EN" "http://www.w3.org/Graphics/SVG/1.1/DTD/svg11.dtd"><svg width="100%" height="100%" viewBox="0 0 119 48" version="1.1" xmlns="http://www.w3.org/2000/svg" xmlns:xlink="http://www.w3.org/1999/xlink" xml:space="preserve" xmlns:serif="http://www.serif.com/" style="fill-rule:evenodd;clip-rule:evenodd;stroke-linejoin:round;stroke-miterlimit:1.41421;"><path d="M113.115,2.458l2.374,1.465c-1.917,3.077 -4.257,5.755 -6.765,8.067l5.626,0c0.274,-0.148 1.111,-0.676 1.351,-1.713l2.556,0l0,1.713l0.009,0l0,0.799l-10.432,0c-2.327,2.037 -4.77,3.772 -7.135,5.231l8.878,0c0.317,-0.183 1.07,-0.708 1.295,-1.683l2.556,0l0,1.862l0.012,0l0,15.557l-2.574,0l0,-3.359l-12.769,0l0,3.303l-2.499,0l0,-12.853c-5.049,2.505 -8.852,3.585 -8.852,3.585l-0.254,-0.707c7.979,-3.179 13.839,-7.227 17.997,-10.936l-15.646,0l0,-0.799l11.684,0l0,-6.03l-8.124,0l0,-0.801l8.124,0l0,-4.696l2.61,0l0,4.696l3.15,0c0.223,-0.114 1.138,-0.642 1.39,-1.733l2.555,0l0,2.141l-0.009,0l0,0.393l-7.086,0l0,6.03l2.227,0c5.565,-5.195 7.75,-9.529 7.751,-9.532Zm-15.018,22.452l0,4.687l12.769,0l0,-4.687l-12.769,0Zm1.161,-6.028c-0.39,0.227 -0.778,0.445 -1.161,0.657l0,4.57l12.769,0l0,-5.227l-11.608,0Z" style="fill:#fff;"/><path d="M69.353,24.999l3.133,0c0.357,-0.231 0.975,-0.743 1.176,-1.61l2.556,0l0,2.141l-0.001,0l0,0.269l-6.864,0l0,5.772c0,0.843 -0.202,1.659 -0.892,2.165c-0.387,0.285 -1.163,0.672 -1.662,0.528c-0.654,-0.189 -0.533,-1.025 -0.884,-1.46c-0.369,-0.459 -1.254,-0.571 -1.806,-0.571l0.021,-0.538l1.575,0c0,0 1.109,0.165 1.109,-0.912c0,-0.61 -0.01,-3.014 -0.019,-4.984l-20.16,0l0,-0.8l20.156,0c-0.005,-1.125 -0.009,-1.959 -0.009,-1.959l2.571,0l0,1.959Zm-13.981,2.955l0.415,-0.417c0,0 2.957,0.681 4.699,3.258l-1.969,1.704c0,0 -2.351,-4.281 -3.145,-4.545Zm-2.315,-17.509l0.002,0l0,6.827c0.471,0.705 2.351,2.736 8.438,2.881c0,0 9.636,0.506 14.499,-0.353l0,2.082c0,0 -18.735,2.082 -22.937,-3.382l0,0.009l-2.16,0l-3.735,4.392l-1.666,-2.841l4.947,-2.256l0,-5.385l-5.793,0l0,-0.801l5.239,0l0.01,-0.03c0,0 0.91,-0.405 1.137,-1.39l2.019,0l0,0.247Zm21.782,-1.89l-0.006,0l0,10.316l-2.575,0l0,-1.058l-12.38,0l0,1.014l-2.538,0l0,-11.757l2.538,0l0,1.117l11.752,0c0.249,-0.139 0.902,-0.574 1.094,-1.404l2.115,0l0,1.772Zm-2.581,6.342l-12.38,0l0,2.116l12.38,0l0,-2.116Zm0,-2.838l-12.38,0l0,2.038l12.38,0l0,-2.038Zm0,-3.01l-12.38,0l0,2.209l12.38,0l0,-2.209Zm-25.094,-6.233l0.417,-0.644c0,0 3.789,0.909 5.494,4.205l-1.971,1.402c0,0 -2.16,-4.091 -3.94,-4.963Zm21.41,-1.884l3.059,0.081c-1.278,1.706 -3.052,3.619 -3.731,4.338l5.212,0l0.004,-0.012c0,0 1.149,-0.511 1.437,-1.757l2.556,0l0,2.141l-0.014,0l0,0.428l-20.888,0l0,-0.8l10.858,0c0.524,-1.17 1.506,-4.417 1.507,-4.419Zm-9.476,-0.335l0.363,-0.443c0,0 2.501,0.282 4.274,2.943l-2.176,1.169c0,0 -0.806,-2.419 -2.461,-3.669Z" style="fill:#fff;"/><path d="M21.851,33.81l-2.405,0l0,-32.386l2.405,0l0,1.84l5.965,0c0.323,-0.188 1.05,-0.708 1.27,-1.658l2.529,0l0,10.425c0,4.172 -2.916,3.543 -2.916,2.692c0,-0.853 -1.48,-0.944 -1.48,-0.944l0,-0.581l1.031,0c0.988,0 0.853,-1.167 0.853,-1.167l0,-7.974l-7.252,0l0,12.419l7.947,0c0.002,-0.019 0.003,-0.029 0.003,-0.029l0.339,0.029l2.252,0l0,0.193l0.061,0.005c-0.019,0.15 -0.039,0.3 -0.061,0.449l0,0.084l-0.012,0c-0.613,4.108 -2.241,7.675 -3.984,10.484c1.447,1.532 3.283,2.951 5.605,3.984l-2.025,2.587c0,0 -2.486,-1.22 -4.915,-4.58c-2.216,3.065 -4.249,4.819 -4.249,4.819l-0.268,-0.438c1.536,-1.739 2.752,-3.661 3.715,-5.578c-1.506,-2.427 -2.877,-5.747 -3.474,-10.191l0.562,-0.112c0,0.002 0.79,4.188 3.891,8.159c1.645,-3.973 2.269,-7.608 2.474,-9.134l-7.861,0l0,16.603Zm-10.887,-15.394l-0.295,-0.184c0,0 0.801,-2.451 1.151,-4.802l3.077,1.227c0,0 -2.723,2.911 -3.746,3.759l2.898,0c0.231,-0.119 1.122,-0.643 1.369,-1.715l2.53,0l0,2.122l-0.015,0l0,0.386l-7.514,0l0,5.229l3.717,0c0.354,-0.23 0.962,-0.735 1.16,-1.592l2.53,0l0,1.592l0.004,0l0,0.794l-7.411,0l0,8.77l-2.59,0l0,-8.77l-6.115,0l0,-0.794l6.115,0l0,-5.229l-7.309,0l0,-0.793l5.087,0c-0.187,-0.717 -1.045,-3.944 -1.49,-4.411l0.55,-0.324c0,0 2.076,2.1 3.001,4.001l-1.699,0.734l4.995,0Zm6.928,-5.293l-17.47,0l0,-0.793l7.407,0l0,-5.132l-6.126,0l0,-0.793l6.126,0l0,-5.341l2.59,0l0,5.341l3.452,0l0.002,-0.006c0,0 1.138,-0.507 1.423,-1.74l2.53,0l0,2.119l-0.005,0l0,0.42l-7.402,0l0,5.132l3.519,0l0.004,-0.011c0,0 1.139,-0.506 1.424,-1.739l2.53,0l0,2.118l-0.004,0l0,0.425Z" style="fill:#fff;"/><path id="Fill-238" d="M4.17,46.644l0.943,0l0,-5.786l-1.759,0l0,1.165l-0.922,0l0,-2.035l6.421,0l0,2.035l-0.922,0l0,-1.165l-1.759,0l0,5.786l0.943,0l0,0.826l-2.945,0l0,-0.826Z" style="fill:#fff;"/><path id="Fill-239" d="M11.84,46.644l0.932,0l0,-5.839l-0.932,0l0,-0.817l2.935,0l0,0.817l-0.943,0l0,2.49l3.879,0l0,-2.49l-0.943,0l0,-0.817l2.935,0l0,0.817l-0.933,0l0,5.839l0.933,0l0,0.826l-2.935,0l0,-0.826l0.943,0l0,-2.48l-3.879,0l0,2.48l0.943,0l0,0.826l-2.935,0l0,-0.826Z" style="fill:#fff;"/><path id="Fill-240" d="M22.944,46.644l0.932,0l0,-5.839l-0.932,0l0,-0.817l5.415,0l0,1.738l-0.922,0l0,-0.868l-2.501,0l0,2.404l2.649,0l0,0.87l-2.649,0l0,2.469l2.681,0l0,-0.901l0.922,0l0,1.77l-5.595,0l0,-0.826Z" style="fill:#fff;"/><path id="Fill-241" d="M48.123,43.58c0.816,0 1.357,-0.529 1.357,-1.409c0,-0.583 -0.234,-0.985 -0.7,-1.176c-0.243,-0.095 -0.562,-0.137 -0.922,-0.137l-1.24,0l0,2.722l1.505,0Zm-3.497,3.064l0.932,0l0,-5.839l-0.932,0l0,-0.817l3.243,0c0.53,0 0.964,0.021 1.377,0.159c0.785,0.265 1.303,0.923 1.303,1.939c0,1.082 -0.592,1.854 -1.547,2.099l0,0.022c0,0 0.191,0.105 0.318,0.349l1.06,1.843c0.117,0.202 0.255,0.245 0.519,0.245l0.223,0l0,0.826l-0.636,0c-0.636,0 -0.784,-0.116 -1.038,-0.562l-1.156,-2.045c-0.19,-0.317 -0.328,-0.413 -0.784,-0.413l-0.89,0l0,2.194l0.922,0l0,0.826l-2.914,0l0,-0.826Z" style="fill:#fff;"/><path id="Fill-242" d="M54.13,46.644l0.932,0l0,-5.839l-0.932,0l0,-0.817l5.415,0l0,1.738l-0.922,0l0,-0.868l-2.501,0l0,2.404l2.65,0l0,0.87l-2.65,0l0,2.469l2.681,0l0,-0.901l0.922,0l0,1.77l-5.595,0l0,-0.826Z" style="fill:#fff;"/><path id="Fill-243" d="M66.325,43.793c0.339,0 0.605,-0.054 0.837,-0.148c0.477,-0.212 0.753,-0.69 0.753,-1.336c0,-0.605 -0.244,-1.049 -0.668,-1.272c-0.232,-0.127 -0.55,-0.179 -0.911,-0.179l-1.399,0l0,2.935l1.388,0Zm-3.38,2.851l0.932,0l0,-5.839l-0.932,0l0,-0.817l3.487,0c0.455,0 0.911,0.033 1.282,0.201c0.773,0.329 1.271,1.124 1.271,2.12c0,1.048 -0.551,1.898 -1.409,2.194c-0.35,0.127 -0.71,0.158 -1.123,0.158l-1.516,0l0,1.983l0.944,0l0,0.826l-2.936,0l0,-0.826Z" style="fill:#fff;"/><path id="Fill-244" d="M75.776,46.654c1.515,0 2.745,-1.293 2.745,-2.978c0,-1.632 -1.23,-2.882 -2.745,-2.882c-1.526,0 -2.755,1.25 -2.755,2.882c0,1.685 1.229,2.978 2.755,2.978m0,-6.793c2.162,0 3.847,1.664 3.847,3.815c0,2.204 -1.685,3.921 -3.847,3.921c-2.172,0 -3.846,-1.717 -3.846,-3.921c0,-2.151 1.674,-3.815 3.846,-3.815" style="fill:#fff;"/><path id="Fill-245" d="M86.234,43.58c0.816,0 1.356,-0.529 1.356,-1.409c0,-0.583 -0.233,-0.985 -0.699,-1.176c-0.244,-0.095 -0.562,-0.137 -0.922,-0.137l-1.24,0l0,2.722l1.505,0Zm-3.497,3.064l0.932,0l0,-5.839l-0.932,0l0,-0.817l3.242,0c0.53,0 0.964,0.021 1.378,0.159c0.784,0.265 1.303,0.923 1.303,1.939c0,1.082 -0.593,1.854 -1.547,2.099l0,0.022c0,0 0.191,0.105 0.318,0.349l1.06,1.843c0.116,0.202 0.254,0.245 0.519,0.245l0.223,0l0,0.826l-0.636,0c-0.636,0 -0.785,-0.116 -1.039,-0.562l-1.155,-2.045c-0.19,-0.317 -0.328,-0.413 -0.784,-0.413l-0.89,0l0,2.194l0.922,0l0,0.826l-2.914,0l0,-0.826Z" style="fill:#fff;"/><path id="Fill-246" d="M93.681,46.644l0.944,0l0,-5.786l-1.76,0l0,1.165l-0.921,0l0,-2.035l6.422,0l0,2.035l-0.922,0l0,-1.165l-1.759,0l0,5.786l0.943,0l0,0.826l-2.947,0l0,-0.826Z" style="fill:#fff;"/><path id="Fill-247" d="M101.352,46.644l0.932,0l0,-5.839l-0.932,0l0,-0.817l5.415,0l0,1.738l-0.922,0l0,-0.868l-2.501,0l0,2.404l2.649,0l0,0.87l-2.649,0l0,2.469l2.681,0l0,-0.901l0.923,0l0,1.77l-5.596,0l0,-0.826Z" style="fill:#fff;"/><path id="Fill-248" d="M113.664,43.58c0.816,0 1.356,-0.529 1.356,-1.409c0,-0.583 -0.233,-0.985 -0.699,-1.176c-0.243,-0.095 -0.562,-0.137 -0.922,-0.137l-1.24,0l0,2.722l1.505,0Zm-3.497,3.064l0.933,0l0,-5.839l-0.933,0l0,-0.817l3.243,0c0.53,0 0.964,0.021 1.377,0.159c0.784,0.265 1.303,0.923 1.303,1.939c0,1.082 -0.593,1.854 -1.546,2.099l0,0.022c0,0 0.19,0.105 0.317,0.349l1.06,1.843c0.117,0.202 0.254,0.245 0.52,0.245l0.222,0l0,0.826l-0.636,0c-0.636,0 -0.784,-0.116 -1.039,-0.562l-1.155,-2.045c-0.191,-0.317 -0.328,-0.413 -0.783,-0.413l-0.891,0l0,2.194l0.922,0l0,0.826l-2.914,0l0,-0.826Z" style="fill:#fff;"/></svg>