<?xml version="1.0" encoding="UTF-8"?>
<svg width="44px" height="41px" viewBox="0 0 44 41" version="1.1" xmlns="http://www.w3.org/2000/svg" xmlns:xlink="http://www.w3.org/1999/xlink">
    <!-- Generator: Sketch 46.2 (44496) - http://www.bohemiancoding.com/sketch -->
    <title>3</title>
    <desc>Created with Sketch.</desc>
    <defs>
        <polygon id="path-1" points="43.8678664 0.98 0 0.98 0 42 43.8678664 42"></polygon>
    </defs>
    <g id="Page-3" stroke="none" stroke-width="1" fill="none" fill-rule="evenodd">
        <g id="pupa" transform="translate(0.000000, -1.000000)">
            <g id="Group-3" transform="translate(0.000000, 0.020300)">
                <mask id="mask-2" fill="white">
                    <use xlink:href="#path-1"></use>
                </mask>
                <g id="Clip-2"></g>
                <path d="M30.7375,41.3755 C32.7895,40.8135 40.0445,38.0705 43.0885,26.9075 C46.6275,13.9325 37.7865,-2.2215 23.2095,1.5315 C23.1855,1.5375 21.5985,1.7545 20.0025,1.9035 C18.4445,2.0475 16.8775,2.1235 16.8345,2.1245 C14.8955,2.1655 8.1635,2.7135 3.8805,8.1515 C0.7805,12.0855 -1.6875,18.8385 1.4615,28.1375 C1.4615,28.1375 5.8825,42.4865 24.0715,41.9875 C24.1325,41.9855 25.9225,41.7715 27.6325,41.6155 C29.1965,41.4735 30.6945,41.3875 30.7375,41.3755" id="Fill-1" fill="#A67A44" mask="url(#mask-2)"></path>
            </g>
            <path d="M30.05,18.7733 C30.046,18.6683 30.033,18.5653 30.023,18.4613 C29.79,16.1163 27.908,14.2863 25.585,14.0973 C24.91,15.0863 23.289,17.0423 23.239,17.0973 C22.361,18.0823 21.414,19.0053 20.408,19.8633 C19.689,20.4773 18.938,21.0573 18.157,21.6003 C17.755,22.5803 17.547,23.6583 17.587,24.7873 C17.589,24.8413 17.597,24.8943 17.6,24.9493 C17.631,25.5133 17.72,26.0623 17.866,26.5853 C17.892,26.8213 17.91,27.0583 17.924,27.2963 C17.931,27.4073 17.941,27.5173 17.945,27.6283 C17.951,27.8293 17.951,28.0293 17.95,28.2293 C17.948,28.6963 17.923,29.1583 17.878,29.6143 C17.831,30.0783 17.764,30.5363 17.675,30.9873 C17.607,31.3373 17.529,31.6843 17.437,32.0253 C17.392,32.1903 17.34,32.3533 17.29,32.5153 C17.161,32.9283 17.014,33.3333 16.851,33.7303 C16.466,34.3873 15.878,34.9143 15.167,35.2173 C14.774,35.3863 14.344,35.4903 13.89,35.5053 C13.506,35.5193 13.135,35.4703 12.784,35.3713 C13.288,36.1563 14.057,36.7513 14.96,37.0343 C15.379,37.1653 15.827,37.2293 16.292,37.2133 C16.751,37.1963 17.188,37.1003 17.594,36.9433 C18.037,37.0703 18.507,37.1333 18.993,37.1163 C20.586,37.0603 21.953,36.1783 22.705,34.8983 C24.322,34.6283 25.656,33.5683 26.317,32.1383 C26.588,31.5523 26.743,30.9053 26.76,30.2243 C28.442,28.7533 29.473,26.5663 29.388,24.1593 C29.361,23.3963 29.222,22.6643 28.99,21.9763 C29.689,21.0993 30.093,19.9813 30.05,18.7733" id="Fill-4" fill="#FFFFFF"></path>
            <path d="M30.05,18.7733 C30.046,18.6683 30.033,18.5653 30.023,18.4613 C29.79,16.1163 27.908,14.2863 25.585,14.0973 C24.91,15.0863 23.289,17.0423 23.239,17.0973 C22.361,18.0823 21.414,19.0053 20.408,19.8633 C19.689,20.4773 18.938,21.0573 18.157,21.6003 C17.755,22.5803 17.547,23.6583 17.587,24.7873 C17.589,24.8413 17.597,24.8943 17.6,24.9493 C17.631,25.5133 17.72,26.0623 17.866,26.5853 C17.892,26.8213 17.91,27.0583 17.924,27.2963 C17.931,27.4073 17.941,27.5173 17.945,27.6283 C17.951,27.8293 17.951,28.0293 17.95,28.2293 C17.948,28.6963 17.923,29.1583 17.878,29.6143 C17.831,30.0783 17.764,30.5363 17.675,30.9873 C17.607,31.3373 17.529,31.6843 17.437,32.0253 C17.392,32.1903 17.34,32.3533 17.29,32.5153 C17.161,32.9283 17.014,33.3333 16.851,33.7303 C16.466,34.3873 15.878,34.9143 15.167,35.2173 C14.774,35.3863 14.344,35.4903 13.89,35.5053 C13.506,35.5193 13.135,35.4703 12.784,35.3713 C13.288,36.1563 14.057,36.7513 14.96,37.0343 C15.379,37.1653 15.827,37.2293 16.292,37.2133 C16.751,37.1963 17.188,37.1003 17.594,36.9433 C18.037,37.0703 18.507,37.1333 18.993,37.1163 C20.586,37.0603 21.953,36.1783 22.705,34.8983 C24.322,34.6283 25.656,33.5683 26.317,32.1383 C26.588,31.5523 26.743,30.9053 26.76,30.2243 C28.442,28.7533 29.473,26.5663 29.388,24.1593 C29.361,23.3963 29.222,22.6643 28.99,21.9763 C29.689,21.0993 30.093,19.9813 30.05,18.7733 Z" id="Stroke-6" stroke="#A67A44" stroke-width="0.75" stroke-linecap="round" stroke-linejoin="round"></path>
            <path d="M13.3713,10.6029 C14.3543,10.6949 15.3563,10.7249 16.3703,10.6889 C21.2693,10.5159 25.7583,8.8309 29.4043,6.0999 L29.3713,5.8049 C25.3723,8.1139 20.7803,9.5019 15.8643,9.6759 C14.9553,9.7079 14.0533,9.6979 13.1623,9.6469 L13.3713,10.6029 Z" id="Fill-8" fill="#FFFFFF"></path>
            <path d="M29.6809,22.1151 C28.0899,22.1291 26.6019,21.6601 25.3599,20.8431" id="Stroke-10" stroke="#A67A44" stroke-width="0.75" stroke-linejoin="round"></path>
            <path d="M27.6086,30.2772 C25.9316,30.1082 24.4056,29.4012 23.2126,28.3272" id="Stroke-12" stroke="#A67A44" stroke-width="0.75" stroke-linejoin="round"></path>
            <path d="M23.5823,35.2323 C22.3753,34.8293 21.3353,34.0493 20.6083,33.0273" id="Stroke-14" stroke="#A67A44" stroke-width="0.75" stroke-linejoin="round"></path>
            <path d="M18.1379,37.1678 C17.9389,36.8228 17.7729,36.4508 17.6469,36.0558 C17.6239,35.9878 17.6039,35.9188 17.5849,35.8508" id="Stroke-16" stroke="#A67A44" stroke-width="0.75" stroke-linejoin="round"></path>
            <path d="M24.633,19.8949 C24.646,20.2559 24.364,20.5589 24.003,20.5709 C23.643,20.5839 23.34,20.3019 23.327,19.9409 C23.315,19.5809 23.597,19.2779 23.957,19.2649 C24.318,19.2519 24.62,19.5349 24.633,19.8949" id="Fill-18" fill="#A67A44"></path>
            <path d="M22.7004,26.8612 C22.7134,27.2222 22.4304,27.5252 22.0704,27.5372 C21.7094,27.5502 21.4064,27.2682 21.3934,26.9072 C21.3814,26.5472 21.6634,26.2442 22.0234,26.2312 C22.3854,26.2182 22.6874,26.5012 22.7004,26.8612" id="Fill-20" fill="#A67A44"></path>
            <path d="M20.3879,31.6737 C20.4009,32.0347 20.1179,32.3377 19.7579,32.3497 C19.3969,32.3627 19.0939,32.0807 19.0809,31.7197 C19.0689,31.3597 19.3509,31.0567 19.7109,31.0437 C20.0729,31.0307 20.3749,31.3137 20.3879,31.6737" id="Fill-22" fill="#A67A44"></path>
            <path d="M18.4075,20.7782 C18.5255,20.4542 18.7215,20.1672 18.9755,19.9412 L18.9745,19.9412 C20.5965,17.4472 21.1785,13.1382 21.3265,9.9982 L22.0275,9.8082 C22.6555,10.9672 23.9655,13.3312 25.0455,14.0672 C24.4425,14.9512 22.9925,16.7002 22.9485,16.7502 C22.1625,17.6302 21.3155,18.4562 20.4165,19.2232 C19.7725,19.7722 19.1005,20.2912 18.4035,20.7772" id="Fill-24" fill="#FFFFFF"></path>
        </g>
    </g>
</svg>