<?xml version="1.0" encoding="UTF-8"?>
<svg width="44px" height="41px" viewBox="0 0 44 41" version="1.1" xmlns="http://www.w3.org/2000/svg" xmlns:xlink="http://www.w3.org/1999/xlink">
    <!-- Generator: Sketch 46.2 (44496) - http://www.bohemiancoding.com/sketch -->
    <title>4</title>
    <desc>Created with Sketch.</desc>
    <defs></defs>
    <g id="Page-3" stroke="none" stroke-width="1" fill="none" fill-rule="evenodd">
        <g id="john" transform="translate(0.000000, -1.000000)">
            <g id="Group-3" transform="translate(0.000000, 0.020300)" fill="#A67A44">
                <path d="M30.7377,41.3755 C32.7897,40.8135 40.0437,38.0705 43.0887,26.9075 C46.6277,13.9325 37.7867,-2.2215 23.2097,1.5315 C23.1857,1.5375 21.5987,1.7545 20.0027,1.9035 C18.4447,2.0475 16.8777,2.1235 16.8347,2.1245 C14.8957,2.1655 8.1637,2.7135 3.8797,8.1515 C0.7807,12.0855 -1.6873,18.8385 1.4617,28.1375 C1.4617,28.1375 5.8827,42.4865 24.0717,41.9875 C24.1327,41.9855 25.9217,41.7715 27.6327,41.6155 C29.1957,41.4735 30.6947,41.3875 30.7377,41.3755" id="Fill-1"></path>
            </g>
            <path d="M16.478,22.4999 C16.478,22.4999 15.742,21.7949 14.522,21.7729 C13.303,21.7509 13.078,22.4009 13.008,23.8929 C12.972,24.6849 13.124,25.5779 13.698,26.1669 C14.351,26.8389 15.133,26.6979 15.957,26.5369 C15.821,26.5669 17.094,29.7409 17.205,29.9469 C18.276,31.9409 20.184,33.4519 22.209,34.3919 C23.603,35.0379 25.356,35.0749 26.853,34.9179 C28.835,34.7109 30.749,34.1329 31.884,32.3939 C32.943,30.7699 33.118,28.8859 32.655,27.0289 C32.184,25.1449 31.904,23.5219 32.04,21.5499 C32.506,14.7829 31.874,9.5919 25.874,9.8419 C23.691,11.0009 15.85,11.1979 15.459,17.8459 C15.459,17.8459 16.524,22.3159 16.478,22.4999" id="Fill-4" fill="#FFFFFF"></path>
            <path d="M11.6772,23.2835 L11.6062,23.2445 L11.5502,23.1855 C11.4962,23.1285 10.2282,21.7585 9.8032,19.9145 C9.1522,17.0885 9.7602,13.1465 12.5892,10.7105 C15.4902,8.2115 17.8732,7.6875 19.3622,7.6875 C20.1822,7.6875 20.6582,7.8505 20.7092,7.8685 C20.8162,7.9205 23.5132,9.4605 28.0582,11.5085 L28.8022,11.8435 L28.1652,12.3545 C28.1192,12.3915 23.5792,16.1045 23.9352,21.5095 C23.9822,22.2285 23.4822,22.8205 22.6602,23.0185 C22.1282,23.1465 21.5702,23.2115 21.0002,23.2115 C19.0482,23.2115 17.0132,22.4585 15.1152,21.0355 C15.1162,21.0365 15.1162,21.0365 15.1152,21.0365 C15.1122,21.0365 15.0242,21.0005 14.7932,21.0005 C14.0582,21.0005 13.0622,21.3385 12.8192,21.6695 C12.6562,21.8925 12.6272,22.2305 12.6052,22.5025 C12.5812,22.7825 12.5312,23.3635 11.9802,23.3635 L11.8532,23.3635 L11.6772,23.2835 Z" id="Fill-6" fill="#FFFFFF"></path>
            <path d="M19.3618,7.1873 L19.3618,7.1873 C17.7888,7.1873 15.2798,7.7323 12.2618,10.3313 C9.2758,12.9033 8.6308,17.0543 9.3158,20.0263 C9.7708,22.0003 11.1288,23.4663 11.1848,23.5273 L11.2968,23.6463 L11.4398,23.7233 C11.6118,23.8163 11.7938,23.8633 11.9788,23.8633 C12.3568,23.8633 13.0068,23.6923 13.1028,22.5443 C13.1188,22.3573 13.1428,22.0743 13.2218,21.9653 C13.3758,21.7953 14.1788,21.5003 14.7938,21.5003 C14.8438,21.5003 14.8828,21.5023 14.9098,21.5053 C16.8678,22.9493 18.9708,23.7113 21.0008,23.7113 C21.6098,23.7113 22.2078,23.6413 22.7778,23.5043 C23.8318,23.2503 24.4968,22.4363 24.4338,21.4763 C24.0938,16.3143 28.4328,12.7803 28.4768,12.7453 L29.7538,11.7243 L28.2628,11.0523 C23.7448,9.0173 21.0638,7.4873 21.0378,7.4713 L20.9618,7.4283 L20.8788,7.3983 C20.7808,7.3633 20.2478,7.1873 19.3618,7.1873 M19.3618,8.1873 C20.1188,8.1873 20.5408,8.3393 20.5408,8.3393 C20.5408,8.3393 23.2278,9.8803 27.8528,11.9643 C27.8528,11.9643 23.0578,15.7993 23.4358,21.5423 C23.4698,22.0633 23.0508,22.4103 22.5438,22.5323 C22.0588,22.6483 21.5428,22.7113 21.0008,22.7113 C19.3078,22.7113 17.3718,22.1033 15.4158,20.6353 C15.2918,20.5423 15.0668,20.5003 14.7938,20.5003 C14.0018,20.5003 12.7958,20.8543 12.4158,21.3753 C11.9848,21.9623 12.1958,22.8633 11.9788,22.8633 C11.9618,22.8633 11.9398,22.8573 11.9158,22.8433 C11.9158,22.8433 10.6898,21.5363 10.2908,19.8023 C9.6868,17.1843 10.2088,13.4203 12.9158,11.0893 C15.7618,8.6383 18.0578,8.1873 19.3618,8.1873" id="Fill-8" fill="#A67A44"></path>
            <path d="M30.9663,22.055 C30.8313,21.911 30.2123,21.079 31.1613,18.774 C31.9763,16.796 31.0063,13.283 29.4043,12.403 C29.1833,12.309 23.0193,9.629 21.3223,8.602 L20.1933,7.919 L21.4913,7.683 C21.5283,7.676 22.3743,7.525 23.4923,7.525 C24.3553,7.525 25.1423,7.615 25.8313,7.792 L26.0113,7.839 C28.0103,8.353 31.0293,9.131 32.2253,10.659 C33.3293,12.07 36.5563,17.064 31.6903,22.063 L31.3233,22.439 L30.9663,22.055 Z" id="Fill-10" fill="#FFFFFF"></path>
            <path d="M23.4926,7.0247 L23.4926,7.0247 C22.3306,7.0247 21.4396,7.1837 21.4026,7.1907 L18.8046,7.6637 L21.0636,9.0307 C22.7296,10.0377 28.5596,12.5837 29.1976,12.8607 C30.5456,13.6487 31.3996,16.8807 30.6986,18.5837 C29.6876,21.0377 30.2936,22.0667 30.6006,22.3967 L31.3156,23.1637 L32.0486,22.4117 C37.1966,17.1217 33.7866,11.8417 32.6186,10.3497 C31.3186,8.6897 28.3236,7.9177 26.1376,7.3547 L25.9566,7.3087 C25.2266,7.1197 24.3976,7.0247 23.4926,7.0247 M23.4926,8.0247 C24.1746,8.0247 24.9596,8.0837 25.7066,8.2767 C27.6436,8.7767 30.7066,9.5287 31.8316,10.9667 C32.9566,12.4037 35.8936,17.0267 31.3316,21.7137 C31.3316,21.7137 30.7486,21.0887 31.6236,18.9637 C32.4986,16.8387 31.5406,13.0057 29.6436,11.9637 C29.6436,11.9637 23.2686,9.1957 21.5816,8.1747 C21.5816,8.1747 22.4066,8.0247 23.4926,8.0247" id="Fill-12" fill="#A67A44"></path>
        </g>
    </g>
</svg>