<?xml version="1.0" encoding="UTF-8"?>
<svg width="44px" height="41px" viewBox="0 0 44 41" version="1.1" xmlns="http://www.w3.org/2000/svg" xmlns:xlink="http://www.w3.org/1999/xlink">
    <!-- Generator: Sketch 46.2 (44496) - http://www.bohemiancoding.com/sketch -->
    <title>2</title>
    <desc>Created with Sketch.</desc>
    <defs></defs>
    <g id="Page-3" stroke="none" stroke-width="1" fill="none" fill-rule="evenodd">
        <g id="mirror">
            <path d="M30.7374,40.3961 C32.7894,39.8341 40.0444,37.0911 43.0884,25.9271 C46.6274,12.9521 37.7864,-3.2009 23.2094,0.5521 C23.1854,0.5581 21.5984,0.7751 20.0034,0.9231 C18.4444,1.0681 16.8784,1.1441 16.8344,1.1451 C14.8954,1.1861 8.1634,1.7341 3.8804,7.1711 C0.7804,11.1061 -1.6876,17.8591 1.4614,27.1581 C1.4614,27.1581 5.8834,41.5071 24.0714,41.0071 C24.1324,41.0061 25.9224,40.7921 27.6324,40.6361 C29.1964,40.4931 30.6944,40.4081 30.7374,40.3961" id="Fill-1" fill="#A67A44"></path>
            <path d="M28.9396,32.2067 L14.9276,32.2067 C13.7416,32.2067 12.7806,31.2447 12.7806,30.0587 L12.7806,10.9617 C12.7806,9.7757 13.7416,8.8137 14.9276,8.8137 L28.9396,8.8137 C30.1266,8.8137 31.0876,9.7757 31.0876,10.9617 L31.0876,30.0587 C31.0876,31.2447 30.1266,32.2067 28.9396,32.2067" id="Fill-4" fill="#FFFFFF"></path>
            <path d="M23.2638,14.2926 L17.6088,20.7316" id="Stroke-6" stroke="#A67A44" stroke-width="1.5" stroke-linecap="round" stroke-linejoin="round"></path>
            <path d="M18.9415,13.0309 L16.1235,16.3269" id="Stroke-8" stroke="#A67A44" stroke-width="1.5" stroke-linecap="round" stroke-linejoin="round"></path>
        </g>
    </g>
</svg>