<?xml version="1.0" encoding="UTF-8"?>
<svg width="44px" height="41px" viewBox="0 0 44 41" version="1.1" xmlns="http://www.w3.org/2000/svg" xmlns:xlink="http://www.w3.org/1999/xlink">
    <!-- Generator: Sketch 46.2 (44496) - http://www.bohemiancoding.com/sketch -->
    <title>1</title>
    <desc>Created with Sketch.</desc>
    <defs>
        <polygon id="path-1" points="0 41.99947 0 0.98 43.8678664 0.98 43.8678664 41.99947"></polygon>
    </defs>
    <g id="Page-3" stroke="none" stroke-width="1" fill="none" fill-rule="evenodd">
        <g id="band-aid" transform="translate(0.000000, -1.000000)">
            <g id="Group-3" transform="translate(0.000000, 0.020300)">
                <mask id="mask-2" fill="white">
                    <use xlink:href="#path-1"></use>
                </mask>
                <g id="Clip-2"></g>
                <path d="M30.7375,41.3757 C32.7895,40.8137 40.0445,38.0707 43.0885,26.9067 C46.6275,13.9317 37.7865,-2.2213 23.2095,1.5317 C23.1855,1.5377 21.5985,1.7547 20.0025,1.9027 C18.4445,2.0477 16.8785,2.1237 16.8345,2.1247 C14.8955,2.1657 8.1635,2.7137 3.8805,8.1517 C0.7805,12.0857 -1.6875,18.8387 1.4615,28.1377 C1.4615,28.1377 5.8825,42.4867 24.0715,41.9867 C24.1325,41.9857 25.9225,41.7717 27.6325,41.6157 C29.1965,41.4727 30.6945,41.3877 30.7375,41.3757" id="Fill-1" fill="#A67A44" mask="url(#mask-2)"></path>
            </g>
            <path d="M22.215,26.0562 C22.06,26.2122 21.808,26.2122 21.653,26.0562 L17.388,21.7912 C17.233,21.6362 17.233,21.3842 17.388,21.2282 L21.653,16.9642 C21.808,16.8082 22.06,16.8082 22.215,16.9642 L26.48,21.2282 C26.636,21.3842 26.636,21.6362 26.48,21.7912 L22.215,26.0562 Z M18.349,28.2112 C17.986,27.8482 17.986,27.2592 18.349,26.8952 C18.712,26.5322 19.301,26.5322 19.664,26.8952 C20.027,27.2592 20.027,27.8482 19.664,28.2112 C19.301,28.5752 18.712,28.5752 18.349,28.2112 L18.349,28.2112 Z M15.233,31.3272 C14.869,30.9642 14.869,30.3752 15.233,30.0122 C15.596,29.6482 16.185,29.6482 16.548,30.0122 C16.912,30.3752 16.912,30.9642 16.548,31.3272 C16.185,31.6912 15.596,31.6912 15.233,31.3272 L15.233,31.3272 Z M15.233,25.0952 C14.869,24.7322 14.869,24.1432 15.233,23.7792 C15.596,23.4162 16.185,23.4162 16.548,23.7802 C16.911,24.1432 16.912,24.7322 16.548,25.0952 C16.185,25.4592 15.596,25.4582 15.233,25.0952 L15.233,25.0952 Z M12.116,28.2112 C11.753,27.8482 11.753,27.2592 12.116,26.8952 C12.48,26.5322 13.069,26.5322 13.433,26.8952 C13.796,27.2592 13.796,27.8482 13.433,28.2112 C13.069,28.5752 12.48,28.5752 12.116,28.2112 L12.116,28.2112 Z M25.519,14.8092 C25.882,15.1722 25.882,15.7612 25.519,16.1242 C25.155,16.4882 24.567,16.4882 24.203,16.1242 C23.84,15.7612 23.84,15.1722 24.203,14.8092 C24.567,14.4452 25.155,14.4462 25.519,14.8092 L25.519,14.8092 Z M28.635,11.6932 C28.998,12.0562 28.998,12.6452 28.635,13.0092 C28.272,13.3722 27.683,13.3722 27.319,13.0092 C26.956,12.6452 26.956,12.0562 27.319,11.6932 C27.683,11.3292 28.272,11.3292 28.635,11.6932 L28.635,11.6932 Z M28.635,17.9252 C28.998,18.2882 28.998,18.8772 28.635,19.2412 C28.272,19.6042 27.683,19.6042 27.319,19.2412 C26.956,18.8772 26.956,18.2882 27.319,17.9252 C27.683,17.5612 28.272,17.5612 28.635,17.9252 L28.635,17.9252 Z M31.751,14.8092 C32.114,15.1722 32.114,15.7612 31.751,16.1242 C31.388,16.4882 30.799,16.4882 30.436,16.1252 C30.072,15.7612 30.071,15.1722 30.436,14.8092 C30.799,14.4462 31.388,14.4462 31.751,14.8092 L31.751,14.8092 Z M34.588,16.7072 L34.588,12.1602 C34.588,11.8302 34.456,11.5142 34.223,11.2802 L32.163,9.2212 C31.93,8.9882 31.613,8.8562 31.283,8.8562 L26.737,8.8562 C26.407,8.8562 26.09,8.9872 25.857,9.2212 L9.645,25.4332 C9.411,25.6662 9.28,25.9832 9.28,26.3132 L9.28,30.8592 C9.28,31.1902 9.411,31.5062 9.645,31.7402 L11.704,33.7992 C11.938,34.0332 12.254,34.1642 12.584,34.1642 L17.131,34.1642 C17.461,34.1642 17.778,34.0332 18.011,33.7992 L34.223,17.5872 C34.456,17.3532 34.588,17.0372 34.588,16.7072 L34.588,16.7072 Z" id="Fill-4" fill="#FFFFFF"></path>
        </g>
    </g>
</svg>