<?xml version="1.0" encoding="UTF-8"?>
<svg width="44px" height="40px" viewBox="0 0 44 40" version="1.1" xmlns="http://www.w3.org/2000/svg" xmlns:xlink="http://www.w3.org/1999/xlink">
    <!-- Generator: Sketch 46.2 (44496) - http://www.bohemiancoding.com/sketch -->
    <title>6</title>
    <desc>Created with Sketch.</desc>
    <defs></defs>
    <g id="Page-3" stroke="none" stroke-width="1" fill="none" fill-rule="evenodd">
        <g id="tattoo" transform="translate(1.000000, 1.000000)">
            <path d="M22.5676546,0.523860506 C22.3923459,0.569285059 22.2668517,0.728754234 22.2658937,0.910452446 C22.2524821,2.70713848 22.1882981,11.8384401 22.1882981,12.9266964 C22.1882981,14.1347962 21.7888241,17.5174757 24.4232447,19.2899997 C27.0576652,21.0615573 28.8136263,25.5721187 28.8940958,28.7131783 C28.9640277,31.4734447 29.1565799,36.2865143 29.1489162,37.959491 C29.1470002,38.2243064 29.3960727,38.4060047 29.6499351,38.3364181 C31.5783309,37.8019547 38.4029171,35.1992245 41.2672507,24.6056389 C44.5952424,12.2917191 36.2790951,-3.03858422 22.5676546,0.523860506" id="Fill-1" fill="#A67A44"></path>
            <path d="M22.5676546,0.523860506 C22.3923459,0.569285059 22.2668517,0.728754234 22.2658937,0.910452446 C22.2524821,2.70713848 22.1882981,11.8384401 22.1882981,12.9266964 C22.1882981,14.1347962 21.7888241,17.5174757 24.4232447,19.2899997 C27.0576652,21.0615573 28.8136263,25.5721187 28.8940958,28.7131783 C28.9640277,31.4734447 29.1565799,36.2865143 29.1489162,37.959491 C29.1470002,38.2243064 29.3960727,38.4060047 29.6499351,38.3364181 C31.5783309,37.8019547 38.4029171,35.1992245 41.2672507,24.6056389 C44.5952424,12.2917191 36.2790951,-3.03858422 22.5676546,0.523860506 Z" id="Stroke-3" stroke="#A67A44"></path>
            <path d="M30.3333333,11.6216216 C28.4283022,11.6216216 26.7394519,12.5352759 25.6666667,13.9464547 C26.7394519,15.356616 28.4283022,16.2702703 30.3333333,16.2702703 C32.2383645,16.2702703 33.9272147,15.356616 35,13.9464547 C33.9272147,12.5352759 32.2383645,11.6216216 30.3333333,11.6216216" id="Fill-5" fill="#A67A44"></path>
            <path d="M30.3333333,11.6216216 C28.4283022,11.6216216 26.7394519,12.5352759 25.6666667,13.9464547 C26.7394519,15.356616 28.4283022,16.2702703 30.3333333,16.2702703 C32.2383645,16.2702703 33.9272147,15.356616 35,13.9464547 C33.9272147,12.5352759 32.2383645,11.6216216 30.3333333,11.6216216 Z" id="Stroke-7" stroke="#FFFFFF"></path>
            <path d="M3.67012993,6.78303853 C0.738524471,10.4529895 -1.59577721,16.7509825 1.38207112,25.4224765 C1.38207112,25.4224765 5.56512432,38.8048806 22.7713266,38.3394883 C23.0458936,38.33189 23.2925223,38.1580802 23.3888616,37.9044889 C23.9765314,36.3449497 25.7530285,30.6956566 23.0189186,25.303754 C19.8069657,18.9715688 16.8368246,20.3572983 16.2751663,12.759056 C15.7876894,6.17138003 16.0246841,2.88609005 16.3050315,1.61243469 C16.3580182,1.37403984 16.1730467,1.15748994 15.9254546,1.16223884 C14.0901906,1.20117983 7.72216166,1.71216162 3.67012993,6.78303853" id="Fill-9" fill="#A67A44"></path>
            <path d="M3.67012993,6.78303853 C0.738524471,10.4529895 -1.59577721,16.7509825 1.38207112,25.4224765 C1.38207112,25.4224765 5.56512432,38.8048806 22.7713266,38.3394883 C23.0458936,38.33189 23.2925223,38.1580802 23.3888616,37.9044889 C23.9765314,36.3449497 25.7530285,30.6956566 23.0189186,25.303754 C19.8069657,18.9715688 16.8368246,20.3572983 16.2751663,12.759056 C15.7876894,6.17138003 16.0246841,2.88609005 16.3050315,1.61243469 C16.3580182,1.37403984 16.1730467,1.15748994 15.9254546,1.16223884 C14.0901906,1.20117983 7.72216166,1.71216162 3.67012993,6.78303853 Z" id="Stroke-11" stroke="#A67A44"></path>
            <path d="M31.5,14.527027 C31.5,15.4900835 30.7161235,16.2702703 29.7495712,16.2702703 C28.7830189,16.2702703 28,15.4900835 28,14.527027 C28,13.5639706 28.7830189,12.7837838 29.7495712,12.7837838 C30.7161235,12.7837838 31.5,13.5639706 31.5,14.527027" id="Fill-13" fill="#FFFFFF"></path>
            <path d="M30.3333333,14.527027 C30.3333333,14.847593 30.0722983,15.1081081 29.75,15.1081081 C29.4268138,15.1081081 29.1666667,14.847593 29.1666667,14.527027 C29.1666667,14.206461 29.4268138,13.9459459 29.75,13.9459459 C30.0722983,13.9459459 30.3333333,14.206461 30.3333333,14.527027" id="Fill-15" fill="#A67A44"></path>
            <path d="M14,13.9455061 C14,15.2288322 12.6944205,16.2702703 11.0838366,16.2702703 C9.47224619,16.2702703 8.16666667,15.2288322 8.16666667,13.9455061 C8.16666667,12.6621801 9.47224619,11.6216216 11.0838366,11.6216216 C12.6944205,11.6216216 14,12.6621801 14,13.9455061" id="Fill-17" fill="#FFFFFF"></path>
            <path d="M5.83333333,12.7837838 L14,13.8181081" id="Stroke-19" stroke="#FFFFFF" stroke-linecap="round"></path>
            <path d="M12.8333333,13.9459459 C12.8333333,14.5873991 12.3106061,15.1081081 11.6666667,15.1081081 C11.0227273,15.1081081 10.5,14.5873991 10.5,13.9459459 C10.5,13.3044928 11.0227273,12.7837838 11.6666667,12.7837838 C12.3106061,12.7837838 12.8333333,13.3044928 12.8333333,13.9459459" id="Fill-21" fill="#A67A44"></path>
        </g>
    </g>
</svg>