<?xml version="1.0" encoding="UTF-8"?>
<svg width="44px" height="41px" viewBox="0 0 44 41" version="1.1" xmlns="http://www.w3.org/2000/svg" xmlns:xlink="http://www.w3.org/1999/xlink">
    <!-- Generator: Sketch 46.2 (44496) - http://www.bohemiancoding.com/sketch -->
    <title>5</title>
    <desc>Created with Sketch.</desc>
    <defs></defs>
    <g id="Page-3" stroke="none" stroke-width="1" fill="none" fill-rule="evenodd">
        <g id="moon" transform="translate(0.000000, -1.000000)">
            <g id="Group-3" transform="translate(0.000000, 0.020300)" fill="#A67A44">
                <path d="M30.7377,41.3755 C32.7897,40.8135 40.0447,38.0705 43.0887,26.9075 C46.6277,13.9325 37.7867,-2.2215 23.2097,1.5315 C23.1857,1.5375 21.5987,1.7545 20.0027,1.9035 C18.4447,2.0475 16.8777,2.1235 16.8347,2.1245 C14.8957,2.1655 8.1637,2.7135 3.8797,8.1515 C0.7807,12.0855 -1.6873,18.8385 1.4617,28.1375 C1.4617,28.1375 5.8827,42.4865 24.0717,41.9875 C24.1327,41.9855 25.9217,41.7715 27.6327,41.6155 C29.1967,41.4735 30.6947,41.3875 30.7377,41.3755" id="Fill-1"></path>
            </g>
            <path d="M21.1517,22.5702 C18.6607,18.1282 19.2737,12.7912 22.2827,9.0522 C20.4697,9.1642 18.6547,9.6762 16.9647,10.6232 C10.9597,13.9912 8.8207,21.5902 12.1877,27.5962 C15.5557,33.6022 23.1547,35.7412 29.1607,32.3732 C30.8497,31.4252 32.2337,30.1442 33.2747,28.6562 C28.5157,29.2732 23.6417,27.0122 21.1517,22.5702" id="Fill-4" fill="#FFFFFF"></path>
        </g>
    </g>
</svg>