<?xml version="1.0" encoding="UTF-8" standalone="no"?><!DOCTYPE svg PUBLIC "-//W3C//DTD SVG 1.1//EN" "http://www.w3.org/Graphics/SVG/1.1/DTD/svg11.dtd"><svg width="100%" height="100%" viewBox="0 0 27 26" version="1.1" xmlns="http://www.w3.org/2000/svg" xmlns:xlink="http://www.w3.org/1999/xlink" xml:space="preserve" style="fill-rule:evenodd;clip-rule:evenodd;stroke-linejoin:round;stroke-miterlimit:1.41421;"><path id="Combined.-Shape" d="M26.164,0.322c0.421,0.394 0.443,1.054 0.05,1.475c-0.016,0.018 -0.033,0.034 -0.05,0.05l-11.283,10.54c-0.91,0.867 -2.337,0.882 -3.264,0.033l-0.019,-0.018l-11.267,-10.553c-0.422,-0.395 -0.443,-1.056 -0.049,-1.478c0.016,-0.017 0.033,-0.033 0.05,-0.049c0.459,-0.429 1.173,-0.429 1.633,0l10.6,9.902c0.384,0.359 0.981,0.359 1.365,0l10.601,-9.902c0.459,-0.429 1.173,-0.429 1.633,0Z" style="fill:#fff;fill-rule:nonzero;"/><path id="Combined.-Shape.-Copy.-2" d="M26.164,12.322c0.421,0.394 0.443,1.054 0.05,1.475c-0.016,0.018 -0.033,0.034 -0.05,0.05l-11.283,10.54c-0.91,0.867 -2.337,0.882 -3.264,0.033l-0.019,-0.018l-11.267,-10.553c-0.422,-0.395 -0.443,-1.056 -0.049,-1.478c0.016,-0.017 0.033,-0.033 0.05,-0.049c0.459,-0.429 1.173,-0.429 1.633,0l10.6,9.902c0.384,0.359 0.981,0.359 1.365,0l10.601,-9.902c0.459,-0.429 1.173,-0.429 1.633,0Z" style="fill:#fff;fill-rule:nonzero;"/></svg>