<?xml version="1.0" encoding="utf-8"?>
<!-- Generator: Adobe Illustrator 18.0.0, SVG Export Plug-In . SVG Version: 6.00 Build 0)  -->
<!DOCTYPE svg PUBLIC "-//W3C//DTD SVG 1.1//EN" "http://www.w3.org/Graphics/SVG/1.1/DTD/svg11.dtd">
<svg version="1.1" id="圖層_1" xmlns="http://www.w3.org/2000/svg" xmlns:xlink="http://www.w3.org/1999/xlink" x="0px" y="0px"
	 viewBox="0 0 420 420" enable-background="new 0 0 420 420" xml:space="preserve">
<g>
	<g>
		<g>
			
				<text transform="matrix(1 0 0 1 43.5919 348.7378)" fill="#BEBEBE" font-family="'SourceHanSansTC-Light-B5pc-H'" font-size="12">0</text>
			
				<text transform="matrix(1 0 0 1 24.3321 272.2456)" fill="#BEBEBE" font-family="'SourceHanSansTC-Light-B5pc-H'" font-size="12">1000</text>
			
				<text transform="matrix(1 0 0 1 24.3321 195.7554)" fill="#BEBEBE" font-family="'SourceHanSansTC-Light-B5pc-H'" font-size="12">2000</text>
			
				<text transform="matrix(1 0 0 1 24.3321 119.2642)" fill="#BEBEBE" font-family="'SourceHanSansTC-Light-B5pc-H'" font-size="12">3000</text>
			
				<text transform="matrix(1 0 0 1 50.0538 102.1641)" fill="#BEBEBE" font-family="'SourceHanSansTC-Light-B5pc-H'" font-size="12">人</text>
		</g>
	</g>
	<g opacity="0.8">
		<g>
			<line fill="none" stroke="#FFFFFF" stroke-miterlimit="10" x1="56" y1="345.5" x2="391" y2="345.5"/>
		</g>
		<line fill="none" stroke="#FFFFFF" stroke-miterlimit="10" x1="56.5" y1="346" x2="56.5" y2="116"/>
	</g>
	<g>
		<g>
			<line opacity="0.1" fill="none" stroke="#FFFFFF" stroke-miterlimit="10" x1="56" y1="268.5" x2="392" y2="268.5"/>
			<line opacity="0.1" fill="none" stroke="#FFFFFF" stroke-miterlimit="10" x1="56" y1="191.5" x2="392" y2="191.5"/>
			<line opacity="0" fill="none" stroke="#000000" stroke-miterlimit="10" x1="56" y1="115.5" x2="392" y2="115.5"/>
		</g>
	</g>
	<g>
		
			<line fill="none" stroke="#6A5C2C" stroke-width="2" stroke-linecap="round" stroke-linejoin="round" stroke-miterlimit="10" x1="83.2" y1="265.7" x2="64.6" y2="167.1"/>
		
			<line fill="none" stroke="#6A5C2C" stroke-width="2" stroke-linecap="round" stroke-linejoin="round" stroke-miterlimit="10" x1="101.8" y1="332" x2="83.2" y2="265.7"/>
		
			<line fill="none" stroke="#6A5C2C" stroke-width="2" stroke-linecap="round" stroke-linejoin="round" stroke-miterlimit="10" x1="120.4" y1="334.3" x2="101.8" y2="332"/>
		
			<line fill="none" stroke="#6A5C2C" stroke-width="2" stroke-linecap="round" stroke-linejoin="round" stroke-miterlimit="10" x1="139" y1="333.7" x2="120.4" y2="334.3"/>
		
			<line fill="none" stroke="#6A5C2C" stroke-width="2" stroke-linecap="round" stroke-linejoin="round" stroke-miterlimit="10" x1="157.6" y1="334.7" x2="139" y2="333.7"/>
		
			<line fill="none" stroke="#6A5C2C" stroke-width="2" stroke-linecap="round" stroke-linejoin="round" stroke-miterlimit="10" x1="176.3" y1="339.8" x2="157.6" y2="334.7"/>
		
			<line fill="none" stroke="#6A5C2C" stroke-width="2" stroke-linecap="round" stroke-linejoin="round" stroke-miterlimit="10" x1="194.9" y1="340.8" x2="176.3" y2="339.8"/>
		
			<line fill="none" stroke="#6A5C2C" stroke-width="2" stroke-linecap="round" stroke-linejoin="round" stroke-miterlimit="10" x1="213.5" y1="340.9" x2="194.9" y2="340.8"/>
		
			<line fill="none" stroke="#6A5C2C" stroke-width="2" stroke-linecap="round" stroke-linejoin="round" stroke-miterlimit="10" x1="232.1" y1="340.5" x2="213.5" y2="340.9"/>
		
			<line fill="none" stroke="#6A5C2C" stroke-width="2" stroke-linecap="round" stroke-linejoin="round" stroke-miterlimit="10" x1="250.7" y1="340.9" x2="232.1" y2="340.5"/>
		
			<line fill="none" stroke="#6A5C2C" stroke-width="2" stroke-linecap="round" stroke-linejoin="round" stroke-miterlimit="10" x1="269.3" y1="340.8" x2="250.7" y2="340.9"/>
		
			<line fill="none" stroke="#6A5C2C" stroke-width="2" stroke-linecap="round" stroke-linejoin="round" stroke-miterlimit="10" x1="288" y1="340.7" x2="269.3" y2="340.8"/>
		
			<line fill="none" stroke="#6A5C2C" stroke-width="2" stroke-linecap="round" stroke-linejoin="round" stroke-miterlimit="10" x1="306.6" y1="326.2" x2="288" y2="340.7"/>
		
			<line fill="none" stroke="#6A5C2C" stroke-width="2" stroke-linecap="round" stroke-linejoin="round" stroke-miterlimit="10" x1="325.2" y1="328.6" x2="306.6" y2="326.2"/>
		
			<line fill="none" stroke="#6A5C2C" stroke-width="2" stroke-linecap="round" stroke-linejoin="round" stroke-miterlimit="10" x1="343.8" y1="329.9" x2="325.2" y2="328.6"/>
		
			<line fill="none" stroke="#6A5C2C" stroke-width="2" stroke-linecap="round" stroke-linejoin="round" stroke-miterlimit="10" x1="362.4" y1="332.1" x2="343.8" y2="329.9"/>
		
			<line fill="none" stroke="#6A5C2C" stroke-width="2" stroke-linecap="round" stroke-linejoin="round" stroke-miterlimit="10" x1="381" y1="333.7" x2="362.4" y2="332.1"/>
	</g>
	<g>
		
			<line fill="none" stroke="#7A7A7A" stroke-width="2" stroke-linecap="round" stroke-linejoin="round" stroke-miterlimit="10" x1="83.2" y1="331.6" x2="64.6" y2="333"/>
		
			<line fill="none" stroke="#7A7A7A" stroke-width="2" stroke-linecap="round" stroke-linejoin="round" stroke-miterlimit="10" x1="101.8" y1="332.7" x2="83.2" y2="331.6"/>
		
			<line fill="none" stroke="#7A7A7A" stroke-width="2" stroke-linecap="round" stroke-linejoin="round" stroke-miterlimit="10" x1="120.4" y1="331.9" x2="101.8" y2="332.7"/>
		
			<line fill="none" stroke="#7A7A7A" stroke-width="2" stroke-linecap="round" stroke-linejoin="round" stroke-miterlimit="10" x1="139" y1="334.8" x2="120.4" y2="331.9"/>
		
			<line fill="none" stroke="#7A7A7A" stroke-width="2" stroke-linecap="round" stroke-linejoin="round" stroke-miterlimit="10" x1="157.6" y1="332.2" x2="139" y2="334.8"/>
		
			<line fill="none" stroke="#7A7A7A" stroke-width="2" stroke-linecap="round" stroke-linejoin="round" stroke-miterlimit="10" x1="176.3" y1="334" x2="157.6" y2="332.2"/>
		
			<line fill="none" stroke="#7A7A7A" stroke-width="2" stroke-linecap="round" stroke-linejoin="round" stroke-miterlimit="10" x1="194.9" y1="331.4" x2="176.3" y2="334"/>
		
			<line fill="none" stroke="#7A7A7A" stroke-width="2" stroke-linecap="round" stroke-linejoin="round" stroke-miterlimit="10" x1="213.5" y1="328.8" x2="194.9" y2="331.4"/>
		
			<line fill="none" stroke="#7A7A7A" stroke-width="2" stroke-linecap="round" stroke-linejoin="round" stroke-miterlimit="10" x1="232.1" y1="320.5" x2="213.5" y2="328.8"/>
		
			<line fill="none" stroke="#7A7A7A" stroke-width="2" stroke-linecap="round" stroke-linejoin="round" stroke-miterlimit="10" x1="250.7" y1="314.1" x2="232.1" y2="320.5"/>
		
			<line fill="none" stroke="#7A7A7A" stroke-width="2" stroke-linecap="round" stroke-linejoin="round" stroke-miterlimit="10" x1="269.3" y1="309.6" x2="250.7" y2="314.1"/>
		
			<line fill="none" stroke="#7A7A7A" stroke-width="2" stroke-linecap="round" stroke-linejoin="round" stroke-miterlimit="10" x1="288" y1="297.9" x2="269.3" y2="309.6"/>
		
			<line fill="none" stroke="#7A7A7A" stroke-width="2" stroke-linecap="round" stroke-linejoin="round" stroke-miterlimit="10" x1="306.6" y1="301.8" x2="288" y2="297.9"/>
		
			<line fill="none" stroke="#7A7A7A" stroke-width="2" stroke-linecap="round" stroke-linejoin="round" stroke-miterlimit="10" x1="325.2" y1="304.3" x2="306.6" y2="301.8"/>
		
			<line fill="none" stroke="#7A7A7A" stroke-width="2" stroke-linecap="round" stroke-linejoin="round" stroke-miterlimit="10" x1="343.8" y1="306.7" x2="325.2" y2="304.3"/>
		
			<line fill="none" stroke="#7A7A7A" stroke-width="2" stroke-linecap="round" stroke-linejoin="round" stroke-miterlimit="10" x1="362.4" y1="300.3" x2="343.8" y2="306.7"/>
		
			<line fill="none" stroke="#7A7A7A" stroke-width="2" stroke-linecap="round" stroke-linejoin="round" stroke-miterlimit="10" x1="381" y1="307.2" x2="362.4" y2="300.3"/>
	</g>
	<g>
		
			<line fill="none" stroke="#DBAE25" stroke-width="2" stroke-linecap="round" stroke-linejoin="round" stroke-miterlimit="10" x1="83.2" y1="240.7" x2="64.6" y2="128.9"/>
		
			<line fill="none" stroke="#DBAE25" stroke-width="2" stroke-linecap="round" stroke-linejoin="round" stroke-miterlimit="10" x1="101.8" y1="316.2" x2="83.2" y2="240.7"/>
		
			<line fill="none" stroke="#DBAE25" stroke-width="2" stroke-linecap="round" stroke-linejoin="round" stroke-miterlimit="10" x1="120.4" y1="318.2" x2="101.8" y2="316.2"/>
		
			<line fill="none" stroke="#DBAE25" stroke-width="2" stroke-linecap="round" stroke-linejoin="round" stroke-miterlimit="10" x1="139" y1="321.6" x2="120.4" y2="318.2"/>
		
			<line fill="none" stroke="#DBAE25" stroke-width="2" stroke-linecap="round" stroke-linejoin="round" stroke-miterlimit="10" x1="157.6" y1="317.8" x2="139" y2="321.6"/>
		
			<line fill="none" stroke="#DBAE25" stroke-width="2" stroke-linecap="round" stroke-linejoin="round" stroke-miterlimit="10" x1="176.3" y1="326.6" x2="157.6" y2="317.8"/>
		
			<line fill="none" stroke="#DBAE25" stroke-width="2" stroke-linecap="round" stroke-linejoin="round" stroke-miterlimit="10" x1="194.9" y1="322.4" x2="176.3" y2="326.6"/>
		
			<line fill="none" stroke="#DBAE25" stroke-width="2" stroke-linecap="round" stroke-linejoin="round" stroke-miterlimit="10" x1="213.5" y1="321.8" x2="194.9" y2="322.4"/>
		
			<line fill="none" stroke="#DBAE25" stroke-width="2" stroke-linecap="round" stroke-linejoin="round" stroke-miterlimit="10" x1="232.1" y1="313.2" x2="213.5" y2="321.8"/>
		
			<line fill="none" stroke="#DBAE25" stroke-width="2" stroke-linecap="round" stroke-linejoin="round" stroke-miterlimit="10" x1="250.7" y1="306.3" x2="232.1" y2="313.2"/>
		
			<line fill="none" stroke="#DBAE25" stroke-width="2" stroke-linecap="round" stroke-linejoin="round" stroke-miterlimit="10" x1="269.3" y1="300.5" x2="250.7" y2="306.3"/>
		
			<line fill="none" stroke="#DBAE25" stroke-width="2" stroke-linecap="round" stroke-linejoin="round" stroke-miterlimit="10" x1="288" y1="284.9" x2="269.3" y2="300.5"/>
		
			<line fill="none" stroke="#DBAE25" stroke-width="2" stroke-linecap="round" stroke-linejoin="round" stroke-miterlimit="10" x1="306.6" y1="273.4" x2="288" y2="284.9"/>
		
			<line fill="none" stroke="#DBAE25" stroke-width="2" stroke-linecap="round" stroke-linejoin="round" stroke-miterlimit="10" x1="325.2" y1="281" x2="306.6" y2="273.4"/>
		
			<line fill="none" stroke="#DBAE25" stroke-width="2" stroke-linecap="round" stroke-linejoin="round" stroke-miterlimit="10" x1="343.8" y1="284.9" x2="325.2" y2="281"/>
		
			<line fill="none" stroke="#DBAE25" stroke-width="2" stroke-linecap="round" stroke-linejoin="round" stroke-miterlimit="10" x1="362.4" y1="268.7" x2="343.8" y2="284.9"/>
		
			<line fill="none" stroke="#DBAE25" stroke-width="2" stroke-linecap="round" stroke-linejoin="round" stroke-miterlimit="10" x1="381" y1="288.8" x2="362.4" y2="268.7"/>
	</g>
	<g>
		<g>
			
				<text transform="matrix(1 0 0 1 343.587 360.6133)" fill="#BEBEBE" font-family="'SourceHanSansTC-Light-B5pc-H'" font-size="12">2015年</text>
			
				<text transform="matrix(1 0 0 1 250.501 360.6133)" fill="#BEBEBE" font-family="'SourceHanSansTC-Light-B5pc-H'" font-size="12">2010年</text>
			
				<text transform="matrix(1 0 0 1 157.4171 360.6133)" fill="#BEBEBE" font-family="'SourceHanSansTC-Light-B5pc-H'" font-size="12">2005年</text>
			<text transform="matrix(1 0 0 1 64.334 360.6133)" fill="#BEBEBE" font-family="'SourceHanSansTC-Light-B5pc-H'" font-size="12">2000年</text>
		</g>
	</g>
</g>
<g>
	<g>
		
			<line fill="none" stroke="#7A7A7A" stroke-width="2" stroke-linecap="round" stroke-linejoin="round" stroke-miterlimit="10" x1="93" y1="384" x2="105" y2="384"/>
		<rect x="115" y="375.2" fill="none" width="72" height="14.6"/>
		
			<text transform="matrix(1 0 0 1 114.9737 387.5645)" fill="#BEBEBE" font-family="'SourceHanSansTC-Light-B5pc-H'" font-size="14">肌肉性疾病</text>
	</g>
	<g>
		
			<line fill="none" stroke="#6A5C2C" stroke-width="2" stroke-linecap="round" stroke-linejoin="round" stroke-miterlimit="10" x1="211" y1="384" x2="223" y2="384"/>
		<rect x="232.6" y="375.2" fill="none" width="72" height="14.6"/>
		
			<text transform="matrix(1 0 0 1 232.5732 387.5645)" fill="#BEBEBE" font-family="'SourceHanSansTC-Light-B5pc-H'" font-size="14">呼吸道疾病</text>
	</g>
</g>
<rect x="50.5" y="31" fill="none" width="319.5" height="56.6"/>
<text transform="matrix(1 0 0 1 66.2292 52.1199)"><tspan x="0" y="0" fill="#DBAE25" font-family="'SourceHanSansTC-Bold-B5pc-H'" font-size="24">台灣職業病認定案件趨勢圖</tspan><tspan x="74.4" y="26" fill="#DBAE25" font-family="'SourceHanSansTC-Normal-B5pc-H'" font-size="18">（1999-2016年）</tspan></text>
<g>
	<g>
		<g>
			
				<line fill="none" stroke="#DBAE25" stroke-width="2" stroke-linecap="round" stroke-linejoin="round" stroke-miterlimit="10" x1="328" y1="384" x2="340" y2="384"/>
			<rect x="349.8" y="375.2" fill="none" width="29.2" height="14.6"/>
			
				<text transform="matrix(1 0 0 1 349.7736 387.5645)" fill="#BEBEBE" font-family="'SourceHanSansTC-Light-B5pc-H'" font-size="14">總計</text>
		</g>
	</g>
</g>
</svg>
