<?xml version="1.0" encoding="utf-8"?>
<!-- Generator: Adobe Illustrator 18.0.0, SVG Export Plug-In . SVG Version: 6.00 Build 0)  -->
<!DOCTYPE svg PUBLIC "-//W3C//DTD SVG 1.1//EN" "http://www.w3.org/Graphics/SVG/1.1/DTD/svg11.dtd">
<svg version="1.1" id="圖層_1" xmlns="http://www.w3.org/2000/svg" xmlns:xlink="http://www.w3.org/1999/xlink" x="0px" y="0px"
	 viewBox="0 0 420 420" enable-background="new 0 0 420 420" xml:space="preserve">
<rect x="50" y="31" fill="none" width="320" height="22.9"/>
<text transform="matrix(1 0 0 1 126 52.1198)" fill="#DBAE25" font-family="'SourceHanSansTC-Bold-B5pc-H'" font-size="24">台灣，過勞之島</text>
<g>
	<g>
		<text transform="matrix(1 0 0 1 49.5977 75.3775)" fill="#BEBEBE" font-family="'SourceHanSansTC-Light-B5pc-H'" font-size="14">年總工時</text>
	</g>
	<text transform="matrix(1 0 0 1 63.9346 370.4165)" fill="#BEBEBE" font-family="'SourceHanSansTC-Light-B5pc-H'" font-size="14">0</text>
	<text transform="matrix(1 0 0 1 41.4658 232.1597)" fill="#BEBEBE" font-family="'SourceHanSansTC-Light-B5pc-H'" font-size="14">1250</text>
	<text transform="matrix(1 0 0 1 41.4658 93.9048)" fill="#BEBEBE" font-family="'SourceHanSansTC-Light-B5pc-H'" font-size="14">2500</text>
	<line fill="none" stroke="#FFFFFF" stroke-miterlimit="10" x1="79.5" y1="364" x2="79.5" y2="89"/>
	<line opacity="0.1" fill="none" stroke="#FFFFFF" stroke-miterlimit="10" x1="80" y1="226.5" x2="381" y2="226.5"/>
	<rect x="91" y="103" fill="#333542" width="35" height="263"/>
	<rect x="140" y="116" fill="#333542" width="35" height="250"/>
	<rect x="191" y="120" fill="#333542" width="34" height="246"/>
	<rect x="239" y="134" fill="#333542" width="33" height="230"/>
	<rect x="288" y="138" fill="#333542" width="34" height="226"/>
	<rect x="337" y="138" fill="#333542" width="34" height="226"/>
	<text transform="matrix(1 0 0 1 341.0684 382.855)" fill="#BEBEBE" font-family="'SourceHanSansTC-Light-B5pc-H'" font-size="14">台灣</text>
	<text transform="matrix(1 0 0 1 291.5811 382.855)" fill="#BEBEBE" font-family="'SourceHanSansTC-Light-B5pc-H'" font-size="14">希臘</text>
	<text transform="matrix(1 0 0 1 242.0977 382.855)" fill="#BEBEBE" font-family="'SourceHanSansTC-Light-B5pc-H'" font-size="14">韓國</text>
	<text transform="matrix(1 0 0 1 193.6192 383.8579)"><tspan x="0" y="0" fill="#BEBEBE" font-family="'SourceHanSansTC-Light-B5pc-H'" font-size="14">哥斯</tspan><tspan x="-7" y="16.8" fill="#BEBEBE" font-family="'SourceHanSansTC-Light-B5pc-H'" font-size="14">大黎加</tspan></text>
	<text transform="matrix(1 0 0 1 137.1328 383.8579)" fill="#BEBEBE" font-family="'SourceHanSansTC-Light-B5pc-H'" font-size="14">墨西哥</text>
	<text transform="matrix(1 0 0 1 87.6494 383.8579)" fill="#BEBEBE" font-family="'SourceHanSansTC-Light-B5pc-H'" font-size="14">新加坡</text>
	<g>
		
			<text transform="matrix(1 0 0 1 235.1719 189.7686)" fill="#DBAE25" font-family="'SourceHanSansTC-Regular-B5pc-H'" font-size="13.5469">OECD平均工時1763小時</text>
	</g>
	<line fill="none" stroke="#DBAE25" stroke-width="2" stroke-miterlimit="10" x1="79.8" y1="170.9" x2="381" y2="170.9"/>
	<line fill="none" stroke="#FFFFFF" stroke-miterlimit="10" x1="79" y1="365.5" x2="381" y2="365.5"/>
</g>
</svg>
