<?xml version="1.0" encoding="UTF-8" standalone="no"?>
<svg width="117px" height="22px" viewBox="0 0 117 22" version="1.1" xmlns="http://www.w3.org/2000/svg" xmlns:xlink="http://www.w3.org/1999/xlink">
    <!-- Generator: Sketch 47.1 (45422) - http://www.bohemiancoding.com/sketch -->
    <title>logo-navbar</title>
    <desc>Created with Sketch.</desc>
    <defs></defs>
    <g id="Welcome" stroke="none" stroke-width="1" fill="none" fill-rule="evenodd" opacity="0.6">
        <g id="Desktop-HD-opening" transform="translate(-660.000000, -289.000000)" fill="#FFFFFF">
            <g id="logo-navbar" transform="translate(660.000000, 289.000000)">
                <g id="0009C652-C939-4C30-B87C-39ABD1AC30CE">
                    <g id="spec">
                        <g id="Desktop---landing">
                            <g id="logo-navbar">
                                <g id="Typography" transform="translate(23.938643, 3.374833)">
                                    <g id="Group">
                                        <path d="M41.9638478,2.26681251 C41.9638478,2.26681251 42.4401654,2.04892481 42.5590402,1.51759943 L43.6164326,1.51759943 L43.6164326,2.43049194 L41.91106,2.43049194 L41.9638478,2.26681251 L41.9638478,2.26681251 L41.9638478,2.26681251 Z" id="Fill-8"></path>
                                        <path d="M45.2841785,5.18941849 C45.2841785,5.18941849 45.7600869,4.97131986 45.8791663,4.43957263 L46.9369679,4.43957263 L46.9369679,5.35267607 L45.2315954,5.35267607 L45.2841785,5.18941849 L45.2841785,5.18941849 Z" id="Fill-10"></path>
                                        <path d="M43.2863862,7.77481527 C43.2863862,7.77481527 43.7618854,7.55629484 43.881374,7.02496945 L44.9387664,7.02496945 L44.9387664,7.93849474 L43.2331892,7.93849474 L43.2863862,7.77481527 L43.2863862,7.77481527 Z" id="Fill-12"></path>
                                        <polygon id="Fill-14" points="36.2390134 2.59841101 43.6127293 2.59841101 43.6127293 2.25692003 36.2390134 2.25692003"></polygon>
                                        <polygon id="Fill-16" points="34.7662753 5.5117362 46.9408144 5.5117362 46.9408144 5.17066706 34.7662753 5.17066706"></polygon>
                                        <polygon id="Fill-17" points="38.7104225 8.11035814 44.4503772 8.11035814 44.4503772 7.74271222 38.7104225 7.74271222"></polygon>
                                        <polygon id="Fill-18" points="38.0812659 10.6817705 44.4970268 10.6817705 44.4970268 10.3402795 38.0812659 10.3402795"></polygon>
                                        <polygon id="Fill-19" points="38.0812659 13.0224285 44.4970268 13.0224285 44.4970268 12.6807267 38.0812659 12.6807267"></polygon>
                                        <polygon id="Fill-20" points="37.5611631 14.4312107 38.5954352 14.4312107 38.5954352 8.34005775 37.5611631 8.34005775"></polygon>
                                        <polygon id="Fill-21" points="43.8789188 14.4550455 44.9438815 14.4550455 44.9438815 7.8188569 43.8789188 7.8188569"></polygon>
                                        <polygon id="Fill-22" points="39.6006536 5.49908057 40.680757 5.49908057 40.680757 0.253534381 39.6006536 0.253534381"></polygon>
                                        <path d="M44.8091294,1.10424558 C44.8091294,1.10424558 42.0291778,6.79337145 33.7934662,10.1762204 L33.8984279,10.4778462 C33.8984279,10.4778462 41.9238068,8.12917284 45.7914322,1.7292226 L44.8091294,1.10424558 L44.8091294,1.10424558 Z" id="Fill-23"></path>
                                        <path d="M29.0777172,2.33354985 C29.0777172,2.33354985 29.553421,2.11545122 29.6725004,1.58412584 L30.7300974,1.58412584 L30.7300974,2.49722928 L29.0243156,2.49722928 L29.0777172,2.33354985 L29.0777172,2.33354985 Z" id="Fill-36"></path>
                                        <path d="M28.7078549,10.7828889 C28.7078549,10.7828889 29.1837634,10.5643685 29.3030474,10.0330431 L30.3606443,10.0330431 L30.3606443,10.9461465 L28.6546579,10.9461465 L28.7078549,10.7828889 L28.7078549,10.7828889 Z" id="Fill-37"></path>
                                        <polygon id="Fill-38" points="22.0812498 2.67961795 30.7243275 2.67961795 30.7243275 2.33854882 22.0812498 2.33854882"></polygon>
                                        <polygon id="Fill-39" points="23.0173121 3.91607264 29.4774721 3.91607264 29.4774721 3.54842669 23.0173121 3.54842669"></polygon>
                                        <polygon id="Fill-40" points="23.0326574 5.19956408 29.493022 5.19956408 29.493022 4.8580731 23.0326574 4.8580731"></polygon>
                                        <polygon id="Fill-41" points="23.0173121 6.41070752 29.4774721 6.41070752 29.4774721 6.06921653 23.0173121 6.06921653"></polygon>
                                        <polygon id="Fill-42" points="23.0173121 7.65454466 29.4774721 7.65454466 29.4774721 7.31305367 23.0173121 7.31305367"></polygon>
                                        <polygon id="Fill-43" points="17.2996593 5.35332994 20.600123 5.35332994 20.600123 5.01183896 17.2996593 5.01183896"></polygon>
                                        <polygon id="Fill-44" points="19.6963881 7.95153003 20.7779237 7.95153003 20.7779237 4.98926975 19.6963881 4.98926975"></polygon>
                                        <path d="M29.4181779,2.33684031 C29.4181779,2.33684031 29.7944443,2.16451287 29.888562,1.74413514 L30.7241639,1.74413514 L30.7241639,2.46613863 L29.3760296,2.46613863 L29.4181779,2.33684031 L29.4181779,2.33684031 Z" id="Fill-45"></path>
                                        <path d="M19.4713239,4.99886694 C19.4713239,4.99886694 19.8475902,4.82653949 19.941708,4.4063727 L20.7771053,4.4063727 L20.7771053,5.12816526 L19.4291756,5.12816526 L19.4713239,4.99886694 L19.4713239,4.99886694 Z" id="Fill-46"></path>
                                        <polygon id="Fill-47" points="18.1197113 11.0610174 30.3603374 11.0610174 30.3603374 10.7195264 18.1197113 10.7195264"></polygon>
                                        <path d="M29.0430369,10.7179023 C29.0430369,10.7179023 29.4193033,10.5459967 29.513421,10.1254081 L30.349432,10.1254081 L30.349432,10.8476225 L29.0008885,10.8476225 L29.0430369,10.7179023 L29.0430369,10.7179023 Z" id="Fill-48"></path>
                                        <path d="M28.4219416,3.57006782 C28.4219416,3.57006782 28.8158039,3.38972514 28.9148322,2.9497312 L29.7901272,2.9497312 L29.7901272,3.70548302 L28.3781564,3.70548302 L28.4219416,3.57006782 L28.4219416,3.57006782 Z" id="Fill-49"></path>
                                        <path d="M19.6825159,5.00907581 C19.6825159,5.00907581 19.9976058,4.86395796 20.0767874,4.51170969 L20.7779646,4.51170969 L20.7779646,5.11749235 L19.6469149,5.11749235 L19.6825159,5.00907581 L19.6825159,5.00907581 Z" id="Fill-50"></path>
                                        <path d="M18.3390056,1.25718883 L18.511282,0.982561734 C18.511282,0.982561734 20.0787516,1.37045668 20.7844301,2.77607491 L19.969084,3.37447511 C19.969084,3.37447511 19.0753746,1.62905331 18.3390056,1.25718883" id="Fill-51"></path>
                                        <path d="M23.2767702,0.310590163 L23.4269494,0.121388549 C23.4269494,0.121388549 24.4616307,0.241827926 25.1955445,1.37703761 L24.2950832,1.87566929 C24.2950832,1.87566929 23.9611698,0.844024811 23.2767702,0.310590163" id="Fill-52"></path>
                                        <path d="M27.197613,0.453535462 C27.197613,0.453535462 26.7012442,2.14664734 26.5130088,2.46409263 L26.8037507,2.46409263 C26.8037507,2.46409263 27.7962837,1.40608227 28.4632921,0.488549362 L27.197613,0.453535462 L27.197613,0.453535462 Z" id="Fill-53"></path>
                                        <polygon id="Fill-54" points="17.6493681 8.61316615 19.781135 7.61105151 19.9380661 7.88631138 18.3390875 9.82515334"></polygon>
                                        <path d="M20.7216167,7.32206024 C20.7216167,7.32206024 21.2179855,8.57749837 24.2692418,8.65301028 C24.2692418,8.65301028 28.256765,8.86857783 30.268634,8.50198646 L30.268634,9.39041145 C30.268634,9.39041145 21.8031523,10.3602543 20.5808493,7.61271784 L20.7216167,7.32206024 L20.7216167,7.32206024 Z" id="Fill-55"></path>
                                        <polygon id="Fill-56" points="22.5493833 8.08736709 23.5994099 8.08736709 23.5994099 3.07215329 22.5493833 3.07215329"></polygon>
                                        <polygon id="Fill-57" points="28.7220749 8.1055068 29.7874468 8.1055068 29.7874468 3.56614458 28.7220749 3.56614458"></polygon>
                                        <path d="M21.7348556,11.9803854 L21.9069274,11.8025738 C21.9069274,11.8025738 23.1300488,12.0930204 23.850868,13.1923725 L23.0361357,13.9192273 C23.0361357,13.9192273 22.0636539,12.0930204 21.7348556,11.9803854" id="Fill-58"></path>
                                        <path d="M26.4564153,9.88438166 L27.5199458,9.88438166 L27.5199458,13.5228742 C27.5199458,13.8827158 27.4364675,14.2309565 27.1512498,14.4467349 C26.9908404,14.5684399 26.6696125,14.7331739 26.4629626,14.6717942 C26.1924765,14.5910091 26.242809,14.2347532 26.0977449,14.0489264 C25.9444967,13.853186 25.5784605,13.8055165 25.3499181,13.8055165 L25.3585114,13.5760279 L26.0105837,13.5760279 C26.0105837,13.5760279 26.4691008,13.6466884 26.4691008,13.1866564 C26.4691008,12.7272571 26.4564153,9.88438166 26.4564153,9.88438166" id="Fill-59"></path>
                                        <polygon id="Fill-84" points="0.5512026 3.12657249 7.22026301 3.12657249 7.22026301 2.78845634 0.5512026 2.78845634"></polygon>
                                        <polygon id="Fill-85" points="8.29177304 1.78655258 12.3580687 1.78655258 12.3580687 1.4482255 8.29177304 1.4482255"></polygon>
                                        <polygon id="Fill-86" points="8.54016201 7.39594803 13.2493228 7.39594803 13.2493228 7.08419777 8.54016201 7.08419777"></polygon>
                                        <polygon id="Fill-87" points="3.08603891 5.51637659 4.15734433 5.51637659 4.15734433 0.509810814 3.08603891 0.509810814"></polygon>
                                        <polygon id="Fill-88" points="7.89259108 14.4782475 8.88778388 14.4782475 8.88778388 0.66315482 7.89259108 0.66315482"></polygon>
                                        <polygon id="Fill-89" points="3.08603891 14.5602981 4.15734433 14.5602981 4.15734433 8.10677235 3.08603891 8.10677235"></polygon>
                                        <path d="M5.58633809,2.7853768 C5.58633809,2.7853768 6.05733601,2.56938745 6.17518779,2.04333524 L7.22234996,2.04333524 L7.22234996,2.94736881 L5.53375492,2.94736881 L5.58633809,2.7853768 L5.58633809,2.7853768 Z" id="Fill-90"></path>
                                        <path d="M5.58633809,10.5438452 C5.58633809,10.5438452 6.05733601,10.3278559 6.17518779,9.80138181 L7.22234996,9.80138181 L7.22234996,10.7060482 L5.53375492,10.7060482 L5.58633809,10.5438452 L5.58633809,10.5438452 Z" id="Fill-91"></path>
                                        <path d="M11.2914692,1.4835558 C11.2914692,1.4835558 11.7628762,1.26756644 11.8811373,0.741303311 L12.9278902,0.741303311 L12.9278902,1.64554782 L11.2388859,1.64554782 L11.2914692,1.4835558 L11.2914692,1.4835558 Z" id="Fill-92"></path>
                                        <path d="M5.63689569,7.92322363 C5.63689569,7.92322363 6.10789361,7.70723423 6.22554078,7.18033834 L7.27290755,7.18033834 L7.27290755,8.08521563 L5.58431252,8.08521563 L5.63689569,7.92322363 L5.63689569,7.92322363 Z" id="Fill-93"></path>
                                        <path d="M5.61510539,5.31103906 C5.61510539,5.31103906 6.08630791,5.0950497 6.20436429,4.5689975 L7.25111727,4.5689975 L7.25111727,5.47239829 L5.56252221,5.47239829 L5.61510539,5.31103906 L5.61510539,5.31103906 Z" id="Fill-94"></path>
                                        <polygon id="Fill-95" points="0.0208695862 5.65390106 7.24972597 5.65390106 7.24972597 5.31557399 0.0208695862 5.31557399"></polygon>
                                        <polygon id="Fill-96" points="0.0615857397 8.24978094 7.26670809 8.24978094 7.26670809 7.91166482 0.0615857397 7.91166482"></polygon>
                                        <path d="M5.9716684,7.89500159 C5.9716684,7.89500159 6.3444565,7.72372875 6.43693742,7.3079914 L7.26476434,7.3079914 L7.26476434,8.02261244 L5.92992923,8.02261244 L5.9716684,7.89500159 L5.9716684,7.89500159 Z" id="Fill-97"></path>
                                        <polygon id="Fill-98" points="0.555703884 10.8188731 7.22394585 10.8188731 7.22394585 10.4803351 0.555703884 10.4803351"></polygon>
                                        <path d="M1.54971,6.03023721 L1.77743401,5.89186902 C1.77743401,5.89186902 2.63636071,6.78788739 3.01896978,7.59869115 L2.18111728,7.97203212 C2.18111728,7.97203212 1.75717824,6.25466365 1.54971,6.03023721" id="Fill-99"></path>
                                        <path d="M4.73745745,5.78469696 L6.0102976,6.30821804 C6.0102976,6.30821804 4.81970817,7.62018465 4.4266643,7.93973922 L4.26113983,7.83322103 C4.26113983,7.83322103 4.59239336,6.7874444 4.73745745,5.78469696" id="Fill-100"></path>
                                        <path d="M11.8885848,1.44658027 L11.8885848,4.93932221 L11.8885848,5.18800527 C11.8885848,5.18800527 11.9442371,5.68579324 11.5356433,5.68579324 L11.1088398,5.68579324 L11.1088398,5.93363259 C11.1088398,5.93363259 11.7212189,5.9726541 11.7212189,6.33650337 C11.7212189,6.69950891 12.9279721,6.96738632 12.9279721,5.18800527 L12.9279721,1.40819154 L11.8885848,1.44658027 L11.8885848,1.44658027 Z" id="Fill-101"></path>
                                        <path d="M12.1770148,7.07179525 C12.1770148,7.07179525 11.8144569,11.5042175 9.17465886,14.5858625 L9.28575866,14.7733766 C9.28575866,14.7733766 12.7179872,11.7204177 13.2745095,7.16839989 L12.1770148,7.07179525 L12.1770148,7.07179525 Z" id="Fill-102"></path>
                                        <path d="M9.50677169,7.81157988 C9.50677169,7.81157988 10.2519387,11.8871134 13.9151649,13.5673588 L13.0769032,14.6711403 C13.0769032,14.6711403 9.95690003,13.09214 9.27393261,7.85946032 L9.50677169,7.81157988 L9.50677169,7.81157988 Z" id="Fill-103"></path>
                                    </g>
                                    <g id="Group" transform="translate(51.150946, 1.687417)">
                                        <polygon id="Fill-305" points="1.16257917 3.93147032 1.69986872 3.93147032 1.69986872 0.531747233 0.697514769 0.531747233 0.697514769 1.21641662 0.172092245 1.21641662 0.172092245 0.0210927106 3.83204477 0.0210927106 3.83204477 1.21641662 3.30662225 1.21641662 3.30662225 0.531747233 2.3042683 0.531747233 2.3042683 3.93147032 2.84155785 3.93147032 2.84155785 4.41723544 1.16257917 4.41723544"></polygon>
                                        <polygon id="Fill-306" points="5.53428689 3.93147032 6.06584753 3.93147032 6.06584753 0.500530021 5.53428689 0.500530021 5.53428689 0.0210927106 7.20733205 0.0210927106 7.20733205 0.500530021 6.66963328 0.500530021 6.66963328 1.96394228 8.88037719 1.96394228 8.88037719 0.500530021 8.34308767 0.500530021 8.34308767 0.0210927106 10.0159282 0.0210927106 10.0159282 0.500530021 9.48436757 0.500530021 9.48436757 3.93147032 10.0159282 3.93147032 10.0159282 4.41723544 8.34308767 4.41723544 8.34308767 3.93147032 8.88037719 3.93147032 8.88037719 2.47438588 6.66963328 2.47438588 6.66963328 3.93147032 7.20733205 3.93147032 7.20733205 4.41723544 5.53428689 4.41723544"></polygon>
                                        <polygon id="Fill-307" points="11.8630094 3.93147032 12.39457 3.93147032 12.39457 0.500530021 11.8630094 0.500530021 11.8630094 0.0210927106 14.9492529 0.0210927106 14.9492529 1.04219083 14.4240349 1.04219083 14.4240349 0.531747233 12.9983558 0.531747233 12.9983558 1.94474791 14.5083317 1.94474791 14.5083317 2.45561336 12.9983558 2.45561336 12.9983558 3.90679185 14.5265415 3.90679185 14.5265415 3.37715388 15.0519639 3.37715388 15.0519639 4.41723544 11.8630094 4.41723544"></polygon>
                                        <path d="M2.13894844,9.72506841 C2.60401284,9.72506841 2.91214615,9.41395092 2.91214615,8.89717951 C2.91214615,8.55484481 2.77915369,8.31818461 2.51357797,8.2061823 C2.3744474,8.15028664 2.19337305,8.12518633 1.98795085,8.12518633 L1.28124937,8.12518633 L1.28124937,9.72506841 L2.13894844,9.72506841 L2.13894844,9.72506841 Z M0.145698356,11.5249094 L0.677463596,11.5249094 L0.677463596,8.09396912 L0.145698356,8.09396912 L0.145698356,7.61453181 L1.99408896,7.61453181 C2.29608415,7.61453181 2.54365473,7.62697647 2.77915369,7.70755065 C3.22621296,7.86363668 3.52186543,8.24984422 3.52186543,8.84761167 C3.52186543,9.48271315 3.18385998,9.93662831 2.64002311,10.0802697 L2.64002311,10.0927143 C2.64002311,10.0927143 2.74887233,10.1549378 2.82130207,10.2981573 L3.42549705,11.381479 C3.49199328,11.5002309 3.57056113,11.5249094 3.72135412,11.5249094 L3.84820847,11.5249094 L3.84820847,12.0106745 L3.48585516,12.0106745 C3.12350186,12.0106745 3.03879589,11.9423341 2.89414102,11.6803627 L2.23552143,10.478711 C2.12687682,10.2920404 2.04830897,10.2361448 1.78866676,10.2361448 L1.28124937,10.2361448 L1.28124937,11.5249094 L1.80667189,11.5249094 L1.80667189,12.0106745 L0.145698356,12.0106745 L0.145698356,11.5249094 L0.145698356,11.5249094 Z" id="Fill-308"></path>
                                        <polygon id="Fill-309" points="5.56256314 11.5249516 6.09412377 11.5249516 6.09412377 8.09401127 5.56256314 8.09401127 5.56256314 7.61457396 8.64880667 7.61457396 8.64880667 8.63567206 8.12358874 8.63567206 8.12358874 8.12522847 6.69790954 8.12522847 6.69790954 9.53822917 8.20809011 9.53822917 8.20809011 10.0490946 6.69790954 10.0490946 6.69790954 11.5002731 8.22629981 11.5002731 8.22629981 10.9706351 8.75172234 10.9706351 8.75172234 12.0107167 5.56256314 12.0107167"></polygon>
                                        <path d="M12.5134039,9.84989508 C12.7067545,9.84989508 12.8579566,9.81846695 12.9905399,9.76299308 C13.2624583,9.63833518 13.419594,9.35780212 13.419594,8.97813333 C13.419594,8.62314305 13.2804635,8.36180432 13.0388264,8.23124046 C12.9062432,8.15636132 12.7249642,8.12514412 12.5197466,8.12514412 L11.722201,8.12514412 L11.722201,9.84989508 L12.5134039,9.84989508 L12.5134039,9.84989508 Z M10.5866501,11.5248672 L11.1184152,11.5248672 L11.1184152,8.09413784 L10.5866501,8.09413784 L10.5866501,7.6144896 L12.5739666,7.6144896 C12.8336088,7.6144896 13.093251,7.63347308 13.3048113,7.73281974 C13.7457325,7.92581802 14.0295179,8.39302153 14.0295179,8.97813333 C14.0295179,9.59446233 13.7152465,10.0926722 13.2262435,10.2671089 C13.0267548,10.341988 12.8215372,10.3605496 12.5858336,10.3605496 L11.722201,10.3605496 L11.722201,11.5248672 L12.2598998,11.5248672 L12.2598998,12.0106324 L10.5866501,12.0106324 L10.5866501,11.5248672 L10.5866501,11.5248672 Z" id="Fill-310"></path>
                                        <path d="M17.9000282,11.5309208 C18.7636608,11.5309208 19.4644288,10.7713723 19.4644288,9.78128049 C19.4644288,8.82219494 18.7636608,8.08795765 17.9000282,8.08795765 C17.0302575,8.08795765 16.3294896,8.82219494 16.3294896,9.78128049 C16.3294896,10.7713723 17.0302575,11.5309208 17.9000282,11.5309208 M17.9000282,7.53996904 C19.1321522,7.53996904 20.0925624,8.51740528 20.0925624,9.78128049 C20.0925624,11.0765838 19.1321522,12.0850264 17.9000282,12.0850264 C16.6619707,12.0850264 15.707494,11.0765838 15.707494,9.78128049 C15.707494,8.51740528 16.6619707,7.53996904 17.9000282,7.53996904" id="Fill-311"></path>
                                        <path d="M23.8602183,9.72506841 C24.3252828,9.72506841 24.6332115,9.41395092 24.6332115,8.89717951 C24.6332115,8.55484481 24.5004236,8.31818461 24.2348479,8.2061823 C24.0957173,8.15028664 23.914643,8.12518633 23.7092208,8.12518633 L23.0025193,8.12518633 L23.0025193,9.72506841 L23.8602183,9.72506841 L23.8602183,9.72506841 Z M21.8671729,11.5249094 L22.3985289,11.5249094 L22.3985289,8.09396912 L21.8671729,8.09396912 L21.8671729,7.61453181 L23.7153589,7.61453181 C24.0171494,7.61453181 24.26472,7.62697647 24.5004236,7.70755065 C24.9474829,7.86363668 25.24334,8.24984422 25.24334,8.84761167 C25.24334,9.48271315 24.9051299,9.93662831 24.3614976,10.0802697 L24.3614976,10.0927143 C24.3614976,10.0927143 24.4701422,10.1549378 24.5427766,10.2981573 L25.1465623,11.381479 C25.2132632,11.5002309 25.2918311,11.5249094 25.442624,11.5249094 L25.5694784,11.5249094 L25.5694784,12.0106745 L25.2073297,12.0106745 C24.8447718,12.0106745 24.7598612,11.9423341 24.6152064,11.6803627 L23.9569959,10.478711 C23.8481468,10.2920404 23.7697835,10.2361448 23.5099367,10.2361448 L23.0025193,10.2361448 L23.0025193,11.5249094 L23.5279418,11.5249094 L23.5279418,12.0106745 L21.8671729,12.0106745 L21.8671729,11.5249094 L21.8671729,11.5249094 Z" id="Fill-312"></path>
                                        <polygon id="Fill-313" points="28.1052354 11.5249516 28.6427295 11.5249516 28.6427295 8.12522847 27.640171 8.12522847 27.640171 8.80989786 27.1147485 8.80989786 27.1147485 7.61457396 30.774701 7.61457396 30.774701 8.80989786 30.2494831 8.80989786 30.2494831 8.12522847 29.2469245 8.12522847 29.2469245 11.5249516 29.7844187 11.5249516 29.7844187 12.0107167 28.1052354 12.0107167"></polygon>
                                        <polygon id="Fill-314" points="32.4770454 11.5249516 33.0086061 11.5249516 33.0086061 8.09401127 32.4770454 8.09401127 32.4770454 7.61457396 35.5634935 7.61457396 35.5634935 8.63567206 35.0378664 8.63567206 35.0378664 8.12522847 33.6125965 8.12522847 33.6125965 9.53822917 35.1223678 9.53822917 35.1223678 10.0490946 33.6125965 10.0490946 33.6125965 11.5002731 35.1407821 11.5002731 35.1407821 10.9706351 35.6662047 10.9706351 35.6662047 12.0107167 32.4770454 12.0107167"></polygon>
                                        <path d="M39.494321,9.72506841 C39.9593854,9.72506841 40.2673141,9.41395092 40.2673141,8.89717951 C40.2673141,8.55484481 40.1345263,8.31818461 39.8687459,8.2061823 C39.72982,8.15028664 39.5487456,8.12518633 39.3433234,8.12518633 L38.636622,8.12518633 L38.636622,9.72506841 L39.494321,9.72506841 L39.494321,9.72506841 Z M37.5012755,11.5249094 L38.0326316,11.5249094 L38.0326316,8.09396912 L37.5012755,8.09396912 L37.5012755,7.61453181 L39.3492569,7.61453181 C39.6514567,7.61453181 39.8988227,7.62697647 40.1345263,7.70755065 C40.5811763,7.86363668 40.8774426,8.24984422 40.8774426,8.84761167 C40.8774426,9.48271315 40.5392326,9.93662831 39.9953957,10.0802697 L39.9953957,10.0927143 C39.9953957,10.0927143 40.1040403,10.1549378 40.1768793,10.2981573 L40.7806651,11.381479 C40.8473659,11.5002309 40.9257291,11.5249094 41.0767267,11.5249094 L41.2033765,11.5249094 L41.2033765,12.0106745 L40.8412277,12.0106745 C40.4784652,12.0106745 40.3939639,11.9423341 40.2491044,11.6803627 L39.5910986,10.478711 C39.4822494,10.2920404 39.4036816,10.2361448 39.1440393,10.2361448 L38.636622,10.2361448 L38.636622,11.5249094 L39.1622491,11.5249094 L39.1622491,12.0106745 L37.5012755,12.0106745 L37.5012755,11.5249094 L37.5012755,11.5249094 Z" id="Fill-315"></path>
                                    </g>
                                </g>
                                <g id="Icon">
                                    <polygon id="Fill-1" points="19.8465673 17.7178769 12.0716234 15.8195329 12.0716234 5.90595896 19.8465673 3.58576079"></polygon>
                                    <polygon id="Fill-2" points="0 21.7254919 12.2762272 15.8195329 12.2762272 5.90595896 0 0"></polygon>
                                </g>
                            </g>
                        </g>
                    </g>
                </g>
            </g>
        </g>
    </g>
</svg>