<svg xmlns="http://www.w3.org/2000/svg" viewBox="0 0 252.95 129.75"><defs><style>.cls-1{fill:#c7000b;}.cls-2{fill:#e60012;}.cls-3{fill:#231815;}</style></defs><title>logo-vertical02-red</title><g id="logo"><polygon class="cls-1" points="83.37 69.31 67.62 65.62 67.62 45.93 83.37 41.59 83.37 69.31"/><polygon class="cls-2" points="43.02 76.86 67.62 65.62 67.62 45.93 43.02 34.69 43.02 76.86"/><path class="cls-3" d="M199.67,51.31h10.26V48.84h-2.51a2.69,2.69,0,0,1-1.33,1.69h-5.54a38.5,38.5,0,0,0,6.66-7.94l-2.33-1.44a37.7,37.7,0,0,1-7.63,9.38h-2.18V44.6h7V42.1h-2.51a2.68,2.68,0,0,1-1.37,1.71h-3.09V39.19h-2.57v4.62h-8v.79h8v5.93H181v.78h15.38a59.5,59.5,0,0,1-17.69,10.76l.25.69a55.93,55.93,0,0,0,8.7-3.53V71.88h2.46V68.63h12.56v3.3h2.53V54.8h-2.52a2.67,2.67,0,0,1-1.27,1.66h-8.74A52.34,52.34,0,0,0,199.67,51.31ZM190.1,67.84V63.23h12.56v4.61ZM202.66,57.3v5.14H190.1V58l1.14-.65Z"/><path class="cls-3" d="M142.46,41.5l.41-.63A9,9,0,0,1,148.28,45l-1.94,1.38S144.21,42.36,142.46,41.5Z"/><path class="cls-3" d="M171.91,42.26H169.4A2.71,2.71,0,0,1,168,44h-5.13c.66-.71,2.41-2.59,3.67-4.27l-3-.08s-1,3.2-1.48,4.35H151.36v.78H171.9Z"/><path class="cls-3" d="M156.62,42.93l2.14-1.15a6.34,6.34,0,0,0-4.2-2.89l-.36.43A8.52,8.52,0,0,1,156.62,42.93Z"/><path class="cls-3" d="M156.56,58.55c-6-.14-7.84-2.14-8.3-2.83v-7h-2a2.13,2.13,0,0,1-1.11,1.37v0H140V51h5.7v5.29l-4.86,2.22,1.63,2.8,3.68-4.32h2.12v0c4.11,5.39,22.56,3.34,22.56,3.34v-2C166,59.05,156.56,58.55,156.56,58.55Z"/><path class="cls-3" d="M169.68,45.41H167.6a2.19,2.19,0,0,1-1.08,1.38H155v-1.1h-2.5V57.25H155v-1h12.17v1h2.53Zm-2.54,2.22v2.18H155V47.63Zm-12.17,3h12.17v2H155Zm0,4.88V53.39h12.17v2.08Z"/><path class="cls-3" d="M150.54,66.23l.4-.41a8.42,8.42,0,0,1,4.62,3.2l-1.93,1.68S151.32,66.49,150.54,66.23Z"/><path class="cls-3" d="M171,61.74h-2.52a2.62,2.62,0,0,1-1.16,1.58h-3.08V61.39h-2.52s0,.83,0,1.93H141.94v.79h19.83c0,1.93,0,4.3,0,4.9,0,1.06-1.09.89-1.09.89h-1.55l0,.53a2.47,2.47,0,0,1,1.77.56c.35.43.23,1.25.87,1.44a2.36,2.36,0,0,0,1.64-.52,2.48,2.48,0,0,0,.87-2.13V64.11H171Z"/><path class="cls-3" d="M117.38,49.14h-2.49a2.67,2.67,0,0,1-1.4,1.71H110v-5h7.28V43.32h-2.49A2.67,2.67,0,0,1,113.43,45H110V39.78h-2.55V45h-6v.78h6v5H100.2v.78h17.18Z"/><path class="cls-3" d="M117.43,55.16h-2.49a2.66,2.66,0,0,1-1.34,1.69h-2.85c1-.83,3.68-3.7,3.68-3.7l-3-1.21a34.67,34.67,0,0,1-1.13,4.72l.29.19h-4.92l1.67-.73a18.5,18.5,0,0,0-2.95-3.93l-.54.32c.44.46,1.29,3.64,1.47,4.34h-5v.78h7.19v5.14h-6v.78h6v8.62H110V63.55h7.29V61.2h-2.49a2.58,2.58,0,0,1-1.14,1.57H110V57.63h7.39Z"/><path class="cls-3" d="M127.71,66a27.33,27.33,0,0,0,3.9-10.29h0v-.72H121.27V42.72h7.13v7.85s.14,1.14-.84,1.14h-1v.58s1.46.09,1.46.92,2.86,1.46,2.86-2.64V40.32h-2.48a2.61,2.61,0,0,1-1.25,1.62h-5.87v-1.8h-2.36V72h2.36V55.66H129a37.15,37.15,0,0,1-2.43,9,20.94,20.94,0,0,1-3.83-8l-.55.11a25.12,25.12,0,0,0,3.42,10A25.62,25.62,0,0,1,122,72.23l.27.43a30.3,30.3,0,0,0,4.18-4.74,15,15,0,0,0,4.83,4.51l2-2.55A16.87,16.87,0,0,1,127.71,66Z"/><path class="cls-3" d="M45.55,93.66h1.37V85.24H44.36v1.7H43V84h9.35v3H51v-1.7H48.47v8.42h1.37v1.21H45.55Z"/><path class="cls-3" d="M58.09,93.66h1.36V85.17H58.09V84h4.27v1.19H61v3.62h5.65V85.17H65.26V84h4.28v1.19H68.18v8.49h1.36v1.21H65.26V93.66h1.38v-3.6H61v3.6h1.37v1.21H58.09Z"/><path class="cls-3" d="M75.26,93.66h1.36V85.17H75.26V84h7.88v2.53H81.8V85.24H78.16v3.5H82V90H78.16V93.6h3.9V92.29H83.4v2.58H75.26Z"/><path class="cls-3" d="M100.2,93.85h1.36v-8.5H100.2V84.16h4.72a6.22,6.22,0,0,1,2,.23,2.78,2.78,0,0,1,1.9,2.83,2.94,2.94,0,0,1-2.25,3v0a1.32,1.32,0,0,1,.46.51l1.54,2.68c.17.3.37.36.76.36h.32v1.2h-.92c-.93,0-1.14-.17-1.51-.82l-1.69-3c-.27-.46-.47-.6-1.14-.6H103.1v3.19h1.34v1.2H100.2Zm5.09-4.46a1.87,1.87,0,0,0,2-2,1.67,1.67,0,0,0-1-1.71,3.71,3.71,0,0,0-1.34-.2h-1.8v4Z"/><path class="cls-3" d="M114.76,93.85h1.36v-8.5h-1.36V84.16h7.88v2.53H121.3V85.43h-3.64v3.5h3.86v1.26h-3.86v3.6h3.9V92.48h1.34v2.57h-8.14Z"/><path class="cls-3" d="M128,93.85h1.36v-8.5H128V84.16h5.08a4.5,4.5,0,0,1,1.86.3,3.5,3.5,0,0,1-.2,6.27,4.53,4.53,0,0,1-1.63.24h-2.21v2.88h1.37v1.2H128Zm4.92-4.15a3.13,3.13,0,0,0,1.22-.22,2,2,0,0,0,1.1-1.94,2,2,0,0,0-1-1.85,2.88,2.88,0,0,0-1.32-.26h-2V89.7Z"/><path class="cls-3" d="M147.51,84a5.5,5.5,0,0,1,5.6,5.55,5.6,5.6,0,1,1-11.2,0A5.49,5.49,0,0,1,147.51,84Zm0,9.88a4.14,4.14,0,0,0,4-4.33,4,4,0,1,0-8,0A4.14,4.14,0,0,0,147.51,93.86Z"/><path class="cls-3" d="M158.21,93.85h1.36v-8.5h-1.36V84.16h4.72a6.28,6.28,0,0,1,2,.23,2.78,2.78,0,0,1,1.9,2.83,3,3,0,0,1-2.26,3v0a1.38,1.38,0,0,1,.47.51l1.54,2.68c.17.3.37.36.76.36h.32v1.2h-.93c-.92,0-1.14-.17-1.51-.82l-1.68-3a1.05,1.05,0,0,0-1.14-.6h-1.3v3.19h1.35v1.2h-4.25Zm5.09-4.46a1.88,1.88,0,0,0,2-2,1.67,1.67,0,0,0-1-1.71,3.75,3.75,0,0,0-1.34-.2h-1.81v4Z"/><path class="cls-3" d="M175.31,93.85h1.37V85.43h-2.56v1.69h-1.34v-3h9.34v3h-1.34V85.43h-2.56v8.42h1.37v1.2h-4.28Z"/><path class="cls-3" d="M187.23,93.85h1.36v-8.5h-1.36V84.16h7.88v2.53h-1.34V85.43h-3.64v3.5H194v1.26h-3.85v3.6H194V92.48h1.34v2.57h-8.14Z"/><path class="cls-3" d="M200.48,93.85h1.36v-8.5h-1.36V84.16h4.72a6.22,6.22,0,0,1,2,.23,2.77,2.77,0,0,1,1.9,2.83,2.94,2.94,0,0,1-2.25,3v0a1.32,1.32,0,0,1,.46.51l1.54,2.68c.17.3.38.36.76.36h.32v1.2H209c-.93,0-1.14-.17-1.51-.82l-1.68-3a1.05,1.05,0,0,0-1.14-.6h-1.3v3.19h1.34v1.2h-4.24Zm5.09-4.46a1.87,1.87,0,0,0,2-2,1.68,1.68,0,0,0-1-1.71,3.81,3.81,0,0,0-1.35-.2h-1.8v4Z"/></g></svg>