<svg xmlns="http://www.w3.org/2000/svg" viewBox="0 0 623 161"><defs><style>.cls-1{fill:#5679a5;}.cls-2{fill:#7babd8;}.cls-3{opacity:0.9;}.cls-4{fill:#fff;}</style></defs><title>read-more-hover</title><g id="a6-light"><path class="cls-1" d="M619,78c0,35.2-28.8,75-64,75H69C33.8,153,5,116.2,5,81"/><rect class="cls-2" x="5" y="9" width="614" height="128" rx="64" ry="64"/><g class="cls-3"><path class="cls-4" d="M555,135.67c-.72.17-.31.58,1.66.44l1.36-.69Z"/><path class="cls-4" d="M568.29,135.49c2.23-.8,4.62-2.1,3-2.28a11.94,11.94,0,0,1-2.36,1.12c-.69.28-1.39.57-2.55,1.15-1.93.46-3.44.3-3.14,0a10.87,10.87,0,0,1-1.9.28,6.83,6.83,0,0,0-2.17.4,20.5,20.5,0,0,0,9.15-1.17C569.08,135,568.43,135.33,568.29,135.49Z"/><path class="cls-4" d="M547.7,8.07l1.26.08C548.61,8.11,548.18,8.08,547.7,8.07Z"/><path class="cls-4" d="M427,7.71a3.65,3.65,0,0,0,1.35-.14C427.48,7.61,426.78,7.65,427,7.71Z"/><path class="cls-4" d="M406.37,7l1.22,0A4.73,4.73,0,0,0,406.37,7Z"/><path class="cls-4" d="M547.7,8.07l-3.22-.21C544.25,8.08,546.13,8,547.7,8.07Z"/><path class="cls-4" d="M591.63,123.29a16.19,16.19,0,0,0-1.29,1.13l1.27-1A.41.41,0,0,1,591.63,123.29Z"/><path class="cls-4" d="M598,23.76l.76.66c.27.13.53.26.79.36C599.05,24.42,598.52,24.1,598,23.76Z"/><path class="cls-4" d="M619.05,59.06c-.19-.93-.81-1.12-1.13-1.41a6.14,6.14,0,0,1,.84,1.9C618.86,59.55,619,59.4,619.05,59.06Z"/><path class="cls-4" d="M600,119.17l-.79.86Z"/><path class="cls-4" d="M571.9,9.65a.81.81,0,0,0-.31-.3C571.57,9.42,571.7,9.52,571.9,9.65Z"/><path class="cls-4" d="M507.66,134.36s0,.07,0,.1C507.9,134.4,508,134.36,507.66,134.36Z"/><path class="cls-4" d="M555,137.15l-.66,0a.61.61,0,0,0-.14.31Z"/><path class="cls-4" d="M368.65,6.26h.17C369.81,6.21,369.25,6.22,368.65,6.26Z"/><path class="cls-4" d="M24.88,23.59c1.71-1.13.54.05-.36,1.11s-1.57,2,.8.11C24.73,25,28.91,20.53,24.88,23.59Z"/><path class="cls-4" d="M592.51,122.74l1.27-1C593.19,122.17,592.8,122.48,592.51,122.74Z"/><path class="cls-4" d="M25.32,24.81h0l.5-.37Z"/><path class="cls-4" d="M281.74,6.6a3.68,3.68,0,0,0,.89.24S282.4,6.72,281.74,6.6Z"/><path class="cls-4" d="M346.49,7.4l-1.6-.08C345.52,7.37,346,7.39,346.49,7.4Z"/><path class="cls-4" d="M248.12,7.39a14.55,14.55,0,0,0-2.35,0l.36.06A7.65,7.65,0,0,1,248.12,7.39Z"/><path class="cls-4" d="M213.13,7.39c.19.05.43.08.65.12l1.11,0Z"/><path class="cls-4" d="M401.32,134.63a6.9,6.9,0,0,1,1.62.51C402.4,134.74,407.54,134.59,401.32,134.63Z"/><path class="cls-4" d="M591.83,123.54a2.17,2.17,0,0,1,.68-.8c-.3.26-.61.47-.9.7C591.58,123.56,591.61,123.64,591.83,123.54Z"/><path class="cls-4" d="M246.7,11.83l-5.56-.09C242.7,11.8,244.72,11.83,246.7,11.83Z"/><path class="cls-4" d="M150.29,134.71l1.28-.07A6.92,6.92,0,0,0,150.29,134.71Z"/><path class="cls-4" d="M224.64,11.83a23.48,23.48,0,0,0-3.13-.39,3.88,3.88,0,0,0-.64.14Z"/><path class="cls-4" d="M403,135.14h0Z"/><path class="cls-4" d="M439.57,133.81c-5.3,0-2.49.72-3.62,1.14-6.32.21-2.92-.54-5.07-.92-3.95.2-7,.88-9.92.85-.22-.12-.8-.17-.13-.32-4.17.59-12.39,0-17.25.77a1.94,1.94,0,0,1-.63-.19c.78.37.91.75.74,1-2.37,0-4.4.46-5.3,0a6.09,6.09,0,0,0,2.26-.33l-2.49.21c-2.24-.7,3.4-.24,3.4-.76-4.85.23-10.51.81-14.22.61-.78-.68,8.69-.23,3.73-.83l5.75.26c-4.39-1.08,3.5.07-.54-1.08-7.57-.19-8.47.35-16,.15-1.7.38.56.56-1.14.94-10.73.68-8.45-1.71-16.34-.8-2,.45-2.84,1.31-8.46.85l1.92-.77c-7.33-.07-4.18,1.11-11.86.59,1.36-.3,5.76-.25,4.65-.34-5-.61-3.52.43-7.34.43l-.79-.68c-7.8.11-16.4.6-25,.72.47-.2,2-.41-.07-.62-10.9.34-23.27-.08-33.78-.49l-4,.59c-.93,0-1.73-.26-.72-.38-4.1-.22-.21.37-2.18.61-2.33,0-3.08-.34-1.6-.52-7.23.5-20.6,1.07-28.22.45l1.49-.18c-5.94-.24-6.7,1.2-12.2.66l1.05-.11c-12.87-.25-27.1.29-36.92-.6-1.87.85-12.75-.38-13.58.8-7.35-.58-5.24-.79-15.6-1.19-2.76-.05-4.12.74-7.54.86l-.08-.61-4.64.64-2.47-.73-3.21.15c1.28,0,2.71.28,2.52.46-5,.28-12.21-.43-12.33-.75l-11.86.52a19,19,0,0,1,3.82-.49c-6.32.63-1.15-.65-6.94-.07.77.14-.42.37-.56.49a123.19,123.19,0,0,0-14.33-.22l.93-.42c-8.79-.11-18.53.2-28.39.19,3.54.2,2.72.94-.17,1l-1.16-.65c-1.86.4,3,.24-.81.74-3.68-.08-2.48-.74-.36-1l-4.48.23c-.26-.19.79-.3,1.06-.54-1.82.39-7.77-.64-10.35,0l-.24-.2a69.13,69.13,0,0,1-11.25-1.12A57,57,0,0,1,47,130.16c-.17.24-1,.05-2-.26s-2.27-.8-3.4-1.12a72.57,72.57,0,0,1-15.11-11.29c-.93-.77-1.46-1.23-1.77-1.47s-.42-.27-.48-.23,0,.39-.86-.29a12.83,12.83,0,0,0-1.85-2.79c-.77-1.07-1.2-1.78,0-.5A69.08,69.08,0,0,1,16,104.42l-1.18-1.93-1.23-2.2c-.86-1.6-1.79-3.49-2.82-5.9.22,1.13.61,2.36.2,1.81-.83-1.74-1.27-4.17-1-4l.21.46C7.88,87.24,7,80.33,7.29,73.9s1.5-12.44,2.25-17l-.09.51a62.22,62.22,0,0,1,2.67-9.29c1.93-4-.75,2.58.9-.28A41.32,41.32,0,0,1,19.41,36.3c2.39-3.07,4.88-5.73,7.84-8.86a28.63,28.63,0,0,0,2.49-1.6c.92-.63,1.93-1.34,3-2.11,2.17-1.51,4.67-3.14,7.34-4.66a57.62,57.62,0,0,1,8.29-3.82A34.24,34.24,0,0,1,56,13.4l-.58-.23a5.79,5.79,0,0,1,2.41-.52,18.28,18.28,0,0,0,2-.05c-.28-.25-2.51.12-1.13-.33,1.19-.27,2.42-.38,3.64-.58s2.46-.23,3.7-.32,2.46-.1,3.77-.08h3.9c5.21,0,10.48.12,15.76.23,10.55.23,21.18.54,31.6.71,7.63.09,4.33-1.85,13.94-1l-2.73.66c15.39-.79,31.47,0,46.54-.64a8.31,8.31,0,0,1-2.4.35c3.18.48,11.77,0,11.82-.37,2.35,0,.55.35,2,.55,3.19.29,8-.61,9.71-.13.29.08-.9.15-1.48.19,2.08-.23,9.69.06,7.7-.49,5.65.26,10.81-.25,15.32.08,2.94-.62,9.68.3,10.62-.58-.41.9,9.91.73,13.48.3-1.19.28,3.11.29,1.71.67,4.08,0,7.82-.18,7.11-.65,7.52,1.08,15.11-.87,19.34.52,12.12-.49,23.33-.82,34.23-1-.39.9-12.05.09-11.58,1,10.34-.38,16.31-1.15,26.57-.93,2.65.12-1.51.39-2.41.54,10.33-.37,20,.09,29.17-.41a8.31,8.31,0,0,1-1.95.25c1.81,0,4.21.13,4-.28L350,11c-2.89-.59,7.2-1.24,7.52-1.56-3.07,1.18,9.08.3,4.2,1.79,1.19-.08,2.69-.28,2.41-.55,1.77.08,2.33.24.54.55,6.49-.22,4.18-.66,10.06-.65,0,.2-1.2.28-1.81.51a59.62,59.62,0,0,1,10.94-.61c-.3.12.27.28-1.21.28,8.54-.06,14.55-1,23.91-.66-2.76.86,3.18.28,3.68,1l5-.22-2-.37c4.41,0,8.31-.53,12.1-.28l-3.27.31,8.26-.15-4.68-.28c4.46-.38-.48-.94,5.39-.74-1.19.08,4.42,0,6.71.45h0a42.22,42.22,0,0,1,7.69-.31c.84.24-.69.83-.13,1,2.15-.63,10.32-.18,13-.84-.91.16-1,.55-.66.63l1.81-.51c2,.16,2.34.24,2,.55,6.14.1-1.95-.94,5.34-.54a12.93,12.93,0,0,1-1.49.2c7.32.21,14.15-.32,20.88-.07,2,.75-5.88.18-3.61.81,9.71-.13,20.1-.9,29.49-.72L510.42,10c1.3-1.06,7,.52,11.74,0-1.16.08-1.52.59-1.21.47,6.43.17,13.15-.26,22.89-.59l-1.2.27c3.77.26,10,.1,14,.31,1.2-.28,3.5,0,2.13-.54,3.09.55,6.05,1.15,9,1.73s5.72,1.32,8.46,2.18A50.45,50.45,0,0,1,584.1,17a37.15,37.15,0,0,1,3.62,2.11A33.81,33.81,0,0,1,591,21.67c-1-.79-2.74-1.52-1.85-1a61.26,61.26,0,0,1,7.55,5.48c-.26-.82-.71-1-2-2.56a23.27,23.27,0,0,1,5,3.77c-3.33-2.71-.44.53.6,2-.11-.32.44,0,.44-.19,1.41,2.05,1.65,2.1,2.16,2.24s1.19.43,3,3.28l-.42-.13c.83,1,1.59,1.9,2.39,2.86A26.3,26.3,0,0,1,610,40.72c.05.63-.33.07-.8-.62s-1.07-1.5-1.3-1.45c2.09,3.15,4.74,6,5.62,9.45-.4-.71-.85-1.6-1.29-2.48s-1-1.73-1.41-2.42c.59,1.82,1,2.79,1.28,3.66s.71,1.57,1.15,2.89l-.09-.26c.35,1,.72,2,1,3s.61,2,.84,3.09c-.11-.54-.17-1.08-.31-1.61a15.28,15.28,0,0,1,1.63,3.29,31.93,31.93,0,0,1,.95,3.71c.52,2.6.8,5.42,1.47,8.62-1.34-6.19-.58-1-1.22-1.43,0,1.63-.19,4.1-.36,3.4.54,3-.37,5-.15,9.22a8,8,0,0,0-.34,1.56c-.15.68-.34,1.24-.52.87-.54,3.84.49-.85.68-.49a33.78,33.78,0,0,1-2.54,10.09c-1.39,3.62-3.2,7.37-5,11.35-1.72,3.33-2.83,5.28-3.94,7.17-.58.92-1.11,1.88-1.86,2.87-.37.51-.76,1.05-1.2,1.64s-1,1.17-1.56,1.84c-.94.76-.72.28-.28-.39s1.11-1.51,1.11-1.51c-2.8,2.62-4.89,4.55-7.56,7,.46-.58-.22-.23-1.21.27a9.72,9.72,0,0,0-1.83,1.75,8.26,8.26,0,0,1-2.63,1.84,18.91,18.91,0,0,1,2-2.23,63.13,63.13,0,0,1-8.47,5.73c-.5,0-.06-.29.6-.75s1.56-1,2-1.42c-.85.47-1.82,1-2.85,1.58s-2.07,1.09-3.08,1.53a32.38,32.38,0,0,0-4.21,2.14l2.47-.64c-1.36.49-.85-.17.11-.64,3-1.59,4.53-1.74,4.81-1.62l-2.24,1.14a7.56,7.56,0,0,0,2.7-.72,27,27,0,0,0,3.45-1.89c2.41-1.53,4.86-3.53,6.91-5l-1.24,1.9c.64-.6,1.29-1.19,1.92-1.8l1.83-1.88c1-.55,1.89-.67,0,1,3.1-2,2.31-2.29,4.91-4.13.31-.19.22-.06,0,.19.82-.87,1.55-1.84,2.33-2.75-.36.63.85,0-.77,1.49a30,30,0,0,0,5.14-6.09,23.8,23.8,0,0,1,2.86-4l-.25.49a25.91,25.91,0,0,0,1.91-3.57c.23-.57.17-.65.07-.67s-.56.14.63-3c.58-.54,1.09-1.13,1.63-1.71s1.1-1.16,1.6-1.78l-.24-1c.18-.43.46-1.06.68-1.54s.4-.82.46-.62c.72-3.4-.43.47-.17-1.55a22.75,22.75,0,0,0,1.29-3.58c.33-1.33.67-2.71.9-4,.5-2.58.75-4.76,1.31-5.21-.26-1.63-.89,4.17-.62-.56,1.14-1.27.32-5.48.55-9.52.57,1.22.38,5.12.76,1a20,20,0,0,1-.65-5.32,32.24,32.24,0,0,0-.68-6.07c-.19,0-.41-.45-.66-1.22-.12-.38-.25-.84-.39-1.36s-.32-1.1-.51-1.71a48.57,48.57,0,0,0-3.05-8.18,26.91,26.91,0,0,0-2.37-5.5,68.73,68.73,0,0,0-5.46-8.78l.2.05c-1.17-.42-4.65-4.75-7.77-7.34.41-.21,1.07.14,2.78,1.56-.9-.91-1.84-1.78-2.77-2.65a11.07,11.07,0,0,1-1.47-.91c-.58-.43-1.32-1-2.33-1.69l1.1.16c-1-.78-2-1.55-3.15-2.25s-2.24-1.39-3.43-2.08c-2.4-1.36-5-2.74-7.9-4.23-.51.34,4.06,3.39-2.25.94-.13-.33-.17-.92,1.51-.29a32,32,0,0,1-3.07-1.14c.9.2,1.82.37,2.72.6-2.67-1.31-1.58-.24-3.76-1.12.18-.36-1.57-.83-1.14-1,.58.16,1.91.81,2.8,1-1.22-.56-2.62-1.06-3.8-1.59a21.48,21.48,0,0,1-2.69-1.18c.17.3-.13.47-2,.09-2.47-.58-2.89-.7-3-.9s0-.33-1.47-.69c-1.27.07-4.48-.6-4.62,0a5.55,5.55,0,0,1-2.31-.62c-.66,0-1.77.06-3,0l-3.72.07c-2.34.07-4,.18-2.53.49l.67.05-.42,0h0c-8.48.59-17.62-.33-26-.08V8c-5,.23-11.18.14-14.76.56-1.49,0-3.51-.36-2.87-.6A66.1,66.1,0,0,1,496,8c3.86-.35-1.33-.31,4-.25-5-.17-6.12-.49-11.48,0,1.83-.51-3.75-.64-6.12-.49l3.49.37c-2.66.07-5,0-7.36,0L479.72,7c-10.21-.81-18.41,1.37-26.18,0-2.7.46,5.54.33,3.13.87-4.7-.09-9.59-1-11.06-1-6.43-.37-6,1-12.73.72.86.24,1.67.87-3.36,1.1-4.7-.09-5.78-1-2.81-1.19,1.13,0,1.67.06,1.62.14,1.52-.09,3.51-.19,1.65-.45l-.61.24c-2.33-.24-8.79-.22-7.28-.61-3.55.23-1.51.39,1.12.52-6-.35-9.42,0-15.62-.25,1,.14,1.89.41.91.41-9.1-.29-4,.45-10.17.56-3.5-.37,1.25-.87-4.95-.56-3.79-.25-.81-.63.7-.83-5.65.46-10.56-.3-13.79-.38l3-.19c-1.78.11-3.24.11-4.72.11l1.7.47c-1.75-.08-3.23-.08-3.2-.28-1.8.31,1.38.79-2.19,1.21-2.33-.24-7.1.26-7.91-.37,7.33.22-.81-.63,5.4-.73a43.23,43.23,0,0,1-4.41,0c-.27-.07.24-.13.72-.17-7-.56-3.22.71-10.49.7.92-.36-1.69-.68-2.88-.6,2.93,0,1.41.59-1.28.86-4.67-.27-5.07.21-7.51.18l2.79.13c-.95.35-3.28.31-6.53.42-.28-.28,2.95-.19,1.79-.31-3.61.62-8.15-.65-13.19-.23-2.33-.24-.22-.67-2.27-.83-5.64.46-6.11-.49-12-.11,1.7.48,2,.36-2.17.83L324.62,7l-6.25.7c2.94,0,6.21-.3,8-.22-3,.39-2.68.27-1.27.67-4-.72-8,.41-12.63-.07l.14-1.18c-7-.53-12.42.6-21.5.31l2.91.2c-1.21.47-5.6.07-8.54.26.27-.4-1.57-.54-2.82-.79.15.3-6.65,0-7.47.77l-4.06-.52c-7.33-.22-8.37,1.12-15.42,1,2.13-.43-1.08-.71,3.65-1-2.36,0-4.47-.08-4.51.2-1.38-.25-6.53.53-8.69.15a11.15,11.15,0,0,1-4,.56c-.29-.08,0-.2,0-.2,0,.2-4.14.27-1.83.71-7.25-1.24-20.26.09-26.57-1-5.14.13-11.33.26-16,.29.3-.12,0-.2.9-.16-6.43-.37-4,1.13-11.28.72-3.73-.63,3.89-.34,1.56-.58-1-1.3-8.83.17-13.76-.58l1.19-.08c-3.76-.44-9.18.49-15.33.4,0,0,.3-.12,0-.2C156.9,8,148.93,8.2,143,8.39c1.84-.51,2.68-.27,1.56-.79-2.65.08.78.83-4.52,1-1.72-.28-5.54-.53-6.05-1.08l5,0c-2.56-.71-6.47,0-9.1-.1l.34-.31c-7.66.1-7.76.89-16,.83l.85.24c-4.49.78-3.77-.44-8.25.14l-1.36-.79c-3,.19-10.39.76-15.71.91,3-.58,9.24-.88,13.09-1.23-2.94,0-10,.06-11.52.45a24.85,24.85,0,0,1,3.85-.15A85.49,85.49,0,0,1,81,8.37c.52-.76-3.3-.86-7.78-.91L66.39,7.4c-1.08,0-2.09,0-3,0s-1.63-.06-2.19-.13a92.74,92.74,0,0,0-15.67,4,66.67,66.67,0,0,0-7.81,3.37,57.08,57.08,0,0,0-7.69,4.77c2.15-.8,1.41-.26.31.54s-2.49,2-1.81,2.2c-2.19,1.84-3,2.6-3.23,2.69a70.26,70.26,0,0,0-6.57,5.77c-1.64,1.35,1.6-2.26,1.23-2.24a20.3,20.3,0,0,1-3,3c-.37.22-.62.18-2,1.79.88-.42-.87,2.14-2.93,5.16,1.09-1.35,2.16-2.69,3.33-4a72.65,72.65,0,0,1-4.61,6.92A29.79,29.79,0,0,0,9,44,27,27,0,0,0,7,48.81c.23-.93.45-1.87.74-2.79a76,76,0,0,0-3.4,10.34A34.43,34.43,0,0,0,3.28,67.08c-.21.79-.62,1.85-.55-.19A56.51,56.51,0,0,0,3.81,84.3,108.76,108.76,0,0,0,8.32,99.19c-.2-.21-.42-.43-.61-.65.91,1.86,2,3,2.89,5.44-.17-.06-.65-.6-.23.26.29.47,1.11,1.58,2,2.89s1.9,2.74,2.64,3.88c-.54-.56-1.08-1.13-1.59-1.73A42.13,42.13,0,0,0,22,119.5a94.87,94.87,0,0,0,9.65,7.16c-.27.37,1.28,1.81,3.44,3.35A51.26,51.26,0,0,0,42,134l-.18.05c1.42.7,2.86,1.2,4.22,1.74s2.75,1,4.1,1.27l2,.51c.66.16,1.33.27,2,.4,1.31.28,2.62.44,3.91.61s2.6.24,3.89.36,2.6.09,3.92.11c2.68,0,5.29-.16,8.08-.25,7,1,23.53.4,34.69.94-1.7-.16.28-.69,2.27-.78,2.62.18,7.24-.61,6.82.2h-.93c2,.79,7.36.58,11.56.6l.69-1.06c11,1.54,28.81-.56,34.81.81,2.66-.26,5.94-.26,8.57-.52l-.14.57c7.36.14,11,.21,20.11.08l-1.85.4c5.13,0,6.47-1.63,11.2-1.67l1.42.85c9,0,18,.73,26.83,0-.14.13-.41.37-1.85.4,4.21,0,16.28.58,14.75-.58.11.75,9.23.07,14.06-.26l-.75.55a47.59,47.59,0,0,1,9.89-1.1c1.35.07,1.19.45-.61.3,4.5.3,3.51-.52,9-.23l-2,.36a24,24,0,0,0,6.8-.56c2.91-.23,8.77.14,9.46.64a16.53,16.53,0,0,1,5.88-.57c.37.19-.63.31-1.13.36,7.74.38,11.5-.64,16.82-.1.11.19.46.28.9.34-6.14,0-11.09-.05-10.63-.09,0,.52,5,.61,1,1.32,4-.39,10.79-1.23,15.63-1a3.47,3.47,0,0,1,.64.18l-.5.05a21.62,21.62,0,0,0,3.06-.08c1.54.08,2.52.15,4,.15.58.43,5.69.23,8.17.25-.21-.56,3-.47,0-.93.39,0-.47.07-2.11.09-.38,0-.81,0-1.06.06l.17,0-6.15,0a24.12,24.12,0,0,1,6.73-.22c1.27-.36,2.67-.73,3.46-.91,3.38.79,9.91,1.21,10.82,1.7,7.55-.32,17.8-.21,22.55-1.27a6.91,6.91,0,0,1,3.27.47c-1.24.11-2.71.09-3.38.24,4.29-.27,12.72-.1,13.75-.84,5.41.33-3.05.68,4.39.56l-1,.22c14.63,1.18,23.79-1.88,40-.37a6.92,6.92,0,0,1-1.92-.26c18.5.67,38.12-.62,56.37.44,5.19.21,5.75-.26,8.92-.62l1.12.6,5.42-.69c7.67-.51,13.29,1.48,23,.51l-1.25-.4c3.49.07,11.05-.24,10.47.23a5.22,5.22,0,0,1,2.51-.22l.1.32,8.58-.54c6.65.23-1,1.25,8.66,1.32,3.61-.13,10.27-.92,8.91-1.14-1.45,0-3.71-.19-3.82-.51l3.29-.16c.6-.94,3.14-1.89-5-2.54l-5.64.57-1.82-.45,4.75,0a18.55,18.55,0,0,0-6.31.21,6.65,6.65,0,0,0-2.36-.5l-5.54.89c-.67-.36,2.48-.72-1.24-.92-2.59.41,2.49.81-1.8,1.08-2.7-.42-1.91-.76-5.08-.4-.45-.24.23-.39,1.48-.5-2.82.29-7.46.12-8.92.62-2.81-.53-9.52.13-9.24-.75a55.93,55.93,0,0,1-7.55.73c4.73-1.06-9.7-.06-8.45-1.19-3.5.95-12.64.42-18.85.94a6.36,6.36,0,0,1,1.58-.18c-3.49-.07-4.51-.36-6.75-.54-.45.78-5.88,1-8.82,1.45-4.27-.76,2.6-.92,1.26-1.65.22.64-7.43.63-6,1.16-3.27-.46-2.82-.22-4.5-.87-.58,1-3.05.16-5.77.76-4.73-.48-1.21-.91-6.42-.62C434.94,134.15,439.57,133.81,439.57,133.81ZM315.84,135.5h0l2.56,0Zm-10.4,0,4.51,0c.37.2,0,.4-1.07.39C309.45,135.79,307,135.67,305.44,135.51Zm22,3.9a5.67,5.67,0,0,1-2.43-.15l2.88-.07a1.59,1.59,0,0,0,.2-.07A1.89,1.89,0,0,1,327.44,139.41Z"/><path class="cls-4" d="M330.4,138.67c.23,0,.36,0,.67,0l-1-.13-.58.18Z"/><path class="cls-4" d="M549.17,8.16H549a3.58,3.58,0,0,1,.46.08A1.64,1.64,0,0,1,549.17,8.16Z"/><polygon class="cls-4" points="161.87 134.44 161.89 134.58 162.8 134.45 161.87 134.44"/><path class="cls-4" d="M600.24,29.43a2.67,2.67,0,0,0,.41.63A3.64,3.64,0,0,0,600.24,29.43Z"/><path class="cls-4" d="M613.27,49.75l.54,1.63.46,1.65A28.34,28.34,0,0,0,613.27,49.75Z"/><path class="cls-4" d="M617.27,67.85a1,1,0,0,0,.27.35v0Z"/><path class="cls-4" d="M347.8,11.16l-.74,0C345.34,11.29,346.51,11.25,347.8,11.16Z"/><path class="cls-4" d="M437.79,9.85c-1,.1-1.9.2-2.89.26C436.5,10.15,437.74,10.17,437.79,9.85Z"/><path class="cls-4" d="M247.31,11.84h0Z"/><path class="cls-4" d="M430.71,10.1a30.85,30.85,0,0,0,4.19,0C433.58,10.07,432,10,430.71,10.1Z"/><path class="cls-4" d="M577.17,131.13l-.84.3s0,.08-.07.12Z"/><path class="cls-4" d="M576.26,131.55l-.92.38A3.19,3.19,0,0,0,576.26,131.55Z"/><path class="cls-4" d="M573.41,132.74l1.93-.81A8.42,8.42,0,0,0,573.41,132.74Z"/><path class="cls-4" d="M597.91,118.32,598,118A.35.35,0,0,0,597.91,118.32Z"/><path class="cls-4" d="M603,112.84c-1.2,1.33-3.25,3.08-5,4.86l0,.28C598.66,117,602.16,114.38,603,112.84Z"/><path class="cls-4" d="M618.74,85.5Q618,88.68,617,91.76c.52-1,1.21-2.4.44.48,1.47-3.88,1.17-3.52.91-3.19S617.79,89.65,618.74,85.5Z"/><path class="cls-4" d="M619.82,65.38c.48,3.49.33-.07.45.09C619.79,63.27,619.68,62.75,619.82,65.38Z"/><path class="cls-4" d="M504.32,7.72l.35-.52C502,7.28,504.64,7.4,504.32,7.72Z"/><polygon class="cls-4" points="476.86 10.36 479.44 10.68 480.67 10.21 476.86 10.36"/><polygon class="cls-4" points="460.64 6.72 461.8 6.64 457.37 6.83 460.64 6.72"/><path class="cls-4" d="M219.36,6.9l.8.63C222,7.41,222.33,6.71,219.36,6.9Z"/><path class="cls-4" d="M115.2,7.54a17.61,17.61,0,0,0-5.87-.21C111.67,7.37,114,7.62,115.2,7.54Z"/><polygon class="cls-4" points="134.25 139.49 132.15 139.7 136.1 139.52 134.25 139.49"/></g><g class="cls-3"><path class="cls-4" d="M6.33,81c-.17-.37-.57-.16-.46.84l.68.7Z"/><path class="cls-4" d="M5.46,87.81c.47,1.16,1.19,2.42,1.7,1.59-.75-1.07-.58-1.38-1.42-2.56-.15-1,.08-1.77.34-1.62a3.14,3.14,0,0,1-.12-1,1.85,1.85,0,0,0-.25-1.11,7.17,7.17,0,0,0,.2,4.7C5.81,88.22,5.59,87.88,5.46,87.81Z"/><path class="cls-4" d="M69.14,153.93l-.65-.1A2.87,2.87,0,0,0,69.14,153.93Z"/><path class="cls-4" d="M130.65,154.29c-.46,0-.66.08-.68.14C130.4,154.39,130.76,154.35,130.65,154.29Z"/><path class="cls-4" d="M141.16,155l-.62,0A1.24,1.24,0,0,0,141.16,155Z"/><path class="cls-4" d="M69.14,153.93l1.64.21C70.9,153.92,69.94,154,69.14,153.93Z"/><path class="cls-4" d="M9.68,100.74a7.15,7.15,0,0,0-.41-.79l.29.77A.25.25,0,0,1,9.68,100.74Z"/><path class="cls-4" d="M42.49,147.45,42,147.2l-.5,0Z"/><path class="cls-4" d="M25.67,134.57c.31.36.83.09,1.14.05a1.85,1.85,0,0,1-1-.48A.55.55,0,0,0,25.67,134.57Z"/><path class="cls-4" d="M9,105.85l-.27-.53Z"/><path class="cls-4" d="M56.66,153.09a.45.45,0,0,0,.14.24C56.82,153.26,56.76,153.18,56.66,153.09Z"/><path class="cls-4" d="M612.46,100.84s.07,0,.1,0S612.52,100.7,612.46,100.84Z"/><path class="cls-4" d="M619.15,78l0,.34a1.16,1.16,0,0,0,.31.07Z"/><path class="cls-4" d="M160.38,155.74h-.09C159.79,155.79,160.07,155.78,160.38,155.74Z"/><path class="cls-4" d="M336.83,155.33c-2-.51,3.26-.65.25-1.21C337.36,154.34,334.34,155,336.83,155.33Z"/><path class="cls-4" d="M9.77,101.26l.25.8A5.18,5.18,0,0,0,9.77,101.26Z"/><path class="cls-4" d="M337.08,154.12h0l-.31-.05Z"/><path class="cls-4" d="M204.67,155.4a1.23,1.23,0,0,0-.46-.24C204.23,155.21,204.33,155.28,204.67,155.4Z"/><path class="cls-4" d="M171.67,154.6l.82.08A7.46,7.46,0,0,0,171.67,154.6Z"/><path class="cls-4" d="M221.8,154.61a3.81,3.81,0,0,0,1.2,0l-.19-.06A2,2,0,0,1,221.8,154.61Z"/><path class="cls-4" d="M239.63,154.61a3.21,3.21,0,0,0-.33-.12l-.57,0Z"/><path class="cls-4" d="M581.8,142.28a2.51,2.51,0,0,1,.94,0C582.3,142.07,584.32,140.55,581.8,142.28Z"/><path class="cls-4" d="M9.38,100.84c.17,0,.28.18.39.42q-.11-.29-.21-.54C9.47,100.69,9.39,100.7,9.38,100.84Z"/><path class="cls-4" d="M222.52,150.17l2.83.09C224.56,150.2,223.53,150.17,222.52,150.17Z"/><path class="cls-4" d="M456.9,150.71l.65-.07A1.83,1.83,0,0,0,456.9,150.71Z"/><path class="cls-4" d="M233.76,150.17a6.57,6.57,0,0,0,1.6.39,1.42,1.42,0,0,0,.33-.14Z"/><path class="cls-4" d="M582.75,142.26h0Z"/><path class="cls-4" d="M595.39,129.44c-1.77,1.89-.3,1.38-.36,2.08-2,2.43-1.4.66-2.4,1.16-1.21,1.52-1.87,3-3,4-.16,0-.4.14-.26-.2a15.18,15.18,0,0,1-3,2.87,24.81,24.81,0,0,0-3.32,2.92.65.65,0,0,1-.36,0,1,1,0,0,1,.87.64,13,13,0,0,0-1.24,1c-.37.28-.69.46-1,.37a1.59,1.59,0,0,0,.79-.86c-.31.28-.63.54-.95.82-1.32,0,1.34-1.06,1-1.53-.94.76-2,1.56-3,2.34a15.66,15.66,0,0,1-2.89,1.67c-.63-.43,3.72-2.2,1.27-1.6l1.31-.54,1.29-.62c-2.4.19,1.51-.81-.77-.78-3.29,1.63-3.45,2.3-6.89,3.59-.64.65.47.42-.17,1.07a6.28,6.28,0,0,1-4.44,1,4.6,4.6,0,0,0-3.42.56,9.6,9.6,0,0,1-1.23,1,4.6,4.6,0,0,1-2.69.52c.28-.29.56-.56.82-.88a5.9,5.9,0,0,0-2.75.77c-.5.3-1.06.46-3,.27.66-.32,2.8-.35,2.25-.42-2.44-.53-1.66.51-3.59.54l-.4-.68c-4,.11-8.36.6-12.76.72.24-.2,1-.41,0-.62A131.09,131.09,0,0,1,524,150.2l-2,.59c-.47,0-.88-.26-.37-.38-2.08-.22-.1.37-1.11.61-1.18,0-1.57-.34-.81-.52-3.69.5-10.5,1.07-14.38.45l.75-.18c-3-.24-3.41,1.2-6.21.66l.54-.11c-6.56-.25-13.82.29-18.82-.6-.95.85-6.5-.38-6.92.8-3.74-.58-2.67-.79-7.95-1.19-1.41-.05-2.1.74-3.84.86l0-.61-2.37.64-1.26-.73-1.63.15c.65,0,1.38.28,1.28.46-2.55.28-6.22-.43-6.28-.75l-6,.52c.13-.24,1.14-.33,1.94-.49-3.22.63-.58-.65-3.54-.07.4.14-.21.37-.28.49a32.08,32.08,0,0,0-7.3-.22l.48-.42c-4.48-.11-9.45.2-14.48.19,1.81.2,1.39.94-.08,1l-.59-.65c-1,.4,1.54.24-.41.74-1.88-.08-1.27-.74-.19-1l-2.28.23c-.14-.19.4-.3.54-.54-.94.4-3.94-.66-5.29,0l-.13-.19c-5,0-7.31.22-11.4.25-.08.56-1.68.44-2.9.89-3-.18-6.35-.62-10-.57-2.55.28-.75.48-1.89.81-.19-.51-3.81-.46-1.93-.83-4.35.08-5.56.1-11.06.52.6.21,1.27.3.92.47-1,.09-2.27-.21-2.13-.46l.27-.05c-6.18.77-14.26-1.49-19.18-.43l.28,0-5.1.56c-2.35-.09,1.41-.39-.33-.71-5.5.86-8.69-.12-13.22.45-3.51-1.51-12.45.11-17.18-.86l.27.36c-1.22.35-1.48-.21-2.38-.29.13.28,1.33.32.57.52-10.36.42-21.39-.52-32-.85-3.89-.09-2.21,1.85-7.11,1l1.39-.66c-7.84.79-16,0-23.71.64.46-.15.47-.35,1.22-.35-1.62-.48-6,0-6,.37-1.2,0-.28-.35-1-.55-1.62-.29-4.08.61-4.94.13-.15-.08.45-.15.75-.19-1.06.23-4.94-.06-3.92.49-2.88-.26-5.51.25-7.81-.08-1.5.62-4.93-.3-5.41.58.21-.9-5-.73-6.87-.3.61-.28-1.59-.29-.87-.67-2.08,0-4,.18-3.63.65-3.83-1.08-7.69.87-9.85-.52-6.18.49-11.89.82-17.45,1,.2-.9,6.14-.09,5.91-1-5.28.38-8.32,1.15-13.54.93-1.35-.12.77-.39,1.22-.54-5.26.37-10.18-.09-14.86.41,0-.09.52-.18,1-.25-.92,0-2.14-.13-2,.28l.9-.11c1.48.59-3.67,1.24-3.83,1.56,1.57-1.18-4.63-.3-2.14-1.79-.61.08-1.37.28-1.23.55-.9-.08-1.19-.24-.27-.55-3.31.22-2.14.66-5.13.65,0-.2.61-.28.92-.51a15.78,15.78,0,0,1-5.57.61c.15-.12-.14-.28.61-.28-4.35.06-7.41,1-12.18.66,1.41-.86-1.62-.28-1.88-1l-2.56.22,1,.37c-2.25,0-4.23.53-6.17.28l1.67-.31-4.21.15,2.39.28c-2.28.38.24.94-2.75.74.61-.08-2.25,0-3.42-.45h0a11.14,11.14,0,0,1-3.92.31c-.43-.24.35-.83.07-1-1.1.63-5.27.18-6.66.84.47-.16.49-.55.34-.63l-.92.51c-1-.16-1.19-.24-1-.55-3.13-.1,1,.94-2.72.54a3.58,3.58,0,0,1,.76-.2c-3.73-.21-7.21.32-10.64.07-1-.75,3-.18,1.84-.81-5,.13-10.24.9-15,.72l.9.08c-.67,1.06-3.57-.52-6,0,.59-.08.78-.59.62-.47-3.28-.17-6.7.26-11.67.59l.62-.27c-2-.24-5-.14-7-.48-.62.21-1.78.06-1.12.52a61.61,61.61,0,0,0-8.83-2.12,29,29,0,0,1-4.19-1.12,14.24,14.24,0,0,1-3.73-2c.6.3,1.54.44,1.06.23-1.46-.61-2.94-1.18-4.36-1.92.12.59.41.57,1.14,1.35a8.75,8.75,0,0,1-3-1.11c2.07.79.33-.62-.3-1.35.06.21-.29.17-.3.33-.85-1-1.06-.87-1.39-.76s-.8.2-2.05-1l.29-.1c-.57-.32-1.14-.58-1.71-.87a10.38,10.38,0,0,1-1.64-1.12c-.12-.77,1.24.65,1.57.35a17,17,0,0,0-2.54-1.41,5.51,5.51,0,0,1-2.11-1.76c.73.43,1.63,1.21,2.37,1.62a10.35,10.35,0,0,0-2.34-2.74l.1.11L29.38,134l.49.7a6.64,6.64,0,0,1-3.22-2.16,19.38,19.38,0,0,0-3.25-3.07c2.73,1.87.71.08,1.33-.12-.4-.75-1.05-1.85-.69-1.68-1.37-.87-1.27-2.23-3.14-3.54.1-.19-.91-1.37-.32-1.36-1.25-1.56,0,.58-.31.58a10.16,10.16,0,0,1-1.55-2c-.45-.78-.87-1.63-1.32-2.52a29.62,29.62,0,0,0-3.18-5.5c-2-3.28-2.89-3.69-4.51-6.94-.06-.62.19-.45.46-.12s.55.8.55.8a23,23,0,0,0-1.72-5c.27.3.3-.11.34-.71-.49-1.38-1-.73-1.21-2.69A5.21,5.21,0,0,1,9.27,100c-.31-.81-.66-1.6-1-2.4s-.64-1.64-.93-2.49c.23-.53.74,1,1.09,1.51-.28-1-.68-2.21-1-3.29a5.91,5.91,0,0,0-1-2.27l0,1.31c-.15-.72.39-.45.58.07.69,1.62.28,2.47.1,2.61-.12-.41-.28-.81-.38-1.23-.45.76-.1,2,.38,3.4s1.23,2.84,1.59,4.07c-.37-.26-.76-.52-1.11-.8.46.8,1,1.57,1.44,2.34,0,.61-.36,1.13-.86-.06.16,1.92.79,1.47.9,3.14,0,.19-.07.13-.16,0,.29.54.56,1.09.87,1.63-.29-.28-.45.5-.73-.6a12.94,12.94,0,0,0,1.58,3.73,4.66,4.66,0,0,1,1,2.31l-.17-.23c2.26,4,.74.15,2.91,2.85-.11.92-.15,1.81-.21,2.74l.75.09c.22.42.64,1.25.34,1.23,1.29,1.27.07-.39.95.27.68,2.24,3.61,5,3.14,6,.86.38-1-1.94.7-.19-.42,1.17,1.8,2.13,2.75,4-.81-.15-1.84-1.86-.9.06,1.47.4,2.48,3.22,3.84,4.38.3-.22,1,.41,1.94,1.34a36.34,36.34,0,0,0,3.33,3,10.07,10.07,0,0,0,2.13,2.2l2.09,1.82c.73.58,1.41,1.13,1.94,1.58l-.13.05c.42-.14,1.2.21,2.12.69s2,1.14,2.89,1.55c-.28.34-.7.33-1.77-.08.55.34,1.14.64,1.7,1a7.14,7.14,0,0,1,2.27.72l-.69.27c2.37,1.13,5,1.73,8,3.13.33-.43-2-2.22,1.38-1.39,0,.31,0,.8-.89.6a8.18,8.18,0,0,1,1.63.41c-.5,0-1,0-1.48,0,1.37.68.87-.13,2,.26-.14.37.78.52.53.78a6.5,6.5,0,0,0-1.46-.44,15.57,15.57,0,0,1,3.3,1.53c-.06-.24.13-.51,1.12-.34,2.54.54.77.66,2.24,1.13.67-.17,2.28.39,2.4-.2a1.7,1.7,0,0,1,1.15.55c1.37,0,6.32.25,4.81-.41l-.35-.06.22,0h0c4.35-.53,9,.35,13.28.11v.2c2.56-.23,5.7-.14,7.52-.56.76,0,1.79.36,1.47.6a17.2,17.2,0,0,1,5-.05c-2,.35.68.31-2,.25,2.54.17,3.12.49,5.85,0-.93.51,1.91.64,3.12.49l-1.78-.37c1.36-.07,2.55,0,3.75,0l-.65.66c5.2.81,9.38-1.37,13.34,0,1.38-.46-2.82-.33-1.59-.87,2.39.09,4.88,1,5.63,1,3.28.37,3.06-1,6.49-.72-.44-.24-.85-.87,1.71-1.1,2.4.09,2.94,1,1.43,1.19-.57,0-.85-.06-.82-.14-.78.09-1.79.19-.84.45l.31-.24c1.18.24,4.48.22,3.7.61,1.81-.23.78-.39-.56-.52,3.07.35,4.8,0,8,.25-.51-.14-1-.41-.47-.41,4.64.29,2-.45,5.19-.56,1.78.37-.64.87,2.52.56,1.93.25.41.63-.36.83,2.88-.46,5.38.3,7,.38l-1.52.19a18.8,18.8,0,0,1,2.41-.11l-.87-.47c.89.08,1.65.08,1.63.28.92-.31-.7-.79,1.12-1.21,1.19.24,3.62-.26,4,.37-3.74-.22.41.63-2.75.73a11.27,11.27,0,0,1,2.25,0c.13.07-.13.13-.37.17,3.57.56,1.64-.71,5.35-.7-.47.36.86.68,1.46.6-1.49,0-.71-.59.66-.86,2.37.27,2.58-.21,3.82-.18l-1.42-.13c.48-.35,1.67-.31,3.33-.42.14.28-1.51.19-.92.31,1.84-.62,4.16.65,6.72.23,1.19.24.12.67,1.16.83,2.88-.46,3.11.49,6.14.11-.87-.48-1-.36,1.1-.83l-5,.34,3.19-.7c-1.5,0-3.16.3-4.06.22,1.52-.39,1.36-.27.65-.67,2,.72,4.06-.41,6.43.07l-.07,1.18c3.56.53,6.33-.6,11-.31l-1.49-.2c.62-.47,2.86-.07,4.36-.26-.14.4.8.54,1.43.79-.07-.3,3.39,0,3.81-.77l2.07.52c3.73.22,4.26-1.12,7.85-1-1.08.43.56.71-1.85,1,1.2,0,2.28.08,2.3-.2.7.25,3.32-.53,4.42-.15a3.27,3.27,0,0,1,2-.56c.15.08,0,.2,0,.2,0-.2,2.1-.27.93-.71,3.69,1.24,10.32-.09,13.54,1,2.62-.13,5.77-.26,8.15-.29-.16.12,0,.2-.46.16,3.28.37,2-1.13,5.74-.72,1.91.63-2,.34-.79.58.52,1.3,4.5-.17,7,.58l-.61.08c1.92.44,4.69-.49,7.82-.4,0,0-.15.12,0,.2,2.15-.66,6.2-.88,9.22-1.07-.94.51-1.37.27-.8.79,1.35-.08-.39-.83,2.3-1,.88.28,2.83.53,3.09,1.08l-2.55,0c1.3.71,3.29,0,4.64.1l-.18.31c3.9-.1,4-.89,8.15-.83l-.43-.24c2.29-.78,1.92.44,4.2-.14l.7.79c1.51-.19,5.29-.76,8-.91a50.69,50.69,0,0,1-6.67,1.23c1.5,0,5.09-.06,5.87-.45a6.5,6.5,0,0,1-2,.15,22.72,22.72,0,0,1,7.24-.91c-.52,1.53,7.79.38,10,1.57,5.28-.56,10.48.24,16.64.15-2.19-1.19,1.79,0,1.41-1.25a6.8,6.8,0,0,1,2.11,0l4.35.73c1,.35-1.37.27-1.24.54,3.14.1,1.32.52,3.4.85-.43-.44,1.09-.63,2.88-.46l-2.52-.57c4.38-.65,3.79,1,8.21.38l-1.4.39c2.27-.23,8.37,0,10.59-1,.4.15.93.48-.06.57,5.42.15,12.06-1,16.28-.44l-.41.3c1-.09,1.76-.57,3-.26-.06.12-.4.29.06.31a15.86,15.86,0,0,1,4-.35l-1.14.34c5.28.39,8.11-.82,12.55-1,0,.88,4.14,1.17,6.22,1.31l-.07.13c6.16.11,10.46-.73,16.16-1.08,3.54,1,12,.4,17.68.94-.87-.16.14-.69,1.15-.78,1.34.18,3.69-.61,3.48.2h-.48c1,.79,3.75.58,5.9.6l.35-1.06c5.6,1.54,14.68-.56,17.74.81,1.35-.26,3-.26,4.37-.52l-.08.57c3.75.14,5.62.21,10.25.08l-.94.4c2.61,0,3.3-1.63,5.71-1.67l.72.85c4.56,0,9.17.73,13.67,0-.07.13-.21.37-.94.4,2.14,0,8.29.58,7.51-.58.06.75,4.71.07,7.17-.26l-.39.55a13.23,13.23,0,0,1,5-1.1c.69.07.6.45-.31.3,2.29.3,1.78-.52,4.56-.23l-1,.36a6.51,6.51,0,0,0,3.46-.56c1.48-.23,4.47.14,4.82.64a4.64,4.64,0,0,1,3-.57c.19.19-.32.31-.57.36,3.94.38,5.86-.64,8.57-.1.05.19.23.28.45.34-3.13,0-5.65-.05-5.41-.09,0,.52,2.53.61.52,1.32,2-.39,5.5-1.23,8-1a1.16,1.16,0,0,1,.33.18l-.26.05a5.65,5.65,0,0,0,1.56-.08,18.16,18.16,0,0,0,2,.15c.29.43,2.9.23,4.16.25-.1-.56,1.55-.47,0-.93.2,0-.24.07-1.07.09a3.54,3.54,0,0,0-.54.06l.08,0-3.13,0a6.39,6.39,0,0,1,3.43-.22c.65-.36,1.36-.73,1.76-.91,1.74.78,5,1.24,5.56,1.67,1-.13,2.1-.17,3.2-.34s2.24-.3,3.3-.56a26.06,26.06,0,0,0,2.94-.84,10.15,10.15,0,0,0,2.13-1.14,2.38,2.38,0,0,1,1.77,0c-.59.31-1.34.49-1.65.71,1.07-.37,2.64-1,4-1.46s2.43-1.17,2.54-1.61c2.71-.82-1.18,1.29,2.31-.42L576,150a18.44,18.44,0,0,0,4.87-2.18,34.68,34.68,0,0,0,3.84-3,61.91,61.91,0,0,1,8.36-6.66c-.49.33-.73.49-.9.48a53.7,53.7,0,0,0,10-10.64c2.93-3.95,5.5-8.07,8.21-12,1.47-2.26,1.11-2.78,1.53-4.38l.8-.27.49-2.84a22.88,22.88,0,0,1,2.41-5,14,14,0,0,0,2-6L617,98c.26-.86.57-2.25.83-3.38s.46-2,.66-1.81a1.54,1.54,0,0,1,.07-1.31h.32c.05-1.5.18-3,.15-4.46.32-1.68.62-1.52.92-1.55s.64-.25.84-2.79a15.52,15.52,0,0,0-.38-3.32c-.22-1-.45-1.7-.57-1.35,0,.75-.24,1.91-.56,2l-.12-1.68c-.93-.33-1.85-1.54-2.6,2.42.16.93.25,1.87.38,2.82l-.51.85.14-2.33a5.13,5.13,0,0,0-.06,3.12,2,2,0,0,0-.63,1.1c.19.94.35,1.88.48,2.84-.42.26-.51-1.33-1,.45.2,1.33,1-1.08.93,1.07-.67,1.25-.95.78-.92,2.4-.28.16-.36-.2-.33-.82,0,1.43-.73,3.61-.44,4.44-.85,1.21-1.22,4.59-2,4.17a12.88,12.88,0,0,1-.59,3.78c-.06-1.28-.52-.17-1.06,1.14s-1.27,2.77-1.65,2.27c.23,2-2.29,5.82-3.38,8.74a1.53,1.53,0,0,1,.24-.77,18.78,18.78,0,0,1-2.17,2.6c.54.59-.75,3-1.22,4.45-1.85,1.3,0-1.58-1-1.44.59.26-1.61,3.36-.77,3.08-1.36,1-1,1-2.06,1.24.6.84-.78,1.3-1.2,2.7-1.9,1.47-1.05-.1-2.56,2C594.11,131.34,595.39,129.44,595.39,129.44ZM541.26,151.5h0l1.3,0Zm-5.3,0c.65,0,1.45,0,2.3,0,.19.2,0,.4-.55.39C538,151.79,536.75,151.67,536,151.51Zm11.21,3.9c-.84.08-1.12,0-1.24-.15.4,0,.86,0,1.47-.07,0,0,.08,0,.1-.07A.86.86,0,0,1,547.17,155.41Z"/><path class="cls-4" d="M548.68,154.67a2.66,2.66,0,0,1,.34,0l-.5-.13-.3.18Z"/><path class="cls-4" d="M68.38,153.82h.11a.75.75,0,0,1-.24-.09A.49.49,0,0,1,68.38,153.82Z"/><polygon class="cls-4" points="462.8 150.44 462.81 150.58 463.27 150.45 462.8 150.44"/><path class="cls-4" d="M41.32,143.83a.9.9,0,0,0-.24-.32S41.18,143.68,41.32,143.83Z"/><path class="cls-4" d="M31.47,136.34,30.33,135C30.81,135.6,31.17,136,31.47,136.34Z"/><path class="cls-4" d="M25,129.34a.59.59,0,0,0-.31,0v0Z"/><path class="cls-4" d="M171,150.84l.38,0C172.26,150.71,171.66,150.75,171,150.84Z"/><path class="cls-4" d="M125.15,152.15c.48-.1,1-.2,1.47-.26C125.8,151.85,125.17,151.83,125.15,152.15Z"/><path class="cls-4" d="M222.21,150.16h0Z"/><path class="cls-4" d="M128.75,151.9a8,8,0,0,0-2.13,0A12.63,12.63,0,0,0,128.75,151.9Z"/><path class="cls-4" d="M7.8,92.52l-.06-.46s-.07,0-.1,0Z"/><path class="cls-4" d="M7.64,92l-.15-.48A1.07,1.07,0,0,0,7.64,92Z"/><path class="cls-4" d="M7.18,90.5c.09.35.21.69.31,1A2.5,2.5,0,0,0,7.18,90.5Z"/><path class="cls-4" d="M10.77,104.7l.24.06A.26.26,0,0,0,10.77,104.7Z"/><path class="cls-4" d="M12.2,108.24a35.06,35.06,0,0,0-1-3.42l-.19-.06a4,4,0,0,1,.51,1.67A4.34,4.34,0,0,0,12.2,108.24Z"/><path class="cls-4" d="M17.66,123.68c-.6-.93-1.12-1.9-1.66-2.86.12.61.28,1.41-.56.16C17.13,124.86,15.35,120,17.66,123.68Z"/><path class="cls-4" d="M23.69,132c-1.27-1.27-.23.22-.38.24C24.21,133,24.43,133.12,23.69,132Z"/><path class="cls-4" d="M91.24,154.28l-.17.52C92.42,154.72,91.08,154.6,91.24,154.28Z"/><polygon class="cls-4" points="105.24 151.64 103.92 151.32 103.29 151.79 105.24 151.64"/><polygon class="cls-4" points="113.5 155.28 112.91 155.36 115.17 155.17 113.5 155.28"/><path class="cls-4" d="M236.46,155.1l-.41-.63C235.13,154.59,234.94,155.29,236.46,155.1Z"/><path class="cls-4" d="M289.54,154.46a4.68,4.68,0,0,0,3,.21C291.33,154.63,290.14,154.38,289.54,154.46Z"/><polygon class="cls-4" points="448.72 155.49 447.65 155.7 449.67 155.52 448.72 155.49"/></g><path class="cls-4" d="M122.06,47.84a2.17,2.17,0,0,1,0,4.34h-3.54a.28.28,0,0,0-.32.28c-.16,2.39-.26,3.67-.28,3.83s.06.27.28.27h2.15a2,2,0,0,1,1.49.64,2.12,2.12,0,0,1,.62,1.52,2.12,2.12,0,0,1-2.11,2.11h-2.63a.31.31,0,0,0-.36.28,8.19,8.19,0,0,1-1,3.1,4.47,4.47,0,0,1-1.47,1.34,6,6,0,0,1-1.91.58,21.78,21.78,0,0,1-2.83.16h-.72a2,2,0,0,1-1.41-.58,3.36,3.36,0,0,1-.9-1.42,1.29,1.29,0,0,1,.18-1.17,1.08,1.08,0,0,1,1-.5c.58,0,1.11,0,1.59,0h.72a2.36,2.36,0,0,0,.85-.12,1.38,1.38,0,0,0,.58-.52,6.26,6.26,0,0,0,.4-.91.2.2,0,0,0,0-.2.19.19,0,0,0-.18-.08H95.76c-.13,0-.21.05-.23.16A1.49,1.49,0,0,1,95,62a1.53,1.53,0,0,1-1.12.34l-1.11-.08a2.09,2.09,0,0,1-2-2,2.71,2.71,0,0,1,0-.4c.46-2.47.85-4.93,1.2-7.37,0-.19,0-.28-.24-.28H88.59a2.17,2.17,0,0,1,0-4.34h3.79a.31.31,0,0,0,.36-.28c.34-2.79.57-4.81.67-6.06a.1.1,0,0,0-.06-.1.12.12,0,0,0-.1,0c-.26.35-.54.69-.83,1a2.35,2.35,0,0,1-1.64.84,1.6,1.6,0,0,1-.27,0A2.62,2.62,0,0,1,89,42.86a5.28,5.28,0,0,0-.68-.44,1.75,1.75,0,0,1-.79-1.36v-.19A1.84,1.84,0,0,1,88,39.59a36.43,36.43,0,0,0,6.54-9.52,2.63,2.63,0,0,1,1.35-1.32A2.68,2.68,0,0,1,97,28.47a3.53,3.53,0,0,1,.72.08l.55.16a2.06,2.06,0,0,1,1.32,1.12,1.7,1.7,0,0,1,0,1.67c-.11.22-.21.44-.32.68a.15.15,0,0,0,0,.16.17.17,0,0,0,.16.08h21a2.17,2.17,0,0,1,0,4.34H96.88a.5.5,0,0,0-.44.24c-.29.48-.76,1.17-1.39,2.07a.15.15,0,0,0,0,.16.11.11,0,0,0,.12.08h21.15A2.17,2.17,0,0,1,118,40a2,2,0,0,1,.67,1.55c0,.43-.07,2.42-.23,6,0,.19.09.28.27.28ZM101.3,53.18a1.39,1.39,0,0,1,.44-1s0-.06,0-.1,0-.06-.08-.06H97.24a.32.32,0,0,0-.36.28c0,.19-.11.77-.26,1.75s-.26,1.73-.34,2.24q0,.27.24.27h8.33a.1.1,0,0,0,.1-.06.12.12,0,0,0,0-.1,30.42,30.42,0,0,0-2.87-1.91,1.45,1.45,0,0,1-.76-1.07v-.24Zm.56-8.45a1.41,1.41,0,0,1,.44-1,.11.11,0,0,0,0-.1s0-.05-.1-.05H98.31a.28.28,0,0,0-.31.27c-.08.46-.18,1.11-.28,2l-.24,1.89c0,.18.06.28.28.28h7.53s0,0,.08-.06,0-.07,0-.1a29,29,0,0,0-2.71-1.75,1.45,1.45,0,0,1-.76-1.08v-.28ZM109,55.33a1.55,1.55,0,0,1-.44,1.11.09.09,0,0,0,0,.08.07.07,0,0,0,.06,0h4.27c.21,0,.32-.09.32-.27q.19-3.19.24-4c0-.18-.07-.28-.28-.28h-7.85s-.05,0-.06.06,0,.06,0,.06a26.76,26.76,0,0,1,3.18,2,1.32,1.32,0,0,1,.56,1.16Zm.4-8.57a1.4,1.4,0,0,1-.48,1.08.19.19,0,0,0,0,.12.13.13,0,0,0,.1,0h4.31c.21,0,.31-.1.31-.28.06-.88.11-2.17.16-3.87,0-.18-.1-.27-.31-.27h-7.65c-.06,0-.09,0-.1.05s0,.06.06.06a28.68,28.68,0,0,1,3,1.88,1.33,1.33,0,0,1,.6,1.19ZM163.06,46a2.39,2.39,0,0,1-2.35,2.35h-11a.16.16,0,0,0-.14.08.15.15,0,0,0,0,.16A20.47,20.47,0,0,0,163.18,61a1.46,1.46,0,0,1,1,1,2.06,2.06,0,0,1,.08.52,1.58,1.58,0,0,1-.32.92,8.93,8.93,0,0,0-.6.91,3.23,3.23,0,0,1-1.55,1.24,2.66,2.66,0,0,1-1.92,0,23.11,23.11,0,0,1-8-4.66,25.37,25.37,0,0,1-5.43-7.37.12.12,0,0,0-.12-.08.11.11,0,0,0-.12.08q-3.56,8.16-14.11,12a2.67,2.67,0,0,1-.87.16,2.54,2.54,0,0,1-1-.2,3.14,3.14,0,0,1-1.55-1.24c-.11-.16-.22-.31-.32-.47a1.74,1.74,0,0,1-.32-1,3.28,3.28,0,0,1,0-.52,1.54,1.54,0,0,1,1-1.07q10.88-3.87,13.19-12.63a.18.18,0,0,0,0-.2.24.24,0,0,0-.2-.08H131.62A2.39,2.39,0,0,1,129.27,46v-.28a2.34,2.34,0,0,1,2.35-2.35h11.24c.19,0,.28-.11.28-.32V36.16c0-.21-.09-.31-.28-.31H130.35a2.28,2.28,0,0,1-1.65-.68,2.23,2.23,0,0,1-.7-1.68v-.31a2.37,2.37,0,0,1,2.35-2.35h31.48a2.37,2.37,0,0,1,2.35,2.35v.31a2.26,2.26,0,0,1-.7,1.68,2.31,2.31,0,0,1-1.65.68H148.6c-.22,0-.32.1-.32.31V43a.28.28,0,0,0,.32.32h12.11a2.27,2.27,0,0,1,1.65.67,2.24,2.24,0,0,1,.7,1.68ZM196,51a34.94,34.94,0,0,0,2.47-3.31h0A2.89,2.89,0,0,1,200,46.48a2.82,2.82,0,0,1,.83-.12,2.62,2.62,0,0,1,1,.2,1.89,1.89,0,0,1,1.15,1.24,2,2,0,0,1,.12.64,1.77,1.77,0,0,1-.32,1,38.21,38.21,0,0,1-5.37,6.74.38.38,0,0,0-.08.47q1.71,4.74,3.46,4.74c.69,0,1.17-1.47,1.44-4.42a1,1,0,0,1,.67-1,1.34,1.34,0,0,1,.52-.12,1.15,1.15,0,0,1,.72.28.42.42,0,0,1,.16.12,3.94,3.94,0,0,1,1.39,1.51,2.9,2.9,0,0,1,.4,1.43,2.59,2.59,0,0,1,0,.48q-.63,3.82-1.91,5.22a4.88,4.88,0,0,1-3.79,1.4q-4.09,0-6.89-6.18c-.08-.19-.2-.21-.36-.08a40.5,40.5,0,0,1-5.26,3.67,2.58,2.58,0,0,1-1.23.31A2.16,2.16,0,0,1,186,64a2.81,2.81,0,0,1-1.59-1,2.32,2.32,0,0,1-.24-.28,1.75,1.75,0,0,1-.44-1.16,1.56,1.56,0,0,1,0-.35,1.58,1.58,0,0,1,.88-1.24,39.85,39.85,0,0,0,6.77-4.54.41.41,0,0,0,.16-.48,78.3,78.3,0,0,1-2-10.32.29.29,0,0,0-.32-.32h-7.69c-.19,0-.28.11-.28.32v4c0,.21.09.3.28.27l3.82-.71a1.87,1.87,0,0,1,.4,0,1.72,1.72,0,0,1,1.16.44,1.85,1.85,0,0,1,.79,1.43v.2a2.44,2.44,0,0,1-2,2.43l-4.18.84a.33.33,0,0,0-.28.35v6.7a7.56,7.56,0,0,1-.5,3.07A3.52,3.52,0,0,1,179,65.29a14.24,14.24,0,0,1-5,.92h-.12a2.6,2.6,0,0,1-1.68-.64,3.66,3.66,0,0,1-1.15-1.63,3.26,3.26,0,0,0-.2-.48,2.23,2.23,0,0,1-.08-.56,1.43,1.43,0,0,1,.28-.84,1.35,1.35,0,0,1,1.19-.67h1.12c.8,0,1.45,0,2,0a1.28,1.28,0,0,0,.78-.18.84.84,0,0,0,.22-.66V54.89c0-.21-.1-.29-.28-.24s-.88.16-2.07.4-2.09.43-2.67.56a3.88,3.88,0,0,1-.48,0,2.39,2.39,0,0,1-1.31-.4,2.2,2.2,0,0,1-1-1.48l-.08-.31a2.23,2.23,0,0,1-.08-.56,2,2,0,0,1,.36-1.16,2.17,2.17,0,0,1,1.47-1l5.86-1a.36.36,0,0,0,.32-.36V44.61a.29.29,0,0,0-.32-.32H171a2.31,2.31,0,0,1-1.63-3.94,2.22,2.22,0,0,1,1.63-.68h5.1c.21,0,.32-.09.32-.28V35.33c0-.19-.11-.27-.32-.24l-4.06.6h-.32a2.39,2.39,0,0,1-1.36-.44,2.59,2.59,0,0,1-1-1.4,1.64,1.64,0,0,1,.12-1.47,1.56,1.56,0,0,1,1.19-.84,112.37,112.37,0,0,0,11.79-2.43,3.22,3.22,0,0,1,1-.16,3.92,3.92,0,0,1,1.08.16,3.2,3.2,0,0,1,1.67,1.16l.36.44a1.47,1.47,0,0,1,.36.95,2.06,2.06,0,0,1-.08.52,1.49,1.49,0,0,1-1.08,1c-1.22.31-2.59.63-4.1,1a.31.31,0,0,0-.28.36v4.9a.24.24,0,0,0,.28.28h7.25a.24.24,0,0,0,.28-.28q-.44-5-.44-8.6a2.19,2.19,0,0,1,.68-1.6,2.22,2.22,0,0,1,1.63-.68h.4a2.22,2.22,0,0,1,1.63.68,2.44,2.44,0,0,1,.72,1.67c0,2.79.13,5.64.4,8.53,0,.19.1.28.32.28h8.48a2.24,2.24,0,0,1,1.64.68,2.31,2.31,0,0,1-1.64,3.94h-8c-.19,0-.27.11-.24.32q.43,3.35,1.07,6.3c0,.05,0,.08.1.1A.12.12,0,0,0,196,51Zm4.5-20.16a33.82,33.82,0,0,1,3,3.1,2,2,0,0,1,.52,1.32,1.87,1.87,0,0,1,0,.4,2.2,2.2,0,0,1-1,1.51l0,0a2.2,2.2,0,0,1-1.27.4,2.59,2.59,0,0,1-.48,0,2.54,2.54,0,0,1-1.51-1,31.18,31.18,0,0,0-2.87-3.26,1.73,1.73,0,0,1-.52-1.28,1.66,1.66,0,0,1,.76-1.47A2.63,2.63,0,0,1,198.6,30h.2a2.61,2.61,0,0,1,1.67.76Zm28.81-.48A2.25,2.25,0,0,1,231,31a2.28,2.28,0,0,1,.68,1.66V43.5a2.24,2.24,0,0,1-.68,1.67,2.28,2.28,0,0,1-1.67.68h-4.34c-.22,0-.32.1-.32.31V63.9a2.25,2.25,0,0,1-2.23,2.23,2.24,2.24,0,0,1-2.23-2.23V30.67s0,0-.06,0-.06,0-.06,0c-.83,2.33-1.69,4.5-2.59,6.49a1.53,1.53,0,0,0-.12.6V63.9a2.31,2.31,0,1,1-4.62,0V46.12a.08.08,0,0,0-.06-.09.08.08,0,0,0-.1,0c-.3.45-.59.87-.88,1.27a1.21,1.21,0,0,1-1,.52.67.67,0,0,1-.24,0,1.36,1.36,0,0,1-1.11-.84c-.13-.32-.27-.62-.4-.91a4,4,0,0,1-.36-1.64,2.85,2.85,0,0,1,0-.4,3.48,3.48,0,0,1,.72-1.91,45.84,45.84,0,0,0,5.9-11.67,2.46,2.46,0,0,1,2.27-1.68,1.85,1.85,0,0,1,.67.12l1.56.44a.67.67,0,0,1,.46.36.65.65,0,0,1,0,.56c0,.05,0,.08.08.08Zm-1.31,4c0-.21-.1-.32-.28-.32h-2.75a.28.28,0,0,0-.32.32V36c0,.19.1.28.32.28h2.75A.25.25,0,0,0,228,36Zm-3.35,7.57a.28.28,0,0,0,.32.32h2.75c.18,0,.28-.11.28-.32V40.07a.25.25,0,0,0-.28-.28h-2.75c-.22,0-.32.09-.32.28Zm18.65-11.55h0a2.37,2.37,0,0,1,2.35,2.35V60.59a7.71,7.71,0,0,1-.5,3.11,3.19,3.19,0,0,1-1.73,1.59,16.35,16.35,0,0,1-5.74.84h0a2.71,2.71,0,0,1-1.72-.6,3.66,3.66,0,0,1-1.15-1.63l-.08-.24a2.23,2.23,0,0,1-.08-.56,1.49,1.49,0,0,1,.28-.88,1.42,1.42,0,0,1,1.23-.64H238c.74,0,1.38,0,1.91,0a1.29,1.29,0,0,0,.84-.21,1,1,0,0,0,.24-.78V46.16a.28.28,0,0,0-.32-.31h-4.82a2.32,2.32,0,0,1-1.66-.68,2.26,2.26,0,0,1-.7-1.67V32.66a2.37,2.37,0,0,1,2.36-2.35Zm-2.31,4a.29.29,0,0,0-.32-.32h-3c-.19,0-.28.11-.28.32V36a.24.24,0,0,0,.28.28h3c.21,0,.32-.09.32-.28Zm-3.63,7.57c0,.21.09.32.28.32h3a.29.29,0,0,0,.32-.32V40.07c0-.19-.11-.28-.32-.28h-3a.24.24,0,0,0-.28.28Zm49.53,6.66a2.39,2.39,0,0,1-2.36,2.35H273a.15.15,0,0,0-.16.08.23.23,0,0,0,0,.2q3.94,7.37,13,9.92a1.46,1.46,0,0,1,1,1,1.59,1.59,0,0,1,.07.48,1.39,1.39,0,0,1-.31.88l-.56.79a3.48,3.48,0,0,1-1.52,1.28,2.7,2.7,0,0,1-1.07.24,2.59,2.59,0,0,1-.84-.16,24.49,24.49,0,0,1-8.17-4.52,24.24,24.24,0,0,1-5.61-7.24.15.15,0,0,0-.14-.07c-.07,0-.12,0-.14.07a20,20,0,0,1-5,6.68,27.5,27.5,0,0,1-8.79,4.92,2.44,2.44,0,0,1-.88.16,3,3,0,0,1-1-.16,3.21,3.21,0,0,1-1.56-1.24,4.76,4.76,0,0,1-.35-.47,1.58,1.58,0,0,1-.32-1,2.59,2.59,0,0,1,0-.48,1.54,1.54,0,0,1,1-1.07q9.21-3.31,12.28-10a.28.28,0,0,0,0-.18.15.15,0,0,0-.16-.1H252.51a2.39,2.39,0,0,1-2.35-2.35v-.2A2.37,2.37,0,0,1,252.51,46h12.63a.3.3,0,0,0,.32-.28,35.87,35.87,0,0,0,.28-4.63V39.83c0-.21-.1-.32-.28-.32h-7.25a.47.47,0,0,0-.44.28A33.66,33.66,0,0,1,256,42.94a2.25,2.25,0,0,1-1.52,1,3.2,3.2,0,0,1-.52,0,2.7,2.7,0,0,1-1.35-.36,4.48,4.48,0,0,0-.6-.35A1.83,1.83,0,0,1,251,42a2.32,2.32,0,0,1,0-.44,2.15,2.15,0,0,1,.35-1.15,31.61,31.61,0,0,0,4.51-9.53A2.67,2.67,0,0,1,257,29.39a2.37,2.37,0,0,1,1.24-.36,5.46,5.46,0,0,1,.56,0l.51.12a2.06,2.06,0,0,1,1.44,1,2,2,0,0,1,.32,1.07,1.77,1.77,0,0,1-.12.64c-.24.77-.5,1.55-.76,2.35a.2.2,0,0,0,0,.2.22.22,0,0,0,.18.08h5.06a.25.25,0,0,0,.28-.28V30.51a2.23,2.23,0,0,1,.7-1.68,2.27,2.27,0,0,1,1.65-.67h.4a2.31,2.31,0,0,1,2.35,2.35v3.78c0,.19.1.28.32.28H281a2.39,2.39,0,0,1,2.35,2.35v.24A2.36,2.36,0,0,1,281,39.51h-9.88a.28.28,0,0,0-.32.32v1.23a45.7,45.7,0,0,1-.2,4.63c0,.18.06.28.28.28H284.5a2.37,2.37,0,0,1,2.36,2.35Zm41-1.8a2.36,2.36,0,0,1-2.35,2.35H308.93a.42.42,0,0,0-.4.28q-2.23,5.22-4.62,9.68a.2.2,0,0,0,0,.2.15.15,0,0,0,.14.08q2.58-.12,7.65-.4c3.37-.18,5.44-.29,6.21-.31a.13.13,0,0,0,.12-.1.19.19,0,0,0,0-.18c-.74-1.06-1.54-2.15-2.39-3.27a1.66,1.66,0,0,1-.32-1.59,1.69,1.69,0,0,1,1-1.2l.32-.16a3,3,0,0,1,1.23-.28,3.53,3.53,0,0,1,.72.08,3.11,3.11,0,0,1,1.71,1,65.22,65.22,0,0,1,6.3,9.12,2.08,2.08,0,0,1,.32,1.08,2.45,2.45,0,0,1-1.28,2.07l-.71.36a2.23,2.23,0,0,1-1,.24,2.66,2.66,0,0,1-.76-.12,2.32,2.32,0,0,1-1.35-1.16l-.52-1a.4.4,0,0,0-.44-.24q-12.8.87-25.54,1.51h-.12a2.54,2.54,0,0,1-1.63-.56,2.42,2.42,0,0,1-.88-1.63l-.08-.48a1.65,1.65,0,0,1,0-.32,2,2,0,0,1,.52-1.35,2.06,2.06,0,0,1,1.55-.76l3.19-.16a.5.5,0,0,0,.44-.24,74,74,0,0,0,4-10c0-.05,0-.11,0-.18a.26.26,0,0,0-.19-.1h-8.93a2.37,2.37,0,0,1-2.35-2.35v-.2a2.39,2.39,0,0,1,2.35-2.35h13.07a.25.25,0,0,0,.28-.28V38.67a.25.25,0,0,0-.28-.27h-10A2.37,2.37,0,0,1,294,36v-.15a2.25,2.25,0,0,1,.69-1.68,2.32,2.32,0,0,1,1.66-.68h10c.18,0,.28-.1.28-.31V30.51a2.23,2.23,0,0,1,.7-1.68,2.27,2.27,0,0,1,1.65-.67h.4a2.31,2.31,0,0,1,2.35,2.35v2.71c0,.21.1.31.32.31h10.63A2.32,2.32,0,0,1,325,35.89V36a2.32,2.32,0,0,1-.68,1.66,2.26,2.26,0,0,1-1.68.7H312c-.22,0-.32.09-.32.27v5.22c0,.19.1.28.32.28h13.58a2.3,2.3,0,0,1,1.66.7,2.27,2.27,0,0,1,.69,1.65Z"/><path class="cls-4" d="M341,63.26a14,14,0,0,1-8.44-2.59,2,2,0,0,1-.88-1.6.93.93,0,0,1,0-.27,2.47,2.47,0,0,1,.52-1.56l0,0a2,2,0,0,1,1.47-.83h.28a2.51,2.51,0,0,1,1.44.43,8.36,8.36,0,0,0,4.82,1.56,5.24,5.24,0,0,0,3.88-1.46,5.52,5.52,0,0,0,1.46-4.08,5.58,5.58,0,0,0-1.38-4,4.94,4.94,0,0,0-3.72-1.43,6.48,6.48,0,0,0-3.11.76,3.13,3.13,0,0,1-1.4.36,2.53,2.53,0,0,1-1.39-.44,2.63,2.63,0,0,1-1.28-2.31v-.2l.6-10.68a2.48,2.48,0,0,1,.8-1.67,2.38,2.38,0,0,1,1.71-.68h11.44a2.39,2.39,0,0,1,2.35,2.35v.32a2.26,2.26,0,0,1-.7,1.67,2.31,2.31,0,0,1-1.65.68h-8.33c-.19,0-.29.1-.32.32l-.52,5.78a.21.21,0,0,0,.08.17.14.14,0,0,0,.16,0,8,8,0,0,1,3.35-.75,9.39,9.39,0,0,1,6.69,2.45c1.76,1.63,2.63,4,2.63,7.15A10.84,10.84,0,0,1,350,58.38,9.69,9.69,0,0,1,346.16,62,11.22,11.22,0,0,1,341,63.26Z"/><path class="cls-4" d="M355.75,41.82a43.07,43.07,0,0,0,6.05-11.35,2.45,2.45,0,0,1,1.24-1.4,2.28,2.28,0,0,1,1.07-.28,2.52,2.52,0,0,1,.72.12,2.06,2.06,0,0,1,1.32,1.16,2.11,2.11,0,0,1,.23.95,3.09,3.09,0,0,1-.11.8c-.7,1.81-1.45,3.56-2.28,5.26a1.53,1.53,0,0,0-.12.6V64a2.31,2.31,0,0,1-4.62,0V45.69s0,0-.06-.06a.08.08,0,0,0-.1,0c-.37.53-.73,1-1.07,1.43a1.21,1.21,0,0,1-1,.52.67.67,0,0,1-.24,0,1.26,1.26,0,0,1-1.07-.84c-.14-.34-.27-.66-.4-.95a3.63,3.63,0,0,1-.36-1.56,2.59,2.59,0,0,1,0-.48,3.77,3.77,0,0,1,.76-1.91Zm11.87-9.24a2.24,2.24,0,0,1,.7-1.68,2.27,2.27,0,0,1,1.65-.67h19.68a2.31,2.31,0,0,1,1.66.67,2.27,2.27,0,0,1,.69,1.68v31a2.23,2.23,0,0,1-.67,1.63,2.26,2.26,0,0,1-1.64.68h-.55a1.78,1.78,0,0,1-1.76-1.8c0-.13-.08-.19-.24-.19H372.28a.21.21,0,0,0-.24.23,2,2,0,0,1-.62,1.5,2,2,0,0,1-1.49.62h-.12a2.16,2.16,0,0,1-1.53-.64,2.09,2.09,0,0,1-.66-1.56ZM372,59.35a.25.25,0,0,0,.28.28h14.74c.22,0,.32-.09.32-.28V34.73a.28.28,0,0,0-.32-.32H372.32c-.18,0-.28.11-.28.32Zm12.63-19.92a1.69,1.69,0,0,1,1.24.52,1.71,1.71,0,0,1,.52,1.25,1.66,1.66,0,0,1-.52,1.24,1.75,1.75,0,0,1-1.24.5H381.8c-.21,0-.31.1-.31.32v2.9c0,.19.1.28.31.28h1.28a2.39,2.39,0,0,1,2.35,2.35v6.26a2.39,2.39,0,0,1-2.35,2.35h-6.61a2.39,2.39,0,0,1-2.36-2.35V48.79a2.39,2.39,0,0,1,2.36-2.35h1a.24.24,0,0,0,.28-.28v-2.9c0-.22-.09-.32-.28-.32h-2.67a1.71,1.71,0,0,1-1.23-.5A1.62,1.62,0,0,1,373,41.2a1.68,1.68,0,0,1,.52-1.25,1.65,1.65,0,0,1,1.23-.52h2.67a.24.24,0,0,0,.28-.28v-2a1.77,1.77,0,0,1,.56-1.33,1.83,1.83,0,0,1,1.33-.54,1.84,1.84,0,0,1,1.86,1.87v2c0,.19.1.28.31.28Zm-3.18,14.66c.21,0,.31-.1.31-.32V50.11a.28.28,0,0,0-.31-.32h-3.55a.29.29,0,0,0-.32.32v3.66a.28.28,0,0,0,.32.32Zm30-8.44h0a2.59,2.59,0,0,1-.54,1.83,2.49,2.49,0,0,1-1.61,1l-3,.59a.29.29,0,0,0-.28.32V60.87a8.76,8.76,0,0,1-.38,2.87,2.92,2.92,0,0,1-1.37,1.59,9.32,9.32,0,0,1-3.63.84.54.54,0,0,1-.2,0,2.36,2.36,0,0,1-1.55-.6A3.38,3.38,0,0,1,397.82,64a2.64,2.64,0,0,0-.12-.4,2.23,2.23,0,0,1-.08-.56,1.58,1.58,0,0,1,1.56-1.56h.43a10.73,10.73,0,0,0,1.16,0,.8.8,0,0,0,.5-.11.64.64,0,0,0,.14-.48V50.23c0-.21-.1-.29-.28-.24-.69.11-1.45.24-2.27.4a2.59,2.59,0,0,1-.48,0,2.25,2.25,0,0,1-1.28-.4,2.19,2.19,0,0,1-1-1.51l0,0a2.59,2.59,0,0,1,0-.48,2.19,2.19,0,0,1,1.91-2.15l3.19-.52a.32.32,0,0,0,.28-.36V40.43a1.23,1.23,0,0,1,1.23-1.24.26.26,0,0,0,.24-.12,29.31,29.31,0,0,0,2.67-3.9.15.15,0,0,0,0-.16.17.17,0,0,0-.16-.08h-6.17a2.2,2.2,0,0,1-1.62-.66,2.26,2.26,0,0,1,0-3.19,2.23,2.23,0,0,1,1.62-.65h9.28a1,1,0,0,0,.24,0,1.69,1.69,0,0,1,.6-.12,1.53,1.53,0,0,1,1,.32L412,31.74a1.3,1.3,0,0,1,.51.76,1.21,1.21,0,0,1-.12.91c-.05.08,0,.12.08.12h7.06a.28.28,0,0,0,.32-.31V30.51a2.29,2.29,0,0,1,2.35-2.35h.12a2.3,2.3,0,0,1,1.65.67,2.26,2.26,0,0,1,.7,1.68v2.71c0,.21.09.31.28.31h6.41a2.19,2.19,0,0,1,2.19,2.2,2.08,2.08,0,0,1-.64,1.55,2.12,2.12,0,0,1-1.55.64h-9s0,0,0,.08a.77.77,0,0,1,.45.55.8.8,0,0,1-.14.72,57.29,57.29,0,0,1-4.18,5.06.24.24,0,0,0,0,.4c.45.4,1.06,1,1.83,1.67a.27.27,0,0,0,.44,0,29.48,29.48,0,0,0,4.19-4.62,3,3,0,0,1,1.55-1.15,3.28,3.28,0,0,1,.88-.12,2.69,2.69,0,0,1,1,.2A1.93,1.93,0,0,1,429.46,42a2.16,2.16,0,0,1,.08.56,1.71,1.71,0,0,1-.36,1,40.78,40.78,0,0,1-15.06,12.55,3.2,3.2,0,0,1-1.2.23,2.81,2.81,0,0,1-2.35-1.15,1.68,1.68,0,0,1-.4-1.08,2.81,2.81,0,0,1,0-.36,1.48,1.48,0,0,1,.92-1.15,40.1,40.1,0,0,0,5.22-2.91c.16-.1.17-.22,0-.36a62.05,62.05,0,0,0-4.66-4.26.15.15,0,0,0-.16,0,.12.12,0,0,0-.08.12Zm-.68-9.76A46,46,0,0,1,406.27,42a.81.81,0,0,0-.2.52v1.75c0,.19.09.27.28.24l4-.68a.65.65,0,0,0,.48-.27L412.21,42a1.79,1.79,0,0,1,1.19-.64h.24a1.89,1.89,0,0,1,1.08.36.17.17,0,0,0,.27,0c1.09-1.38,2-2.55,2.59-3.5a.19.19,0,0,0,0-.18.15.15,0,0,0-.16-.1H413a2,2,0,0,1-1.45-.58,1.92,1.92,0,0,1-.58-1.42s0,0-.06-.05a.08.08,0,0,0-.1,0ZM427.7,49.83a3.19,3.19,0,0,1,1.6-1.08,3.53,3.53,0,0,1,.72-.08,2.89,2.89,0,0,1,1.15.24,1.94,1.94,0,0,1,1.08,1.28,2.06,2.06,0,0,1,.08.52,1.8,1.8,0,0,1-.4,1.11,38.13,38.13,0,0,1-4.23,4.58c-.16.14-.16.27,0,.4a42.81,42.81,0,0,1,5,4.31,2,2,0,0,1,.64,1.47,2.31,2.31,0,0,1-.83,1.83l-.48.4a2.27,2.27,0,0,1-1.48.52h-.24a2.4,2.4,0,0,1-1.59-.8,51.13,51.13,0,0,0-4.86-4.62.34.34,0,0,0-.48,0,52.7,52.7,0,0,1-9.36,5.3,2.46,2.46,0,0,1-1,.24,2.43,2.43,0,0,1-.87-.16,3.27,3.27,0,0,1-1.56-1.16l-.24-.27a1.71,1.71,0,0,1-.36-1,3.77,3.77,0,0,1,0-.44,1.54,1.54,0,0,1,1-1.07,48.46,48.46,0,0,0,9.46-4.93A31.27,31.27,0,0,0,427.7,49.83ZM472.09,45h0a2.39,2.39,0,0,1,2.35,2.35v.16a2.39,2.39,0,0,1-2.35,2.35H458.58c-.18,0-.28.11-.28.32v9.48a7.25,7.25,0,0,1-.57,3.25,3.65,3.65,0,0,1-2,1.65,19.68,19.68,0,0,1-6.13.84h-.08a2.83,2.83,0,0,1-1.75-.6,3.79,3.79,0,0,1-1.24-1.63,4.61,4.61,0,0,0-.28-.68,1.77,1.77,0,0,1-.12-.64,1.43,1.43,0,0,1,.24-.75,1.28,1.28,0,0,1,1.16-.64h0c1.35,0,2.87,0,4.54,0a1.54,1.54,0,0,0,.92-.2.92.92,0,0,0,.23-.72v-9.4a.28.28,0,0,0-.31-.32H439.38A2.37,2.37,0,0,1,437,47.52v-.16A2.37,2.37,0,0,1,439.38,45h13.55a.28.28,0,0,0,.31-.32v-4a2.12,2.12,0,0,1,2.12-2.12,1.26,1.26,0,0,0,.51-.11,53.43,53.43,0,0,0,5.34-3.75c.06,0,.07-.07,0-.12a.12.12,0,0,0-.12-.08H443.64a2.39,2.39,0,0,1-2.35-2.35v-.08a2.39,2.39,0,0,1,2.35-2.35h22.75a.67.67,0,0,0,.24,0,3.28,3.28,0,0,1,.52,0,2.1,2.1,0,0,1,1.27.44l1.08.79a2,2,0,0,1,.8,1.64,1.9,1.9,0,0,1-.6,1.39,58.75,58.75,0,0,1-11.16,8.37.5.5,0,0,0-.24.44v2c0,.21.1.32.28.32Z"/><path class="cls-4" d="M218.94,102.17a1.59,1.59,0,0,1-1.14-.47,1.58,1.58,0,0,1,0-2.29,1.58,1.58,0,0,1,1.14-.46h24.31a1.58,1.58,0,0,1,1.14.46,1.61,1.61,0,0,1,0,2.29,1.59,1.59,0,0,1-1.14.47Z"/><path class="cls-4" d="M249.79,102.17a1.59,1.59,0,0,1-1.15-.47,1.61,1.61,0,0,1,0-2.29,1.58,1.58,0,0,1,1.15-.46h24.3a1.6,1.6,0,0,1,1.15.46,1.61,1.61,0,0,1,0,2.29,1.61,1.61,0,0,1-1.15.47Z"/><path class="cls-4" d="M296.44,83.07h0a3.62,3.62,0,0,1,2.92-1.49A4,4,0,0,1,302.41,83,24.75,24.75,0,0,0,309,88a1.6,1.6,0,0,1,.87,1,2.18,2.18,0,0,1,.06.49,1.58,1.58,0,0,1-.26.87,2.32,2.32,0,0,1-.14.23,2,2,0,0,1-1.19.93,2.49,2.49,0,0,1-.53.07,1.73,1.73,0,0,1-.93-.27,22.73,22.73,0,0,1-2.33-1.59h-.08s-.05,0-.05,0a1.24,1.24,0,0,1-.38.93,1.26,1.26,0,0,1-.91.37h-7.31a1.14,1.14,0,0,1-.8-.32,1,1,0,0,1-.33-.78.05.05,0,0,0,0-.05h-.07a28.85,28.85,0,0,1-2.65,1.86,1.71,1.71,0,0,1-.83.23,1.35,1.35,0,0,1-.5-.1,2,2,0,0,1-1.1-.9.44.44,0,0,0-.06-.1s0,0-.07,0a.81.81,0,0,1-.23.6.77.77,0,0,1-.57.23h-1.72a.21.21,0,0,0-.24.24v4.48a.21.21,0,0,0,.07.15.17.17,0,0,0,.17,0l.86-.23a2.9,2.9,0,0,1,.43,0,1.39,1.39,0,0,1,.8.26,1.45,1.45,0,0,1,.7,1.07V98a2,2,0,0,1-.3,1.07,2,2,0,0,1-1.13.89l-1.36.44a.3.3,0,0,0-.24.33v8.1a6.61,6.61,0,0,1-.33,2.34,2.73,2.73,0,0,1-1.13,1.34,6.82,6.82,0,0,1-3.08.7h-.14a2,2,0,0,1-1.33-.5,2.57,2.57,0,0,1-.89-1.39.13.13,0,0,1,0-.07,1.57,1.57,0,0,1,0-.86,1.34,1.34,0,0,1,.49-.7,1.33,1.33,0,0,1,.81-.26,11,11,0,0,0,1.2,0,.69.69,0,0,0,.46-.11.64.64,0,0,0,.13-.48v-6.88a.19.19,0,0,0-.08-.13.15.15,0,0,0-.15,0l-1.43.43a2,2,0,0,1-.56.1,1.68,1.68,0,0,1-.9-.27,1.82,1.82,0,0,1-.86-1.16l0-.27a1.18,1.18,0,0,1-.07-.43,2,2,0,0,1,.3-1,2.11,2.11,0,0,1,1.23-.86l2.32-.53a.28.28,0,0,0,.23-.3V92c0-.16-.09-.24-.26-.24h-1.9a1.86,1.86,0,0,1-1.31-3.17,1.83,1.83,0,0,1,1.31-.55h1.9c.17,0,.26-.07.26-.23V83.47a1.85,1.85,0,0,1,.57-1.36,1.92,1.92,0,0,1,3.28,1.36v4.35c0,.16.08.23.24.23h1.79a.65.65,0,0,1,.51.24.73.73,0,0,1,.22.53c0,.06,0,.09.1.06a25.12,25.12,0,0,0,3.82-2.64A22.78,22.78,0,0,0,296.44,83.07Zm11.38,17.83a1.88,1.88,0,0,1-.58,1.38,1.84,1.84,0,0,1-1.37.58h-11c-.18,0-.27.08-.27.23s-.08.39-.16.9c0,.18,0,.27.23.27H306.3a1.9,1.9,0,0,1,1.37.56,1.87,1.87,0,0,1,.59,1.4v5.11a1.69,1.69,0,0,1-.54,1.26,1.72,1.72,0,0,1-1.26.53h-1a.77.77,0,0,1-.56-.23.75.75,0,0,1-.23-.56.09.09,0,0,0-.1-.1h-7.21c-.06,0-.1,0-.1.13a.79.79,0,0,1-.25.58.77.77,0,0,1-.58.25h-.89a1.64,1.64,0,0,1-1.2-.5,1.67,1.67,0,0,1-.5-1.23v-4.38a0,0,0,0,0,0,0,.11.11,0,0,0-.07,0,15.55,15.55,0,0,1-2.16,4.42,1.39,1.39,0,0,1-1.19.59,1.69,1.69,0,0,1-1.26-.53,1.77,1.77,0,0,1-.63-1.23v-.23a2,2,0,0,1,.33-1.13,13,13,0,0,0,2-5,31.15,31.15,0,0,0,.52-5.81V94.46a1.95,1.95,0,0,1,1.95-2h12.56a2,2,0,0,1,1.95,2Zm-12.91-1a.23.23,0,0,0,.26.26h8.7a.24.24,0,0,0,.27-.26V99c0-.16-.09-.23-.27-.23h-8.66a.24.24,0,0,0-.27.23v.48A2.34,2.34,0,0,1,294.91,99.91Zm9.23-4.42c0-.18-.09-.26-.27-.26h-8.66c-.18,0-.27.08-.27.26v.83c0,.16.09.23.27.23h8.66c.18,0,.27-.07.27-.23ZM299.32,85.2a19.4,19.4,0,0,1-2.62,2.89.15.15,0,0,0,0,.11s0,0,.09,0h5.61a.1.1,0,0,0,.1,0s0-.07,0-.11a29.27,29.27,0,0,1-2.83-2.89q-.14-.2-.3,0Zm5.32,22.11a.21.21,0,0,0-.24-.23h-6.9c-.18,0-.27.08-.27.23v1.79q0,.24.27.24h6.9a.21.21,0,0,0,.24-.24Zm18.82-7.57a46.12,46.12,0,0,1,4.88,4h0a1.93,1.93,0,0,1,.6,1.41,2,2,0,0,1-.56,1.41,1.61,1.61,0,0,1-1.23.53h-.07a1.79,1.79,0,0,1-1.29-.6c-.6-.64-1.36-1.38-2.29-2.22a.13.13,0,0,0-.14,0,.1.1,0,0,0-.06.1v4.78a6.3,6.3,0,0,1-.32,2.29,2.44,2.44,0,0,1-1.21,1.23,9.62,9.62,0,0,1-3.45.63h-.1a2.12,2.12,0,0,1-1.33-.47,2.71,2.71,0,0,1-.9-1.29,1.77,1.77,0,0,1-.06-.43,1.2,1.2,0,0,1,.23-.73,1.09,1.09,0,0,1,1-.53h0q.71,0,1.56,0a.86.86,0,0,0,.55-.18.79.79,0,0,0,.15-.55v-4.82a.12.12,0,0,0-.06-.1.17.17,0,0,0-.14,0q-1.43,1.09-3.75,2.79a1.61,1.61,0,0,1-.93.3l-.4,0a1.61,1.61,0,0,1-1.06-.86,2.18,2.18,0,0,1-.2-.9,2.46,2.46,0,0,1,.07-.6,2.06,2.06,0,0,1,.89-1.19q1.4-.87,3.66-2.39a1.12,1.12,0,0,1,.66-.24,1.4,1.4,0,0,1,.4.07,1.09,1.09,0,0,1,.76.73h.07a0,0,0,0,0,0,0V91.11a.24.24,0,0,0-.26-.27H314.8a1.78,1.78,0,0,1-1.31-.53,1.84,1.84,0,0,1,0-2.62,1.78,1.78,0,0,1,1.31-.53h4.35a.24.24,0,0,0,.26-.27V83.47a1.87,1.87,0,0,1,.57-1.39,1.94,1.94,0,0,1,2.75,0,1.87,1.87,0,0,1,.57,1.39v3.42a.24.24,0,0,0,.26.27H327s.08,0,.12-.09a.16.16,0,0,0,0-.15,15,15,0,0,0-1.79-2.49,1.35,1.35,0,0,1-.33-.89v-.2a1.2,1.2,0,0,1,.63-.93,2,2,0,0,1,1.06-.3h.27a2,2,0,0,1,1.19.6c.38.4.72.78,1,1.16a1.65,1.65,0,0,1,.37,1,2.71,2.71,0,0,1,0,.4,2,2,0,0,1-.89,1.23l-.8.49a.14.14,0,0,0,0,.09s0,0,.06,0a1.58,1.58,0,0,1,1.15.46,1.55,1.55,0,0,1,.48,1.16V89a1.76,1.76,0,0,1-.55,1.33,1.78,1.78,0,0,1-1.31.53h-4a.24.24,0,0,0-.26.27v8.63h0s.07,0,.13,0ZM315.23,98c-.33-.88-.72-1.79-1.16-2.72a1.39,1.39,0,0,1-.2-.7A1.66,1.66,0,0,1,314,94a1.51,1.51,0,0,1,.83-.9,2,2,0,0,1,.76-.17,2.09,2.09,0,0,1,.6.1,1.76,1.76,0,0,1,1,.87,21.52,21.52,0,0,1,1.23,2.59,1.64,1.64,0,0,1,0,1.39,1.94,1.94,0,0,1-1,1,1.51,1.51,0,0,1-.63.13,1.65,1.65,0,0,1-.63-.13,1.5,1.5,0,0,1-.86-.93Zm13.41-2.82c-.75,1.37-1.29,2.35-1.62,2.92a1.55,1.55,0,0,1-1,.73,1.39,1.39,0,0,1-.53.1,1.59,1.59,0,0,1-.7-.16A1.41,1.41,0,0,1,324,98a1.46,1.46,0,0,1-.1-.53,1.23,1.23,0,0,1,.16-.6c.47-1,.89-2,1.27-3a1.78,1.78,0,0,1,1-1.09,1.84,1.84,0,0,1,.77-.17,1.74,1.74,0,0,1,.66.14,1.59,1.59,0,0,1,1,1,2.09,2.09,0,0,1,.1.6,1.59,1.59,0,0,1-.24.83Zm15.54-5a1.33,1.33,0,0,1-.38.93,1.28,1.28,0,0,1-.95.4.19.19,0,0,0-.2.16,38.53,38.53,0,0,1-3.55,12,.47.47,0,0,0,0,.43,18.8,18.8,0,0,0,4.06,4.45,1.74,1.74,0,0,1,.66,1.16v.2a1.56,1.56,0,0,1-.43,1.1l-.53.66a2,2,0,0,1-1.26.76,1.37,1.37,0,0,1-.34,0,1.65,1.65,0,0,1-1.06-.4,21.17,21.17,0,0,1-3.59-4.18c-.08-.14-.18-.14-.29,0a19.4,19.4,0,0,1-5.58,4.68,2.26,2.26,0,0,1-1,.23,1.93,1.93,0,0,1-.53-.07,2.52,2.52,0,0,1-1.36-.89c-.18-.22-.37-.45-.57-.67a1.35,1.35,0,0,1-.33-.89,1.13,1.13,0,0,1,0-.3,1.26,1.26,0,0,1,.76-1,17.32,17.32,0,0,0,6.37-5.28.46.46,0,0,0,0-.44,46.05,46.05,0,0,1-1.86-5.37.1.1,0,0,0-.1-.07.1.1,0,0,0-.1.07,1.79,1.79,0,0,1-1.23,1,.4.4,0,0,1-.17,0,1.44,1.44,0,0,1-1.09-.49,2.13,2.13,0,0,1-.3-.3,2.39,2.39,0,0,1-.73-1.4v-.4a2.48,2.48,0,0,1,.3-1.16,36.48,36.48,0,0,0,3.25-11.75,1.94,1.94,0,0,1,.73-1.3,1.9,1.9,0,0,1,1.2-.43.74.74,0,0,1,.23,0l.23,0a1.78,1.78,0,0,1,1.3.73,1.88,1.88,0,0,1,.4,1.13v.3c-.18,1.1-.39,2.3-.63,3.58-.05.16,0,.24.19.24h6.51a1.86,1.86,0,0,1,1.86,1.85Zm-7.47,8.9a37.19,37.19,0,0,0,2.06-7.34c0-.16,0-.23-.2-.23h-3.69a.31.31,0,0,0-.33.23l-.06.27a.82.82,0,0,0,0,.49,40.05,40.05,0,0,0,2,6.58.11.11,0,0,0,.1.06.1.1,0,0,0,.1-.06Zm33.07,9.86H373a1,1,0,0,0,.93-.52,6.58,6.58,0,0,0,.37-2.2,1.14,1.14,0,0,1,.63-1,1.3,1.3,0,0,1,.66-.2,1.13,1.13,0,0,1,.53.14l.14.06a2.53,2.53,0,0,1,1.29,1,2,2,0,0,1,.4,1.2,1.84,1.84,0,0,1,0,.33,7.24,7.24,0,0,1-1.4,3.9,4.16,4.16,0,0,1-3.15,1.05h-4.19c-1.92,0-3.22-.36-3.88-1.07s-1-2-1-4v-7.5a.21.21,0,0,0-.23-.24h-4.22a.27.27,0,0,0-.3.24,24.87,24.87,0,0,1-.48,3.28,15.73,15.73,0,0,1-.94,2.84,9.62,9.62,0,0,1-1.6,2.54,12.32,12.32,0,0,1-2.45,2.08,18.33,18.33,0,0,1-3.52,1.74,2,2,0,0,1-.7.13,1.72,1.72,0,0,1-.83-.2,2.69,2.69,0,0,1-1.23-1.06c-.09-.13-.18-.26-.26-.4a1.24,1.24,0,0,1-.27-.76,1.38,1.38,0,0,1,.07-.43,1.2,1.2,0,0,1,.83-.83,14,14,0,0,0,2.85-1.25,9.26,9.26,0,0,0,1.93-1.47,6.82,6.82,0,0,0,1.21-1.81,10.66,10.66,0,0,0,.7-2,21,21,0,0,0,.35-2.37q0-.24-.24-.24h-2.79a2,2,0,0,1-2-2V85.43a1.36,1.36,0,0,1,.6-1.16,1.46,1.46,0,0,1,.83-.27,2.23,2.23,0,0,1,.47.07l.1,0a.53.53,0,0,0,.46,0,38.39,38.39,0,0,0,4.68-1.72,2.92,2.92,0,0,1,1.36-.34h.3a2.83,2.83,0,0,1,1.56.67l.27.23a1.12,1.12,0,0,1,.43.9V84a1.17,1.17,0,0,1-.73,1,50.51,50.51,0,0,1-6.08,2,.31.31,0,0,0-.26.3v2.29a.24.24,0,0,0,.26.27h4.75a1.63,1.63,0,0,1,1.2.49,1.69,1.69,0,0,1,0,2.4,1.63,1.63,0,0,1-1.2.49h-4.75c-.17,0-.26.08-.26.24v2.65c0,.16.09.23.26.23h16.07c.18,0,.27-.07.27-.23V93.47q0-.24-.27-.24H365.2a1.69,1.69,0,1,1,0-3.38h5.34a.24.24,0,0,0,.27-.27V87.22c0-.15-.09-.23-.27-.23H365a1.74,1.74,0,0,1-1.28-.53,1.86,1.86,0,0,1,0-2.56,1.74,1.74,0,0,1,1.28-.53h7.91a2,2,0,0,1,1.95,2V98a2,2,0,0,1-1.95,2h-4.22q-.27,0-.27.24v7.47c0,.55.08.9.24,1A1.72,1.72,0,0,0,369.78,108.94Zm28.46.26c0,.16.08.24.26.24h11.76a1.48,1.48,0,0,1,1.11.46,1.53,1.53,0,0,1,.45,1.1,1.51,1.51,0,0,1-.45,1.09,1.49,1.49,0,0,1-1.11.47h-27.8a1.49,1.49,0,0,1-1.11-.47,1.51,1.51,0,0,1-.45-1.09,1.53,1.53,0,0,1,.45-1.1,1.48,1.48,0,0,1,1.11-.46h11.59q.27,0,.27-.24v-1a.24.24,0,0,0-.27-.27h-9.23a1.44,1.44,0,0,1-1-2.45,1.35,1.35,0,0,1,1-.44h9.23c.18,0,.27-.07.27-.23v-.93c0-.18-.09-.26-.27-.26h-7.57a1.95,1.95,0,0,1-2-2V95.42a1.87,1.87,0,0,1,.57-1.37,1.84,1.84,0,0,1,1.39-.58h19.86a1.84,1.84,0,0,1,1.39.58,1.87,1.87,0,0,1,.57,1.37v6.25a1.95,1.95,0,0,1-2,2H398.5c-.18,0-.26.08-.26.26v.93c0,.16.08.23.26.23h9.4a1.35,1.35,0,0,1,1,.44,1.4,1.4,0,0,1,.42,1,1.42,1.42,0,0,1-1.43,1.43h-9.4c-.18,0-.26.09-.26.27ZM410,89h0a1.52,1.52,0,0,1,1.13.46,1.59,1.59,0,0,1,0,2.26,1.52,1.52,0,0,1-1.13.46H382.66a1.59,1.59,0,1,1,0-3.18h5.68a.16.16,0,0,0,.15-.09.16.16,0,0,0,0-.15,7.94,7.94,0,0,0-.47-1.22.67.67,0,0,1,.47-.93v0h-3.75a1.58,1.58,0,0,1,0-3.15h9.16c.13,0,.2-.08.2-.23a1.61,1.61,0,0,1,.51-1.2,1.72,1.72,0,0,1,1.22-.5h.83a1.71,1.71,0,0,1,1.69,1.7.21.21,0,0,0,.23.23h9.46a1.5,1.5,0,0,1,1.1.46,1.56,1.56,0,0,1,0,2.23,1.5,1.5,0,0,1-1.1.46H405v0a.21.21,0,0,1,.21.11.28.28,0,0,1,0,.25c-.2.4-.52,1-1,1.79a.24.24,0,0,0,0,.17s.07.07.14.07Zm-21.48,6.84c-.18,0-.26.07-.26.23v1.06c0,.18.08.27.26.27h5.51a.24.24,0,0,0,.27-.27V96.09c0-.16-.09-.23-.27-.23Zm-.26,5.14c0,.18.08.27.26.27h5.51a.24.24,0,0,0,.27-.27V99.94c0-.15-.09-.23-.27-.23h-5.51c-.18,0-.26.08-.26.23Zm11.65-12.22a20.74,20.74,0,0,0,.83-2,.14.14,0,0,0,0-.15c-.05-.06-.09-.09-.14-.09h-8.5s-.08,0-.11.09a.11.11,0,0,0,0,.15,9.14,9.14,0,0,1,.83,2,.35.35,0,0,0,.34.24h6.4a.37.37,0,0,0,.37-.24Zm4.18,8.64a.24.24,0,0,0,.27-.27V96.09c0-.16-.09-.23-.27-.23H398.5c-.18,0-.26.07-.26.23v1.06c0,.18.08.27.26.27Zm0,3.85a.24.24,0,0,0,.27-.27V99.94c0-.15-.09-.23-.27-.23H398.5c-.18,0-.26.08-.26.23V101c0,.18.08.27.26.27Zm28.06-17.93a.21.21,0,0,0,.23.23h11.09a1.64,1.64,0,0,1,1.2.5,1.71,1.71,0,0,1,0,2.42,1.6,1.6,0,0,1-1.2.5H417.2a1.6,1.6,0,0,1-1.2-.5,1.71,1.71,0,0,1,1.2-2.92h10.62a.21.21,0,0,0,.23-.23v-.67a2,2,0,0,1,2-2h.2a1.88,1.88,0,0,1,1.38.58,1.84,1.84,0,0,1,.58,1.37Zm10,13.84a1.88,1.88,0,0,1,1.38.59,1.84,1.84,0,0,1,.58,1.37v9.07a6.08,6.08,0,0,1-.36,2.31,2.47,2.47,0,0,1-1.33,1.27,10.68,10.68,0,0,1-3.55.6h-.1a2.17,2.17,0,0,1-1.4-.5,3,3,0,0,1-1-1.36l-.2-.6a.37.37,0,0,0-.36-.23h-8.34c-.11,0-.16.06-.16.17a1.37,1.37,0,0,1-1.37,1.36h-.43a1.7,1.7,0,0,1-1.24-.51,1.73,1.73,0,0,1-.52-1.28v-5.38a1.92,1.92,0,0,1,.58-1.38,1.88,1.88,0,0,1,1.38-.58h9.1a1.88,1.88,0,0,1,1.38.58,1.92,1.92,0,0,1,.58,1.38v4.38a.2.2,0,0,0,.23.23c.55,0,1,0,1.4,0a7.11,7.11,0,0,0,.93,0c.44,0,.66-.2.66-.53V100.8c0-.15-.09-.23-.27-.23H421.05c-.18,0-.27.08-.27.23v9.73a2,2,0,0,1-2,2h0a2,2,0,0,1-2-2V99.14a1.84,1.84,0,0,1,.58-1.37,1.89,1.89,0,0,1,1.38-.59Zm-21.11-6.93a2,2,0,0,1,2-2h14.67a1.88,1.88,0,0,1,1.38.58,1.85,1.85,0,0,1,.58,1.38V93.8a1.88,1.88,0,0,1-.58,1.38,1.92,1.92,0,0,1-1.38.58H423a2,2,0,0,1-2-2ZM435.26,93a.23.23,0,0,0,.26-.26V91.24a.23.23,0,0,0-.26-.26h-10.1a.23.23,0,0,0-.26.26v1.53a.23.23,0,0,0,.26.26ZM433,107c.15,0,.23-.09.23-.27v-1.66c0-.17-.08-.26-.23-.26h-5.38a.23.23,0,0,0-.26.26v1.66c0,.18.08.27.26.27Zm38.78,2.22h3.52a1,1,0,0,0,1-.63,8.16,8.16,0,0,0,.43-2.49,1.07,1.07,0,0,1,.6-1A1.42,1.42,0,0,1,478,105a1.22,1.22,0,0,1,.56.14l.13,0a2.94,2.94,0,0,1,1.27,1.06,2.23,2.23,0,0,1,.39,1.23,1.39,1.39,0,0,1,0,.3,7.87,7.87,0,0,1-1.41,4.08,4,4,0,0,1-3.2,1.17h-4.49c-1.9,0-3.19-.4-3.86-1.18s-1-2.27-1-4.44V88.09c0-.18-.08-.27-.23-.27H458.8v0a.47.47,0,0,1,.31.22.35.35,0,0,1,0,.38c-.29.89-.64,1.82-1.06,2.79a.16.16,0,0,0,0,.15.17.17,0,0,0,.15.08h3.89l.17,0a3.44,3.44,0,0,1,.46,0,2.08,2.08,0,0,1,.73.13l.7.23a1.81,1.81,0,0,1,.89.7,1.69,1.69,0,0,1,.2.8v.3q-2.52,13.25-11,18.66a2.23,2.23,0,0,1-1.06.29,1.82,1.82,0,0,1-.46-.06,2.41,2.41,0,0,1-1.37-.83,1.64,1.64,0,0,1-.29-.3,1.41,1.41,0,0,1-.4-1v-.2a1.35,1.35,0,0,1,.69-1,18.61,18.61,0,0,0,5.85-5.41.21.21,0,0,0-.07-.33,50.62,50.62,0,0,0-4.18-2.89.26.26,0,0,0-.37.07l-.2.23a1.62,1.62,0,0,1-1.32.6,2,2,0,0,1-1.43-.57l0,0a1.7,1.7,0,0,1-.63-1.36,1.82,1.82,0,0,1,.47-1.23,27.79,27.79,0,0,0,5.41-10.13.14.14,0,0,0,0-.15.16.16,0,0,0-.15-.08h-3.55a1.94,1.94,0,0,1-1.38-.56,1.86,1.86,0,0,1-.58-1.36,1.91,1.91,0,0,1,.58-1.38,1.88,1.88,0,0,1,1.38-.58h26.43a1.88,1.88,0,0,1,1.4.58,1.93,1.93,0,0,1,.56,1.38,1.88,1.88,0,0,1-.56,1.36,1.94,1.94,0,0,1-1.4.56h-6.9a.24.24,0,0,0-.27.27v8.33a.14.14,0,0,0,.07.12.13.13,0,0,0,.16,0A45.9,45.9,0,0,0,475,93.3a1.94,1.94,0,0,1,1.26-.46h.17a1.77,1.77,0,0,1,1.33.66l.46.53a1.66,1.66,0,0,1,.43,1.13v.23a1.66,1.66,0,0,1-.76,1.2q-3.09,2-7.24,4.18a.38.38,0,0,0-.23.37v6.2a3.23,3.23,0,0,0,.23,1.55C470.81,109.1,471.18,109.2,471.78,109.2Zm-12.42-9.46a24.66,24.66,0,0,0,1.43-4.35c0-.18,0-.26-.2-.26h-4.08a.36.36,0,0,0-.37.23c-.24.44-.6,1-1.06,1.73-.09.15-.06.26.1.33a44.55,44.55,0,0,1,3.88,2.39c.14.11.24.09.3-.07Zm54.46-9.69a2,2,0,0,1-2,2H491.07c-.15,0-.23.08-.23.26v12.85a3.3,3.3,0,0,0,.71,2.41,4,4,0,0,0,2.71.68h12.15c1.24,0,2.51-.07,3.82-.2h.2a2,2,0,0,1,2,1.73v.19a1.24,1.24,0,0,1,0,.27,2,2,0,0,1-.4,1.2,1.62,1.62,0,0,1-1.26.66c-1.19.07-2.69.1-4.48.1H494.72c-2.94,0-5-.52-6.25-1.54s-1.85-2.92-1.85-5.67V92.27a.23.23,0,0,0-.26-.26h-1.5a2,2,0,0,1-2-2v-.17a2,2,0,0,1,2-2h11a.21.21,0,0,0,.23-.23V83.51a1.86,1.86,0,0,1,.58-1.4,1.9,1.9,0,0,1,1.38-.56h.23a1.9,1.9,0,0,1,1.4.56,1.92,1.92,0,0,1,.56,1.4v4.18c0,.15.09.23.27.23h11.32a2,2,0,0,1,2,2Zm18.56,11.25a1.93,1.93,0,0,1,1.92,1.93c0,.15.09.23.27.23h11.19a1.88,1.88,0,0,1,1.89,1.88,1.77,1.77,0,0,1-.55,1.32,1.8,1.8,0,0,1-1.34.55H534.57c-.18,0-.27.08-.27.23v3.86a1.92,1.92,0,0,1-.56,1.39,1.89,1.89,0,0,1-1.4.57h-.23a2,2,0,0,1-2-2v-3.86a.21.21,0,0,0-.23-.23H519a1.88,1.88,0,1,1,0-3.75h10.92a.21.21,0,0,0,.23-.23,1.84,1.84,0,0,1,.58-1.36,1.91,1.91,0,0,1,1.38-.57ZM525.84,98h0c0,.16.12.23.29.23l1.3,0a.69.69,0,0,0,.43-.2c.38-.35.91-.87,1.6-1.56.11-.11.09-.22,0-.33a37.91,37.91,0,0,0-3.88-2.86.32.32,0,0,0-.4,0l-.76.63a2.2,2.2,0,0,1-1.43.53h-.07a2.44,2.44,0,0,1-1.49-.57c-.67-.5-1.39-1-2.16-1.52a1.23,1.23,0,0,1-.57-1.1,1.24,1.24,0,0,1,.44-.93,2.53,2.53,0,0,1,1.39-.56h.23a2.52,2.52,0,0,1,1.23.33,32.74,32.74,0,0,1,3.19,2.22.25.25,0,0,0,.36,0l.87-1.06a.85.85,0,0,1,.59-.35,1,1,0,0,1,.67.15.15.15,0,0,0,.16,0c.45-.67.91-1.44,1.4-2.33a.15.15,0,0,0,0-.13.13.13,0,0,0-.13-.07H520a1.7,1.7,0,0,1-1.26-.53A1.81,1.81,0,0,1,520,84.83h9.93a.2.2,0,0,0,.23-.23V83.51a1.95,1.95,0,0,1,2-2h.23a1.88,1.88,0,0,1,1.4.56,1.92,1.92,0,0,1,.56,1.4V84.6c0,.16.09.23.27.23h10.22a1.81,1.81,0,0,1,1.27,3.09,1.72,1.72,0,0,1-1.27.53H532.61a.53.53,0,0,1,.3.35.62.62,0,0,1-.07.48c-.93,1.18-1.79,2.23-2.59,3.16-.11.13-.1.24,0,.33q1,.66,1.32,1a.23.23,0,0,0,.34,0c.68-.82,1.32-1.62,1.92-2.39a2.2,2.2,0,0,1,1.2-.8,2.33,2.33,0,0,1,.53-.07,1.91,1.91,0,0,1,.86.2,1.3,1.3,0,0,1,.76.9,1.13,1.13,0,0,1,0,.3,1.2,1.2,0,0,1-.33.83q-2.4,2.68-5,5.15a.11.11,0,0,0,0,.11s0,0,.08,0l3-.13a.53.53,0,0,0,.12-.1.1.1,0,0,0,0-.13c-.07-.11-.13-.24-.2-.37a1.26,1.26,0,0,1,.53-1.86,1.83,1.83,0,0,1,.77-.16,2.46,2.46,0,0,1,.53.06,2,2,0,0,1,1.06.73q.36.49.63.93c.09.14.2.15.33,0l.37-.3a3,3,0,0,1,1.59-.63,1,1,0,0,1,.3,0,2.6,2.6,0,0,1,1.36.37,42,42,0,0,1,3.85,2.32,1.32,1.32,0,0,1,.6,1.16,1.5,1.5,0,0,1-.53,1.17,2.22,2.22,0,0,1-1.46.53,2.46,2.46,0,0,1-1.5-.5q-1.73-1.26-3.68-2.42a.13.13,0,0,0-.1,0s0,0,0,.07c.13.24.25.48.36.71a1.59,1.59,0,0,1,.17.68,1.44,1.44,0,0,1-.13.6,1.78,1.78,0,0,1-.9.93h0a1.65,1.65,0,0,1-.63.13,1.58,1.58,0,0,1-1.5-1,.26.26,0,0,0-.3-.17c-2.56.22-5.69.48-9.36.76h-.17a2.17,2.17,0,0,1-2.12-1.79l0-.16c0-.18-.11-.23-.27-.14q-2.19,1.06-4.28,2a2.12,2.12,0,0,1-.87.2,1.67,1.67,0,0,1-.63-.14,1.94,1.94,0,0,1-1.16-.92,1.47,1.47,0,0,1-.23-.77,1.42,1.42,0,0,1,.1-.53,1.53,1.53,0,0,1,1-.93q1.86-.66,4.92-1.86a1.63,1.63,0,0,1,1.42.07,1.73,1.73,0,0,1,.87,1.13Zm19.52-6.07c-.78.66-1.57,1.29-2.39,1.89a2.68,2.68,0,0,1-1.4.53h-.19a2.59,2.59,0,0,1-1.27-.33,1,1,0,0,1-.56-1,1.11,1.11,0,0,1,.4-.86c.68-.6,1.34-1.21,2-1.83a3,3,0,0,1,1.46-.8,4.58,4.58,0,0,1,.53,0,2.77,2.77,0,0,1,1.09.23l.07.07a1.24,1.24,0,0,1,.73,1,.64.64,0,0,1,0,.2,1.15,1.15,0,0,1-.46.93Z"/></g></svg>